<svg id="Layer_1" xmlns="http://www.w3.org/2000/svg" width="400" height="176" viewBox="0 0 400 176"><style>.st0{fill:#fff8f3}</style><path class="st0" d="M30.5 82.1l28 14.8 2.8 1.4c7.8 3.8 16.2 7.9 21.4 13.9l7.4-16.9c-1.5-1.2-3.1-2.4-4.9-3.5L55.5 76.4l-1.2-.6c-12.1-5.7-24.6-11.7-24.6-25.1 0-14.5 11.2-25.9 25.5-25.9 12 0 21.3 5.4 28.3 16.6l2.2 3.5 12.5-10.3-1.4-2.6c-7.9-14.4-24-23.6-41-23.6-25.1 0-43.3 18-43.3 42.8.1 13.2 6 23.5 18 30.9zM86.3 134c-4.2 13.6-17.6 23.9-33.1 23.9-14.5 0-25.4-7.4-32.3-21.9l-1-2.1H2l1.8 4.9c7.9 22 26.7 35.7 49 35.7 25.3 0 47-17.9 51.3-40.5H86.3zM269.8 25.4l-9 21.9 24.4 60H236l-6.8 16.6h65.1l15.6.1-40.1-98.6zM224.9 9l-25.4 64.2L174.4 9H154l45.5 111.9L245.4 9zm-62.1 98.2h-49.2l24.4-60-9-21.9-40.1 98.5 80.7-.1-6.8-16.5z"/><path class="st0" d="M269.8 25.4l-9 21.9-24.8 59.9-6.9 16.6-21 50.9h-17.5l-21-50.9-6.8-16.6L138 47.3l-9.1-21.9 9.6-24.1 60.9 150.6L260.3 1.3zM398 128.3c0 17-18 46.3-52.1 46.3-16.4 0-37.8-8.2-49-36.5l-1.8-4.9H313l1 2.1c7 14.5 18.2 22.6 32.7 22.6 15.5 0 34.4-12.2 34-33.1-.1-6.5-3-11.7-7.6-16.1-5-4.2-11.6-7.4-17.8-10.4l-2.8-1.4-28-14.8c-6.8-4.2-11.6-9.3-14.6-15.4-2.3-4.6-3.4-9.8-3.4-15.5 0-24.8 18.2-42.8 43.3-42.8 12.1 0 23.7 4.7 32.2 12.6 3.5 3.2 6.4 6.9 8.7 11l1.5 2.7L379.6 45l-.5-.9-1.7-2.7c-2.1-3.4-4.5-6.2-7.1-8.6-5.9-5.3-12.9-8-21.2-8-14.3 0-25.5 11.4-25.5 25.9 0 2.6.5 5 1.4 7.1 1.9 4.7 5.8 8.3 10.5 11.3l12.8 6.7 1.2.6 5.3 2.8 24.3 12.7c1.7 1.1 3.3 2.2 4.7 3.3l.1.1c11.2 9.5 14.1 19.5 14.1 33z"/></svg>