<?xml version="1.0" encoding="utf-8"?>
<!-- Generator: Adobe Illustrator 21.0.2, SVG Export Plug-In . SVG Version: 6.00 Build 0)  -->
<svg version="1.1" id="Layer_1" xmlns="http://www.w3.org/2000/svg" xmlns:xlink="http://www.w3.org/1999/xlink" x="0px" y="0px"
	 width="400px" height="176px" viewBox="0 0 400 176" style="enable-background:new 0 0 400 176;" xml:space="preserve">
<style type="text/css">
	.st0{fill:#9E023B;}
	.st1{fill:#DE281B;}
</style>
<g>
	<path class="st0" d="M31.4,82.2l27.8,14.7l2.8,1.4c7.8,3.8,16.1,7.8,21.3,13.8l7.3-16.8c-1.5-1.2-3.1-2.3-4.9-3.4L56.3,76.5
		l-1.2-0.6c-12-5.7-24.5-11.6-24.5-24.9c0-14.4,11.1-25.7,25.3-25.7c12,0,21.2,5.4,28.2,16.5l2.2,3.5l12.5-10.3l-1.5-2.6
		C89.4,18,73.4,8.8,56.5,8.8c-24.9,0-43,17.9-43,42.6C13.5,64.5,19.5,74.8,31.4,82.2z"/>
	<path class="st0" d="M86.8,133.7c-4.2,13.6-17.6,23.8-32.9,23.8c-14.4,0-25.2-7.3-32.2-21.8l-1-2.1H3l1.7,4.9
		c7.9,21.9,26.6,35.5,48.7,35.5c25.1,0,46.7-17.8,51-40.3H86.8z"/>
	<path class="st1" d="M269.5,25.7l-9,21.8l24.3,59.7h-48.9l-6.8,16.5h64.8l15.5,0.1L269.5,25.7z"/>
	<polygon class="st1" points="224.8,9.4 199.5,73.2 174.5,9.4 154.2,9.4 199.5,120.8 245.2,9.4 	"/>
	<path class="st1" d="M162.9,107.1H114l24.2-59.7l-9-21.8l-39.9,98l80.3-0.1L162.9,107.1z"/>
	<polygon class="st0" points="269.5,25.7 260.5,47.5 235.8,107.1 229,123.6 208,174.2 190.7,174.2 169.8,123.6 162.9,107.1 
		138.3,47.5 129.3,25.7 138.8,1.8 199.4,151.6 260,1.8 	"/>
	<path class="st0" d="M397,128.1c0,16.9-17.9,46.1-51.8,46.1c-16.3,0-37.6-8.2-48.7-36.3l-1.7-4.9h17.7l1,2.1
		c7,14.5,18.1,22.5,32.5,22.5c15.4,0,34.3-12.2,33.8-32.9c-0.1-6.4-3-11.6-7.6-16c-5-4.2-11.6-7.4-17.7-10.3l-2.8-1.4l-27.8-14.7
		c-6.8-4.2-11.6-9.3-14.5-15.3c-2.2-4.6-3.4-9.8-3.4-15.5c0-24.7,18.1-42.6,43-42.6c12,0,23.6,4.7,32.1,12.5c3.4,3.2,6.4,6.9,8.7,11
		l1.5,2.6l-12.5,10.3l-0.5-0.9l-1.7-2.6c-2.1-3.4-4.5-6.2-7-8.5c-5.8-5.3-12.8-7.9-21.1-7.9C334.1,25.2,323,36.5,323,51
		c0,2.6,0.5,4.9,1.3,7c1.9,4.7,5.8,8.2,10.4,11.2l12.7,6.7l1.2,0.6l5.3,2.8l24.2,12.6c1.7,1.1,3.3,2.2,4.7,3.3c0,0,0,0,0,0
		c0,0,0.1,0.1,0.1,0.1C394.1,104.7,397,114.6,397,128.1z"/>
</g>
</svg>
