<?xml version="1.0" encoding="utf-8"?>
<!-- Generator: Adobe Illustrator 21.0.2, SVG Export Plug-In . SVG Version: 6.00 Build 0)  -->
<svg version="1.1" id="Layer_1" xmlns="http://www.w3.org/2000/svg" xmlns:xlink="http://www.w3.org/1999/xlink" x="0px" y="0px"
	 width="400px" height="176px" viewBox="0 0 400 176" style="enable-background:new 0 0 400 176;" xml:space="preserve">
<style type="text/css">
	.st0{fill:#FFF8F3;}
</style>
<g>
	<path class="st0" d="M30.5,82.1l28,14.8l2.8,1.4c7.8,3.8,16.2,7.9,21.4,13.9l7.4-16.9c-1.5-1.2-3.1-2.4-4.9-3.5L55.5,76.4l-1.2-0.6
		c-12.1-5.7-24.6-11.7-24.6-25.1c0-14.5,11.2-25.9,25.5-25.9c12,0,21.3,5.4,28.3,16.6l2.2,3.5l12.5-10.3L96.8,32
		c-7.9-14.4-24-23.6-41-23.6c-25.1,0-43.3,18-43.3,42.8C12.6,64.4,18.5,74.7,30.5,82.1z"/>
	<path class="st0" d="M86.3,134c-4.2,13.6-17.6,23.9-33.1,23.9c-14.5,0-25.4-7.4-32.3-21.9l-1-2.1H2l1.8,4.9
		c7.9,22,26.7,35.7,49,35.7c25.3,0,47-17.9,51.3-40.5H86.3z"/>
	<path class="st0" d="M269.8,25.4l-9,21.9l24.4,60H236l-6.8,16.6h65.1l15.6,0.1L269.8,25.4z"/>
	<polygon class="st0" points="224.9,9 199.5,73.2 174.4,9 154,9 199.5,120.9 245.4,9 	"/>
	<path class="st0" d="M162.8,107.2h-49.2l24.4-60l-9-21.9l-40.1,98.5l80.7-0.1L162.8,107.2z"/>
	<polygon class="st0" points="269.8,25.4 260.8,47.3 236,107.2 229.1,123.8 208.1,174.7 190.6,174.7 169.6,123.8 162.8,107.2 
		138,47.3 128.9,25.4 138.5,1.3 199.4,151.9 260.3,1.3 	"/>
	<path class="st0" d="M398,128.3c0,17-18,46.3-52.1,46.3c-16.4,0-37.8-8.2-49-36.5l-1.8-4.9H313l1,2.1c7,14.5,18.2,22.6,32.7,22.6
		c15.5,0,34.4-12.2,34-33.1c-0.1-6.5-3-11.7-7.6-16.1c-5-4.2-11.6-7.4-17.8-10.4l-2.8-1.4l-28-14.8c-6.8-4.2-11.6-9.3-14.6-15.4
		c-2.3-4.6-3.4-9.8-3.4-15.5c0-24.8,18.2-42.8,43.3-42.8c12.1,0,23.7,4.7,32.2,12.6c3.5,3.2,6.4,6.9,8.7,11l1.5,2.7L379.6,45
		l-0.5-0.9l-1.7-2.7c-2.1-3.4-4.5-6.2-7.1-8.6c-5.9-5.3-12.9-8-21.2-8c-14.3,0-25.5,11.4-25.5,25.9c0,2.6,0.5,5,1.4,7.1
		c1.9,4.7,5.8,8.3,10.5,11.3l12.8,6.7l1.2,0.6l5.3,2.8l24.3,12.7c1.7,1.1,3.3,2.2,4.7,3.3c0,0,0,0,0,0c0,0,0.1,0.1,0.1,0.1
		C395.1,104.8,398,114.8,398,128.3z"/>
</g>
</svg>
