<svg id="Layer_1" xmlns="http://www.w3.org/2000/svg" width="400" height="176"><style>.st0{fill:#9e023b}</style><path class="st0" d="M31.4 82.2l27.8 14.7 2.8 1.4c7.8 3.8 16.1 7.8 21.3 13.8l7.3-16.8c-1.5-1.2-3.1-2.3-4.9-3.4L56.3 76.5l-1.2-.6c-12-5.7-24.5-11.6-24.5-24.9 0-14.4 11.1-25.7 25.3-25.7 12 0 21.2 5.4 28.2 16.5l2.2 3.5L98.8 35l-1.5-2.6C89.4 18 73.4 8.8 56.5 8.8c-24.9 0-43 17.9-43 42.6 0 13.1 6 23.4 17.9 30.8zm55.4 51.5c-4.2 13.6-17.6 23.8-32.9 23.8-14.4 0-25.2-7.3-32.2-21.8l-1-2.1H3l1.7 4.9c7.9 21.9 26.6 35.5 48.7 35.5 25.1 0 46.7-17.8 51-40.3H86.8z"/><path d="M269.5 25.7l-9 21.8 24.3 59.7h-48.9l-6.8 16.5h64.8l15.5.1-39.9-98.1zM224.8 9.4l-25.3 63.8-25-63.8h-20.3l45.3 111.4L245.2 9.4zm-61.9 97.7H114l24.2-59.7-9-21.8-39.9 98 80.3-.1-6.7-16.4z" fill="#de281b"/><path class="st0" d="M269.5 25.7l-9 21.8-24.7 59.6-6.8 16.5-21 50.6h-17.3l-20.9-50.6-6.9-16.5-24.6-59.6-9-21.8 9.5-23.9 60.6 149.8L260 1.8zM397 128.1c0 16.9-17.9 46.1-51.8 46.1-16.3 0-37.6-8.2-48.7-36.3l-1.7-4.9h17.7l1 2.1c7 14.5 18.1 22.5 32.5 22.5 15.4 0 34.3-12.2 33.8-32.9-.1-6.4-3-11.6-7.6-16-5-4.2-11.6-7.4-17.7-10.3l-2.8-1.4-27.8-14.7c-6.8-4.2-11.6-9.3-14.5-15.3-2.2-4.6-3.4-9.8-3.4-15.5 0-24.7 18.1-42.6 43-42.6 12 0 23.6 4.7 32.1 12.5 3.4 3.2 6.4 6.9 8.7 11l1.5 2.6-12.5 10.3-.5-.9-1.7-2.6c-2.1-3.4-4.5-6.2-7-8.5-5.8-5.3-12.8-7.9-21.1-7.9C334.1 25.2 323 36.5 323 51c0 2.6.5 4.9 1.3 7 1.9 4.7 5.8 8.2 10.4 11.2l12.7 6.7 1.2.6 5.3 2.8 24.2 12.6c1.7 1.1 3.3 2.2 4.7 3.3l.1.1c11.2 9.4 14.1 19.3 14.1 32.8z"/></svg>