<svg class="screenonly" xmlns="http://www.w3.org/2000/svg" fill-rule="evenodd" stroke-linejoin="round" stroke-miterlimit="1.414" clip-rule="evenodd" viewBox="0 0 685 134"><path fill-rule="nonzero" d="M274.95 0h.75v133.575h-.75V0zM15.225 104.85c-1.8 0-3.75.075-5.775.225-2.025.15-3.825.225-5.25.225-.3 0-.75-.075-1.35-.15-.6-.075-.825-.45-.825-1.05 0-.525.3-.975.825-1.5.6-.525 1.8-.9 3.675-1.2a9.16 9.16 0 0 0 1.95-.45 4.56 4.56 0 0 0 1.8-1.125c.525-.525.975-1.275 1.275-2.25.3-.975.525-2.4.525-4.2v-57.75c0-.6-.3-.975-.825-1.275-.6-.3-1.275-.525-2.175-.6a15.119 15.119 0 0 0-2.7-.225c-.975-.075-1.8-.075-2.625-.15-1.425-.15-2.325-.3-2.925-.45C.3 32.775 0 32.4 0 31.725c0-.525.15-.9.525-1.2.375-.3.825-.525 1.275-.6.525-.15.975-.225 1.5-.225.525-.075.975-.075 1.425-.075H15.9c3 0 6.075-.15 9.15-.375s6.6-.375 10.5-.375a65.253 65.253 0 0 1 18.225 2.475C59.4 33 64.35 35.55 68.625 39c4.2 3.45 7.575 7.875 10.05 13.2 2.475 5.4 3.675 11.775 3.675 19.125 0 4.575-.975 8.925-3 13.05s-4.725 7.65-8.175 10.725c-3.45 3-7.5 5.4-12.15 7.2a42.369 42.369 0 0 1-14.85 2.625h-28.95m7.35-15.45c0 2.1.45 3.975 1.35 5.55.9 1.575 2.1 2.85 3.6 3.9 1.5 1.05 3.15 1.8 5.025 2.25 1.875.525 3.825.75 5.775.75 1.65 0 3.6-.225 5.775-.75 2.25-.525 4.5-1.275 6.9-2.25 2.4-1.05 4.8-2.4 7.125-4.125 2.4-1.725 4.5-3.825 6.45-6.225 1.875-2.4 3.375-5.25 4.575-8.475 1.125-3.225 1.725-6.975 1.725-11.1 0-4.2-.6-7.95-1.725-11.4a33.318 33.318 0 0 0-4.65-9.225c-1.95-2.7-4.275-5.025-6.825-6.975-2.625-1.95-5.25-3.6-8.1-4.95A40.284 40.284 0 0 0 27 33.075c-1.425.225-2.4.525-3.075.9-.675.375-1.05.825-1.2 1.275-.15.525-.15.975-.15 1.35v52.875zM107.4 107.1c-2.85 0-5.25-.375-7.2-1.2-1.95-.825-3.45-2.025-4.575-3.6-1.125-1.575-1.875-3.375-2.325-5.55-.45-2.1-.675-4.5-.675-7.125 0-1.875 0-3.975.075-6.3.075-2.325.075-4.575.075-6.9 0-2.4 0-4.725.075-6.975s.075-4.275.075-6.075c0-.9-.375-1.5-1.2-1.725-.825-.225-1.575-.45-2.325-.6-1.5-.375-2.475-.75-2.925-.9-.525-.225-.75-.525-.75-.9 0-.6.3-.9.825-.975.6-.075 1.275-.15 2.175-.15.9 0 1.8.075 2.625.15s1.725.15 2.625.15c.9 0 1.8-.075 2.7-.15.9-.075 1.8-.15 2.7-.15.825 0 1.35.15 1.575.525.225.3.3.975.3 1.875 0 5.475-.075 10.95-.15 16.425-.075 5.475-.15 10.95-.15 16.425 0 2.55.825 4.5 2.55 5.85 1.725 1.35 4.125 2.025 7.125 2.025 3.45 0 6.075-.3 8.025-.975 1.95-.675 3.375-1.5 4.35-2.55.975-1.05 1.65-2.175 1.875-3.525.3-1.275.45-2.55.45-3.825 0-4.425.075-8.775.15-13.125s.15-8.7.15-13.125c0-.3-.075-.6-.15-.825-.15-.225-.375-.45-.825-.6-.45-.15-1.05-.375-1.875-.525-.825-.225-1.95-.525-3.45-.9-.525-.15-1.2-.375-2.175-.75-.975-.3-1.425-.75-1.425-1.2 0-.375.3-.675.825-.825.6-.15 1.2-.15 1.875-.15 1.05 0 2.1.075 3.15.15 1.05.075 2.1.15 3.15.15 1.2 0 2.475-.075 3.6-.15 1.2-.075 2.4-.15 3.675-.15.375 0 .975.15 1.575.45.675.3.975.975.975 2.175 0 6.225-.075 12.45-.225 18.6-.15 6.15-.225 12.375-.225 18.6 0 1.275.375 2.1 1.2 2.475.75.3 1.425.525 2.025.525 2.4 0 4.05.075 4.95.15.975.075 1.425.45 1.425 1.125 0 .45-.225.825-.525.975-.375.15-.975.3-1.875.525-4.35.675-7.725 1.2-10.2 1.725-2.475.45-3.975.75-4.575.75-.45 0-.75-.15-.825-.525a6.903 6.903 0 0 1-.15-1.425v-2.85c0-.975-.3-1.5-.825-1.5-.525 0-1.2.375-2.1 1.125-.9.75-2.1 1.575-3.525 2.55-1.425.975-3.15 1.8-5.025 2.55-2.025.375-4.2.75-6.675.75m46.5-72.225c0-1.65-.3-2.775-.9-3.525a5.184 5.184 0 0 0-2.1-1.5c-.75-.3-1.5-.525-2.1-.675-.6-.15-.9-.525-.9-1.125 0-.375.225-.75.6-.9.375-.225 1.05-.45 1.95-.825l8.4-3.225c.3-.15.675-.225.975-.225h1.125c.3 0 .675.15.9.45.3.3.45.9.45 1.8v50.55c0 1.275.375 1.95 1.125 1.95.15 0 .825-.3 1.875-.825 1.125-.525 2.4-1.2 3.9-2.1 1.5-.825 3.075-1.8 4.725-2.925 1.65-1.05 3.225-2.1 4.575-3.075 1.425-.975 2.55-1.875 3.525-2.625.975-.75 1.425-1.35 1.425-1.8 0-.825-.225-1.425-.75-1.875-.525-.45-1.05-.825-1.575-1.125-.6-.3-1.125-.6-1.575-.825-.525-.3-.75-.675-.75-1.2 0-.3.15-.6.525-.825.375-.225.75-.375 1.2-.375 1.275 0 2.775.075 4.5.15 1.65.075 3.3.15 4.95.15 1.575 0 3.15-.075 4.875-.15 1.65-.075 3.15-.15 4.35-.15.6 0 1.125.075 1.575.225.525.15.75.6.75 1.2 0 .3-.225.6-.675.9-.45.3-.975.525-1.65.825l-2.025.675c-.675.225-1.275.375-1.65.525-.9.375-2.625 1.35-5.25 2.775-2.55 1.425-5.25 3-8.025 4.575-2.775 1.65-5.175 3.15-7.275 4.575-2.1 1.425-3.225 2.325-3.225 2.625 0 .375.15.75.375 1.05.225.3.45.525.6.675L193.95 97.95c1.2 1.125 2.4 2.025 3.6 2.55 1.2.6 2.25 1.05 3.15 1.425l2.175.9c.525.225.825.6.825.975 0 .825-1.05 1.2-3.225 1.2a44.23 44.23 0 0 1-4.275-.225 54.833 54.833 0 0 0-9.825 0c-1.5.15-2.925.225-4.425.225-1.275 0-2.25-.075-2.85-.15-.6-.15-.825-.45-.825-1.05 0-.6.3-.975.975-1.2.675-.225 1.5-.375 2.55-.525.675-.075 1.2-.3 1.65-.6.45-.3.675-.675.675-1.125 0-.375-.45-1.05-1.35-1.95L164.25 80.85c-.525-.525-.825-.75-1.125-.75-.6 0-.825.225-.825.6v17.4c0 1.425.3 2.325.9 2.85.6.525 1.2.9 1.8 1.05.975.3 1.8.525 2.55.675.675.15 1.05.45 1.05 1.05 0 .525-.3.825-.9.975a8.01 8.01 0 0 1-1.875.225c-1.5 0-2.85-.075-4.2-.225-1.35-.15-2.7-.225-4.05-.225-1.5 0-3.075.075-4.725.225-1.65.15-3.075.225-4.125.225-.375 0-.975-.075-1.8-.15-.75-.15-1.2-.45-1.2-1.05 0-.6.225-.975.6-1.2.375-.225.975-.375 1.575-.525.825-.225 1.575-.45 2.325-.6.75-.15 1.425-.375 1.95-.75.6-.3.975-.825 1.275-1.5.3-.675.45-1.65.45-2.925v-61.35m57.975 41.4c-.15.375-.225.975-.225 1.725v2.55c0 2.625.225 5.175.675 7.65.45 2.475 1.275 4.65 2.55 6.525s3.075 3.45 5.4 4.65c2.325 1.2 5.4 1.8 9.15 1.8 2.4 0 4.2-.225 5.55-.75 1.275-.525 2.325-1.05 3.075-1.65.75-.6 1.275-1.2 1.725-1.725.375-.525.825-.825 1.35-.825.75 0 1.125.3 1.125.975 0 .225-.3.9-.975 1.875-.675 1.05-1.725 2.1-3.225 3.3-1.5 1.2-3.375 2.25-5.625 3.225-2.25.975-4.95 1.425-8.175 1.425-6.825 0-12.075-2.25-15.75-6.675-3.675-4.5-5.55-10.575-5.55-18.3 0-2.85.45-5.85 1.35-8.925.9-3.075 2.25-5.85 4.125-8.4 1.875-2.475 4.125-4.575 6.9-6.225 2.775-1.65 6.075-2.475 9.975-2.475 3.525 0 6.45.675 8.925 1.95 2.4 1.275 4.35 2.85 5.85 4.725 1.5 1.875 2.55 3.75 3.225 5.7.675 1.95.975 3.6.975 4.875 0 1.125-.15 1.875-.45 2.25-.3.375-.975.525-2.025.525h-29.925m11.775-3.45c2.7 0 4.875-.075 6.525-.3 1.65-.225 2.925-.525 3.825-1.05.9-.525 1.5-1.125 1.8-1.875.3-.75.45-1.65.45-2.85 0-2.1-.825-3.9-2.55-5.325-1.725-1.425-3.9-2.175-6.525-2.175-2.175 0-4.2.45-5.925 1.425-1.725.975-3.225 2.1-4.425 3.375a15.587 15.587 0 0 0-2.775 4.05c-.675 1.425-.975 2.55-.975 3.525 0 .225.075.45.15.525.15.15.525.225 1.2.3.675.075 1.725.15 3.225.15 1.275.225 3.375.225 6 .225zm110.475-3.075c-2.775.675-6.675 1.2-9.3 1.2-10.8 0-18.75-7.05-18.75-16.425 0-9.3 7.725-16.2 18.3-16.2 2.475 0 5.475.3 7.2.75 1.575.375 2.475.75 4.65 1.875l-2.1 4.125c-.975-.6-1.725-.975-2.175-1.2-2.025-.825-5.1-1.5-7.5-1.5-7.575 0-13.125 5.1-13.125 11.85 0 7.2 6.15 12.525 14.25 12.525 1.575 0 2.925-.15 6.075-.675v-9.9h5.025v12.825c-1.05.375-1.95.6-2.55.75zm11.1.525V38.625h5.025v27.3h14.85v4.125h-19.875zm37.725.6c-10.125 0-17.4-6.825-17.4-16.35 0-9.375 7.275-16.275 17.4-16.275 10.05 0 17.4 6.9 17.4 16.275 0 9.525-7.35 16.35-17.4 16.35zm0-28.425c-6.9 0-12.15 5.175-12.15 12.075 0 6.9 5.25 12.15 12.15 12.15s12.075-5.25 12.075-12.15-5.175-12.075-12.075-12.075zm36.6 27.825h-13.275V38.625h11.55c6.75 0 10.125 2.625 10.125 7.725 0 3.6-2.25 6.6-5.475 7.2 4.2.675 6.9 3.75 6.9 7.95 0 5.025-4.05 8.55-9.825 8.55zM417 42.75h-5.775v9.075h5.325c3.075 0 3.45-.075 4.65-.975a4.653 4.653 0 0 0 1.65-3.75c.075-3.15-1.575-4.35-5.85-4.35zm5.325 14.175c-.825-.6-1.8-.9-2.775-.975h-8.25v9.9h5.775c3.3 0 3.525 0 4.875-.75 1.35-.825 2.25-2.4 2.25-4.2-.075-1.575-.75-3.075-1.875-3.975zm34.95 13.125l-3.6-8.775h-13.5l-3.525 8.775h-5.025L444.45 37.8h4.95l12.825 32.25h-4.95zm-10.35-26.925l-5.4 14.1h10.725l-5.325-14.1zm20.1 26.925V38.625h5.025v27.3h14.85v4.125h-19.875zm62.775 0v-14.1h-19.875v14.1H504.9V38.625h5.025v13.2H529.8v-13.2h4.95V70.05h-4.95zm15.75 0V38.625h19.5v4.125h-14.475v9.075h12v4.125h-12v9.9h14.85v4.125H545.55v.075zm48.225 0l-3.6-8.775h-13.5l-3.525 8.775h-5.025L580.95 37.8h4.95l12.825 32.25h-4.95zm-10.35-26.925l-5.4 14.1h10.725l-5.325-14.1zm20.7 26.925V38.625h5.025v27.3H624v4.125h-19.875zm33.6-27.3v27.3h-4.95v-27.3H621.6v-4.125h27.3v4.125h-11.175zm42 27.3v-14.1H659.85v14.1h-5.025V38.625h5.025v13.2h19.875v-13.2h4.95V70.05h-4.95zm-306.3 36.75V87h3.15v19.8h-3.15zm37.275.225L399.525 92.7c-.675-.9-.9-1.275-1.05-1.8v15.9h-2.925V87h3.15l11.175 14.1c.375.375.675 1.2.825 1.8V87h2.85v20.1h-2.85v-.075zM440.175 90.9a9.707 9.707 0 0 0-5.25-1.65c-2.55 0-4.05.9-4.05 2.475 0 .45.075.75.225 1.05.6.9 1.275 1.275 5.1 3.075 3.75 1.8 4.95 3.225 4.95 5.625 0 3.525-2.7 5.625-7.2 5.625-1.5 0-2.925-.225-4.05-.6-.825-.3-1.425-.6-2.85-1.5l1.425-2.7c1.275.9 1.8 1.275 2.55 1.575.975.45 2.175.675 3.3.675 2.325 0 3.675-.975 3.675-2.625 0-1.35-.675-2.175-2.25-2.925l-3.6-1.725c-3-1.425-4.425-3.075-4.425-5.25 0-3.3 2.85-5.4 7.2-5.4 1.275 0 2.55.15 3.675.525.9.225 1.425.525 2.625 1.125l-1.05 2.625zm25.125-1.35v17.25h-3.075V89.55h-7.05v-2.625h17.25v2.625H465.3zm26.475 17.25V87h3.15v19.8h-3.15zm32.7-17.25v17.25H521.4V89.55h-7.05v-2.625h17.25v2.625h-7.125zm33.675 16.35c-1.5.9-3.75 1.5-5.625 1.5s-4.125-.6-5.7-1.5c-2.1-1.275-2.85-3.225-2.85-7.2V86.925h3.075v12.3c0 3.6 1.875 5.475 5.475 5.475 3.6 0 5.4-1.875 5.4-5.475v-12.3H561V98.7c.075 3.975-.75 5.925-2.85 7.2zm25.5-16.35v17.25h-3.15V89.55h-7.05v-2.625h17.25v2.625h-7.05zm21.75 17.25V87h12.3v2.625h-9.15v5.7h7.575v2.625h-7.575v6.3h9.375v2.625H605.4v-.075z"/></svg>