<svg xmlns="http://www.w3.org/2000/svg" width="382.5" height="91" viewBox="0 0 382.5 91"><style>.st0{fill:#001f5b}.st1{fill:#ffa400}</style><path class="st0" d="M0 81.7V70.3l4.2-.4V27.6L0 27.2V15.7h25.1v11.5l-4.2.4v42.2l4.2.4v11.5H0zm51 1.5c-8.2 0-17.6-1.4-20.9-2.3V66h11.7l.9 4.8c2.5.1 4.9.2 7.4.2 7.1 0 9-1.6 9-5 0-3.3-1.4-4.2-8.8-7.2L46 57.1c-11-4.2-16.9-8.9-16.9-18.6 0-13 9.2-16.7 24.1-16.7 8.6 0 18 1.2 21.7 2.4v14.1H63.3l-1-4.2c-2.4-.1-5.4-.2-7.3-.2-5.9 0-8.4.7-8.4 4.1 0 3 1.4 4 7.7 6.3l5.1 1.9c12.8 4.9 17.3 9.4 17.3 18.9 0 12.1-8.2 18.1-25.7 18.1zM219.6 37L206 81.8h-25.2L167.1 37l-4.9-.7V23.2h19.7l8.1 31.6c1.3 5.4 2.5 11.1 3.4 15.9h.2c1-4.8 2.2-10.4 3.5-15.9l8-31.6h19.5v13.1l-5 .7zm23.7 20.4v.8c0 7.5 1 11.5 13.6 11.5 5.9 0 16.2-.4 21.9-1v12c-4.6 1.1-12.8 2.6-22.7 2.6-21.5 0-30.5-7.7-30.5-27.8v-5.3c0-19.5 10.3-28.4 28.2-28.4 21.8 0 27.9 14.1 27.9 29.6v6h-38.4zm20.9-10.7c0-6.5-1.3-12.1-10.4-12.1-8.9 0-10.3 5.7-10.3 12.1v.8h20.8v-.8zm43.3-7.1v28.7l4.6.5v13H285v-13l4.7-.5V36.7l-4.7-.5v-13h21.3v4.9c5.7-5.3 12.9-6.3 19.3-6.3V37c-6.5 0-13.5 1.1-18.1 2.6zm54.1 42.1V78c-3.9 2.6-10.7 5.2-18.4 5.2-11 0-17.1-5.5-17.1-16.7v-2.4c0-15.6 11.9-17.3 28.5-17.3h5.4v-3.2c0-7.1-1.5-8.5-10.8-8.5-2.2 0-4.1.1-6.3.2l-1 4.5h-11.5V25.2c3.3-1.1 12.7-3.5 22.5-3.5 18.2 0 25 5.8 25 21.9v24.6l4.6.5v13h-20.9zm-.9-25.7h-5.9c-8.2 0-11.7.9-11.7 7.5v2.4c0 4.5 2.8 5.7 6.7 5.7 4.6 0 9.1-1.6 11-2.7V56z"/><path class="st1" d="M145.7 19.9c-5-4-9.6-6-10.9-6.5-5-2.2-9.8-2.4-14.5-4.8C116.7 6.7 108-.8 109.1.1c-.4 1.1-3.7 11.7-2.2 21s5.7 15.5 14.3 19.8c8.6 4.3 17.1 4.1 18.2 10.3.3 1.7.5 3.2.5 4.6 1.2.7 1.8 1.1 2.2 1.4.6.5-.1 2.9-1.1 5.3s-2.2 4.6-3 4.4c-.4-.1-1.2-.3-2.5-.9l-.3.3c-1.1 1.2-2.4 2.2-3.9 3 .4 1.4.5 2.2.6 2.7.1.8-2 1.7-4.5 2.5h-.2c-2.5.8-4.8 1.2-5.1.5-.3-.5-.6-1.3-1.2-2.9-1.6 0-3.3-.1-4.9-.5-.8 1.4-1.2 2.1-1.6 2.5-.5.6-2.7-.3-5.1-1.6-2.3-1.3-4.3-2.7-4.1-3.5.1-.5.4-1.3 1.1-2.9-1.2-1.2-2.3-2.4-3.3-3.8-1.5.4-2.3.6-2.8.6-.8.1-1.7-2.2-2.6-4.8-.8-2.6-1.3-5-.7-5.4.4-.2 1.1-.5 2.5-1.1-.1-1.9 0-3.6.3-5.3-1.4-.9-2-1.5-2.4-1.8-.6-.5.4-2.8 1.6-5.1 1.3-2.3 2.7-4.3 3.4-4 .4.1 1 .4 2.2 1l.2-.2c2.2-2.6 2.2-2.2 3.5-3.3 0 0-3.4-4.7-4-9.6-.6-4.8-.4-9.8-.4-9.8s-.5.5-2.3 1.8c-1.9 1.4-3.4 2.3-6.2 4.7-3 2.3-18.3 15-14.7 37.6 1.1 7.2 4.1 13.5 8.3 18.7 9 10.9 23.6 16.5 38 14.3 21.1-3.3 37-21.6 33.3-44.8-1.8-12.9-8.4-21-14.5-25.9z"/></svg>