<?xml version="1.0" encoding="utf-8"?>
<!-- Generator: Adobe Illustrator 21.0.2, SVG Export Plug-In . SVG Version: 6.00 Build 0)  -->
<svg version="1.1" id="Layer_1" xmlns="http://www.w3.org/2000/svg" xmlns:xlink="http://www.w3.org/1999/xlink" x="0px" y="0px"
	 viewBox="0 0 100 100" style="enable-background:new 0 0 100 100;" xml:space="preserve">
<style type="text/css">
	.st0{fill:none;stroke:#000000;stroke-width:2;stroke-opacity:0.25;}
</style>
<g>
	<path class="st0" d="M-48,50l98-98l98,98l-98,98L-48,50z"/>
	<path class="st0" d="M-43.9,50L50-43.9L143.9,50L50,143.9L-43.9,50z"/>
	<path class="st0" d="M-39.7,50L50-39.7L139.7,50L50,139.7L-39.7,50z"/>
	<path class="st0" d="M-35.6,50L50-35.6L135.6,50L50,135.6L-35.6,50z"/>
	<path class="st0" d="M-31.5,50L50-31.5L131.5,50L50,131.5L-31.5,50z"/>
	<path class="st0" d="M-27.4,50L50-27.4L127.4,50L50,127.4L-27.4,50z"/>
	<path class="st0" d="M-23.2,50L50-23.2L123.2,50L50,123.2L-23.2,50z"/>
	<path class="st0" d="M-19.1,50L50-19.1L119.1,50L50,119.1L-19.1,50z"/>
	<path class="st0" d="M-15,50l65-65l65,65l-65,65L-15,50z"/>
	<path class="st0" d="M-10.9,50L50-10.9L110.9,50L50,110.9L-10.9,50z"/>
	<path class="st0" d="M-6.7,50L50-6.7L106.7,50L50,106.7L-6.7,50z"/>
	<path class="st0" d="M-2.6,50L50-2.6L102.6,50L50,102.6L-2.6,50z"/>
	<path class="st0" d="M1.5,50L50,1.5L98.5,50L50,98.5L1.5,50z"/>
	<path class="st0" d="M5.6,50L50,5.6L94.4,50L50,94.4L5.6,50z"/>
	<path class="st0" d="M9.8,50L50,9.8L90.2,50L50,90.2L9.8,50z"/>
	<path class="st0" d="M13.9,50L50,13.9L86.1,50L50,86.1L13.9,50z"/>
	<path class="st0" d="M18,50l32-32l32,32L50,82L18,50z"/>
	<path class="st0" d="M22.1,50L50,22.1L77.9,50L50,77.9L22.1,50z"/>
	<path class="st0" d="M26.3,50L50,26.3L73.7,50L50,73.7L26.3,50z"/>
	<path class="st0" d="M30.4,50L50,30.4L69.6,50L50,69.6L30.4,50z"/>
	<path class="st0" d="M34.5,50L50,34.5L65.5,50L50,65.5L34.5,50z"/>
	<path class="st0" d="M38.7,50L50,38.7L61.3,50L50,61.3L38.7,50z"/>
	<path class="st0" d="M42.8,50l7.2-7.2l7.2,7.2L50,57.2L42.8,50z"/>
	<path class="st0" d="M46.9,50l3.1-3.1l3.1,3.1L50,53.1L46.9,50z"/>
</g>
</svg>
