<svg id="Layer_1" xmlns="http://www.w3.org/2000/svg" viewBox="0 0 400 400"><style>.st0{fill:#9e023b}.st1{fill:#0a5365}.st2{fill:#de281b}.st3{fill:#06282d}.st4{fill:#fff}.st5{fill:#565d5e}.st6{fill:#39a954}.st7{fill:#fff8f3}</style><circle class="st0" cx="348.4" cy="44.7" r="33.3"/><circle class="st1" cx="348.4" cy="148.3" r="33.3"/><circle class="st2" cx="348.4" cy="251.9" r="33.3"/><circle class="st3" cx="348.4" cy="355.5" r="33.3"/><circle class="st3" cx="348.4" cy="394.7" r="1.5"/><circle class="st3" cx="348.4" cy="316.4" r="1.5"/><circle class="st3" cx="309.2" cy="355.5" r="1.5"/><circle class="st3" cx="387.6" cy="355.5" r="1.5"/><ellipse transform="rotate(-10.003 355.133 393.942)" class="st3" cx="355.2" cy="394.1" rx="1.5" ry="1.5"/><ellipse transform="rotate(-10.003 341.48 316.916)" class="st3" cx="341.6" cy="317" rx="1.5" ry="1.5"/><ellipse transform="rotate(-10.003 309.822 362.366)" class="st3" cx="309.8" cy="362.3" rx="1.5" ry="1.5"/><ellipse transform="rotate(-10.003 386.909 348.738)" class="st3" cx="387" cy="348.7" rx="1.5" ry="1.5"/><ellipse transform="rotate(-20.004 361.776 392.298)" class="st3" cx="361.8" cy="392.3" rx="1.5" ry="1.5"/><ellipse transform="rotate(-19.993 335.041 318.747)" class="st3" cx="335" cy="318.7" rx="1.5" ry="1.5"/><ellipse transform="rotate(-20.004 311.589 368.895)" class="st3" cx="311.6" cy="368.9" rx="1.5" ry="1.5"/><ellipse transform="rotate(-20.004 385.179 342.11)" class="st3" cx="385.2" cy="342.1" rx="1.5" ry="1.5"/><ellipse transform="rotate(-30.014 367.93 389.409)" class="st3" cx="368" cy="389.4" rx="1.5" ry="1.5"/><ellipse transform="rotate(-29.991 328.787 321.571)" class="st3" cx="328.8" cy="321.6" rx="1.5" ry="1.5"/><ellipse transform="rotate(-30.006 314.463 375.075)" class="st3" cx="314.5" cy="375.1" rx="1.5" ry="1.5"/><ellipse transform="rotate(-29.991 382.272 335.902)" class="st3" cx="382.3" cy="335.9" rx="1.5" ry="1.5"/><ellipse transform="rotate(-39.995 373.562 385.521)" class="st3" cx="373.6" cy="385.5" rx="1.5" ry="1.5"/><ellipse transform="rotate(-39.986 323.237 325.525)" class="st3" cx="323.2" cy="325.5" rx="1.5" ry="1.5"/><ellipse transform="rotate(-40.01 318.398 380.692)" class="st3" cx="318.4" cy="380.7" rx="1.5" ry="1.5"/><ellipse transform="rotate(-40.002 378.4 330.353)" class="st3" cx="378.4" cy="330.3" rx="1.5" ry="1.5"/><ellipse transform="rotate(-49.99 378.409 380.7)" class="st3" cx="378.4" cy="380.7" rx="1.5" ry="1.5"/><ellipse transform="rotate(-49.998 318.414 330.356)" class="st3" cx="318.4" cy="330.3" rx="1.5" ry="1.5"/><ellipse transform="rotate(-50.007 323.214 385.515)" class="st3" cx="323.2" cy="385.5" rx="1.5" ry="1.5"/><ellipse transform="rotate(-50.014 373.56 325.517)" class="st3" cx="373.6" cy="325.5" rx="1.5" ry="1.5"/><ellipse transform="rotate(-60.007 382.287 375.08)" class="st3" cx="382.3" cy="375.1" rx="1.5" ry="1.5"/><ellipse transform="rotate(-60 314.487 335.947)" class="st3" cx="314.5" cy="335.9" rx="1.5" ry="1.5"/><ellipse transform="rotate(-60 328.82 389.44)" class="st3" cx="328.8" cy="389.4" rx="1.5" ry="1.5"/><ellipse transform="rotate(-60 367.966 321.612)" class="st3" cx="368" cy="321.6" rx="1.5" ry="1.5"/><ellipse transform="rotate(-69.996 385.178 368.895)" class="st3" cx="385.2" cy="368.9" rx="1.5" ry="1.5"/><ellipse transform="rotate(-69.996 311.587 342.11)" class="st3" cx="311.6" cy="342.1" rx="1.5" ry="1.5"/><ellipse transform="rotate(-69.996 334.99 392.297)" class="st3" cx="335" cy="392.3" rx="1.5" ry="1.5"/><ellipse transform="rotate(-70.007 361.79 318.728)" class="st3" cx="361.8" cy="318.7" rx="1.5" ry="1.5"/><ellipse transform="rotate(-80.003 386.96 362.321)" class="st3" cx="387" cy="362.3" rx="1.5" ry="1.5"/><ellipse transform="rotate(-80.003 309.827 348.72)" class="st3" cx="309.8" cy="348.7" rx="1.5" ry="1.5"/><ellipse transform="rotate(-79.997 341.575 394.073)" class="st3" cx="341.6" cy="394.1" rx="1.5" ry="1.5"/><ellipse transform="rotate(-80.003 355.208 316.958)" class="st3" cx="355.2" cy="317" rx="1.5" ry="1.5"/><circle class="st2" cx="348.4" cy="291" r="1.5"/><circle class="st2" cx="348.4" cy="212.7" r="1.5"/><circle class="st2" cx="309.2" cy="251.9" r="1.5"/><circle class="st2" cx="387.6" cy="251.9" r="1.5"/><ellipse transform="rotate(-10.003 355.129 290.459)" class="st2" cx="355.2" cy="290.5" rx="1.5" ry="1.5"/><ellipse transform="rotate(-10.003 341.7 213.377)" class="st2" cx="341.6" cy="213.3" rx="1.5" ry="1.5"/><ellipse transform="rotate(-10.003 309.774 258.694)" class="st2" cx="309.8" cy="258.7" rx="1.5" ry="1.5"/><ellipse transform="rotate(-10.003 386.84 245.078)" class="st2" cx="387" cy="245.1" rx="1.5" ry="1.5"/><ellipse transform="rotate(-20.004 361.776 288.677)" class="st2" cx="361.8" cy="288.7" rx="1.5" ry="1.5"/><ellipse transform="rotate(-20.004 334.99 215.087)" class="st2" cx="335" cy="215.1" rx="1.5" ry="1.5"/><ellipse transform="rotate(-20.004 311.589 265.274)" class="st2" cx="311.6" cy="265.3" rx="1.5" ry="1.5"/><ellipse transform="rotate(-20.004 385.187 238.493)" class="st2" cx="385.2" cy="238.5" rx="1.5" ry="1.5"/><ellipse transform="rotate(-30 367.975 285.824)" class="st2" cx="368" cy="285.8" rx="1.5" ry="1.5"/><ellipse transform="rotate(-30 328.8 217.99)" class="st2" cx="328.8" cy="218" rx="1.5" ry="1.5"/><ellipse transform="rotate(-30 314.464 271.48)" class="st2" cx="314.5" cy="271.5" rx="1.5" ry="1.5"/><ellipse transform="rotate(-29.991 382.272 232.288)" class="st2" cx="382.3" cy="232.3" rx="1.5" ry="1.5"/><ellipse transform="rotate(-39.986 373.57 281.89)" class="st2" cx="373.6" cy="281.9" rx="1.5" ry="1.5"/><ellipse transform="rotate(-39.995 323.23 221.903)" class="st2" cx="323.2" cy="221.9" rx="1.5" ry="1.5"/><ellipse transform="rotate(-40.002 318.397 277.064)" class="st2" cx="318.4" cy="277.1" rx="1.5" ry="1.5"/><ellipse transform="rotate(-40.01 378.403 226.728)" class="st2" cx="378.4" cy="226.7" rx="1.5" ry="1.5"/><ellipse transform="rotate(-49.998 378.401 277.068)" class="st2" cx="378.4" cy="277.1" rx="1.5" ry="1.5"/><ellipse transform="rotate(-49.99 318.419 226.73)" class="st2" cx="318.4" cy="226.7" rx="1.5" ry="1.5"/><ellipse transform="rotate(-50.014 323.214 281.885)" class="st2" cx="323.2" cy="281.9" rx="1.5" ry="1.5"/><ellipse transform="rotate(-50.007 373.563 221.9)" class="st2" cx="373.6" cy="221.9" rx="1.5" ry="1.5"/><ellipse transform="rotate(-60.007 382.328 271.464)" class="st2" cx="382.3" cy="271.5" rx="1.5" ry="1.5"/><ellipse transform="rotate(-60 314.488 232.32)" class="st2" cx="314.5" cy="232.3" rx="1.5" ry="1.5"/><ellipse transform="rotate(-60.007 328.837 285.8)" class="st2" cx="328.8" cy="285.8" rx="1.5" ry="1.5"/><ellipse transform="rotate(-59.987 367.993 217.983)" class="st2" cx="368" cy="218" rx="1.5" ry="1.5"/><ellipse transform="rotate(-69.996 385.177 265.274)" class="st2" cx="385.2" cy="265.3" rx="1.5" ry="1.5"/><ellipse transform="rotate(-69.996 311.585 238.49)" class="st2" cx="311.6" cy="238.5" rx="1.5" ry="1.5"/><ellipse transform="rotate(-69.996 334.99 288.677)" class="st2" cx="335" cy="288.7" rx="1.5" ry="1.5"/><ellipse transform="rotate(-69.996 361.775 215.087)" class="st2" cx="361.8" cy="215.1" rx="1.5" ry="1.5"/><ellipse transform="rotate(-80.003 386.972 258.694)" class="st2" cx="387" cy="258.7" rx="1.5" ry="1.5"/><ellipse transform="rotate(-80.003 309.839 245.095)" class="st2" cx="309.8" cy="245.1" rx="1.5" ry="1.5"/><ellipse transform="rotate(-80.003 341.603 290.459)" class="st2" cx="341.6" cy="290.5" rx="1.5" ry="1.5"/><ellipse transform="rotate(-79.991 355.208 213.32)" class="st2" cx="355.2" cy="213.3" rx="1.5" ry="1.5"/><circle class="st1" cx="348.4" cy="187.4" r="1.5"/><circle class="st1" cx="348.4" cy="109.1" r="1.5"/><circle class="st1" cx="309.2" cy="148.3" r="1.5"/><circle class="st1" cx="387.6" cy="148.3" r="1.5"/><ellipse transform="rotate(-10.003 355.107 186.789)" class="st1" cx="355.2" cy="186.8" rx="1.5" ry="1.5"/><ellipse transform="rotate(-10.003 341.505 109.68)" class="st1" cx="341.6" cy="109.7" rx="1.5" ry="1.5"/><ellipse transform="rotate(-10.003 309.84 155.104)" class="st1" cx="309.8" cy="155.1" rx="1.5" ry="1.5"/><ellipse transform="rotate(-10.003 386.89 141.488)" class="st1" cx="387" cy="141.5" rx="1.5" ry="1.5"/><ellipse transform="rotate(-19.999 361.792 185.064)" class="st1" cx="361.8" cy="185.1" rx="1.5" ry="1.5"/><ellipse transform="rotate(-19.999 335.006 111.47)" class="st1" cx="335" cy="111.5" rx="1.5" ry="1.5"/><ellipse transform="rotate(-20.004 311.557 161.644)" class="st1" cx="311.6" cy="161.7" rx="1.5" ry="1.5"/><ellipse transform="rotate(-20.004 385.179 134.869)" class="st1" cx="385.2" cy="134.9" rx="1.5" ry="1.5"/><ellipse transform="rotate(-30.006 367.97 182.174)" class="st1" cx="368" cy="182.2" rx="1.5" ry="1.5"/><ellipse transform="rotate(-30 328.804 114.369)" class="st1" cx="328.8" cy="114.4" rx="1.5" ry="1.5"/><ellipse transform="rotate(-30 314.47 167.858)" class="st1" cx="314.5" cy="167.8" rx="1.5" ry="1.5"/><ellipse transform="rotate(-29.991 382.309 128.676)" class="st1" cx="382.3" cy="128.7" rx="1.5" ry="1.5"/><ellipse transform="rotate(-39.99 373.537 178.251)" class="st1" cx="373.6" cy="178.3" rx="1.5" ry="1.5"/><ellipse transform="rotate(-39.986 323.235 118.27)" class="st1" cx="323.2" cy="118.3" rx="1.5" ry="1.5"/><ellipse transform="rotate(-40.002 318.405 173.44)" class="st1" cx="318.4" cy="173.4" rx="1.5" ry="1.5"/><ellipse transform="rotate(-40.007 378.368 123.092)" class="st1" cx="378.4" cy="123.1" rx="1.5" ry="1.5"/><ellipse transform="rotate(-49.998 378.395 173.441)" class="st1" cx="378.4" cy="173.4" rx="1.5" ry="1.5"/><ellipse transform="rotate(-49.993 318.398 123.09)" class="st1" cx="318.4" cy="123.1" rx="1.5" ry="1.5"/><ellipse transform="rotate(-50.007 323.25 178.27)" class="st1" cx="323.2" cy="178.3" rx="1.5" ry="1.5"/><ellipse transform="rotate(-50.014 373.56 118.27)" class="st1" cx="373.6" cy="118.3" rx="1.5" ry="1.5"/><ellipse transform="rotate(-60.007 382.325 167.837)" class="st1" cx="382.3" cy="167.8" rx="1.5" ry="1.5"/><ellipse transform="rotate(-60 314.473 128.696)" class="st1" cx="314.5" cy="128.7" rx="1.5" ry="1.5"/><ellipse transform="rotate(-60.007 328.801 182.173)" class="st1" cx="328.8" cy="182.2" rx="1.5" ry="1.5"/><ellipse transform="rotate(-59.987 367.991 114.354)" class="st1" cx="368" cy="114.4" rx="1.5" ry="1.5"/><ellipse transform="rotate(-69.996 385.19 161.65)" class="st1" cx="385.2" cy="161.7" rx="1.5" ry="1.5"/><ellipse transform="rotate(-69.996 311.588 134.869)" class="st1" cx="311.6" cy="134.9" rx="1.5" ry="1.5"/><ellipse transform="rotate(-70.001 335 185.063)" class="st1" cx="335" cy="185.1" rx="1.5" ry="1.5"/><ellipse transform="rotate(-70.001 361.786 111.47)" class="st1" cx="361.8" cy="111.5" rx="1.5" ry="1.5"/><ellipse transform="rotate(-80.003 386.962 155.07)" class="st1" cx="387" cy="155.1" rx="1.5" ry="1.5"/><ellipse transform="rotate(-80.003 309.834 141.47)" class="st1" cx="309.8" cy="141.5" rx="1.5" ry="1.5"/><ellipse transform="rotate(-79.997 341.608 186.826)" class="st1" cx="341.6" cy="186.8" rx="1.5" ry="1.5"/><ellipse transform="rotate(-79.997 355.205 109.698)" class="st1" cx="355.2" cy="109.7" rx="1.5" ry="1.5"/><circle class="st0" cx="348.4" cy="83.8" r="1.5"/><circle class="st0" cx="348.4" cy="5.5" r="1.5"/><circle class="st0" cx="309.2" cy="44.6" r="1.5"/><circle class="st0" cx="387.6" cy="44.6" r="1.5"/><ellipse transform="rotate(-10.003 355.15 83.233)" class="st0" cx="355.2" cy="83.2" rx="1.5" ry="1.5"/><ellipse transform="rotate(-10.003 341.553 6.113)" class="st0" cx="341.6" cy="6.1" rx="1.5" ry="1.5"/><ellipse transform="rotate(-10.003 309.825 51.47)" class="st0" cx="309.8" cy="51.4" rx="1.5" ry="1.5"/><ellipse transform="rotate(-10.003 386.909 37.877)" class="st0" cx="387" cy="37.8" rx="1.5" ry="1.5"/><ellipse transform="rotate(-19.999 361.791 81.439)" class="st0" cx="361.8" cy="81.4" rx="1.5" ry="1.5"/><ellipse transform="rotate(-19.993 335.018 7.845)" class="st0" cx="335" cy="7.8" rx="1.5" ry="1.5"/><ellipse transform="rotate(-20.004 311.588 58.033)" class="st0" cx="311.6" cy="58" rx="1.5" ry="1.5"/><ellipse transform="rotate(-20.004 385.179 31.248)" class="st0" cx="385.2" cy="31.2" rx="1.5" ry="1.5"/><ellipse transform="rotate(-30.006 367.969 78.551)" class="st0" cx="368" cy="78.6" rx="1.5" ry="1.5"/><ellipse transform="rotate(-29.991 328.836 10.716)" class="st0" cx="328.8" cy="10.7" rx="1.5" ry="1.5"/><ellipse transform="rotate(-30 314.504 64.234)" class="st0" cx="314.5" cy="64.2" rx="1.5" ry="1.5"/><ellipse transform="rotate(-29.991 382.27 25.06)" class="st0" cx="382.3" cy="25.1" rx="1.5" ry="1.5"/><ellipse transform="rotate(-39.986 373.57 74.639)" class="st0" cx="373.6" cy="74.6" rx="1.5" ry="1.5"/><ellipse transform="rotate(-39.995 323.24 14.648)" class="st0" cx="323.2" cy="14.6" rx="1.5" ry="1.5"/><ellipse transform="rotate(-40.007 318.378 69.81)" class="st0" cx="318.4" cy="69.8" rx="1.5" ry="1.5"/><ellipse transform="rotate(-40.007 378.369 19.474)" class="st0" cx="378.4" cy="19.5" rx="1.5" ry="1.5"/><ellipse transform="rotate(-49.993 378.378 69.81)" class="st0" cx="378.4" cy="69.8" rx="1.5" ry="1.5"/><ellipse transform="rotate(-49.993 318.396 19.467)" class="st0" cx="318.4" cy="19.5" rx="1.5" ry="1.5"/><ellipse transform="rotate(-50.014 323.216 74.641)" class="st0" cx="323.2" cy="74.6" rx="1.5" ry="1.5"/><ellipse transform="rotate(-50.007 373.56 14.654)" class="st0" cx="373.6" cy="14.6" rx="1.5" ry="1.5"/><ellipse transform="rotate(-60.007 382.303 64.216)" class="st0" cx="382.3" cy="64.2" rx="1.5" ry="1.5"/><ellipse transform="rotate(-60 314.49 25.067)" class="st0" cx="314.5" cy="25.1" rx="1.5" ry="1.5"/><ellipse transform="rotate(-60.007 328.802 78.553)" class="st0" cx="328.8" cy="78.6" rx="1.5" ry="1.5"/><ellipse transform="rotate(-59.994 367.961 10.731)" class="st0" cx="368" cy="10.7" rx="1.5" ry="1.5"/><ellipse transform="rotate(-69.996 385.178 58.033)" class="st0" cx="385.2" cy="58" rx="1.5" ry="1.5"/><ellipse transform="rotate(-69.996 311.588 31.249)" class="st0" cx="311.6" cy="31.2" rx="1.5" ry="1.5"/><ellipse transform="rotate(-70.001 335 81.439)" class="st0" cx="335" cy="81.4" rx="1.5" ry="1.5"/><ellipse transform="rotate(-70.007 361.798 7.847)" class="st0" cx="361.8" cy="7.8" rx="1.5" ry="1.5"/><ellipse transform="rotate(-80.003 386.966 51.442)" class="st0" cx="387" cy="51.4" rx="1.5" ry="1.5"/><ellipse transform="rotate(-80.003 309.834 37.845)" class="st0" cx="309.8" cy="37.8" rx="1.5" ry="1.5"/><ellipse transform="rotate(-80.003 341.602 83.206)" class="st0" cx="341.6" cy="83.2" rx="1.5" ry="1.5"/><ellipse transform="rotate(-80.003 355.201 6.08)" class="st0" cx="355.2" cy="6.1" rx="1.5" ry="1.5"/><circle class="st0" cx="215.4" cy="44.7" r="1.5"/><circle class="st0" cx="223.3" cy="44.7" r="1.5"/><circle class="st0" cx="231.1" cy="44.7" r="1.5"/><circle class="st0" cx="239" cy="44.7" r="1.5"/><circle class="st0" cx="246.9" cy="44.7" r="1.5"/><circle class="st0" cx="254.7" cy="44.7" r="1.5"/><circle class="st0" cx="262.6" cy="44.7" r="1.5"/><circle class="st0" cx="270.5" cy="44.7" r="1.5"/><circle class="st0" cx="278.4" cy="44.7" r="1.5"/><circle class="st0" cx="285.8" cy="44.7" r="1.5"/><circle class="st0" cx="293.6" cy="44.7" r="1.5"/><circle class="st0" cx="301.5" cy="44.7" r="1.5"/><circle class="st3" cx="215.4" cy="355.5" r="1.5"/><circle class="st3" cx="223.3" cy="355.5" r="1.5"/><circle class="st3" cx="231.1" cy="355.5" r="1.5"/><circle class="st3" cx="239" cy="355.5" r="1.5"/><circle class="st3" cx="246.9" cy="355.5" r="1.5"/><circle class="st3" cx="254.7" cy="355.5" r="1.5"/><circle class="st3" cx="262.6" cy="355.5" r="1.5"/><circle class="st3" cx="270.5" cy="355.5" r="1.5"/><circle class="st3" cx="278.4" cy="355.5" r="1.5"/><circle class="st3" cx="285.8" cy="355.5" r="1.5"/><circle class="st3" cx="293.6" cy="355.5" r="1.5"/><circle class="st3" cx="301.5" cy="355.5" r="1.5"/><circle class="st1" cx="285.6" cy="148.3" r="1.5"/><circle class="st1" cx="293.5" cy="148.3" r="1.5"/><circle class="st1" cx="301.3" cy="148.3" r="1.5"/><circle class="st2" cx="285.6" cy="251.9" r="1.5"/><circle class="st2" cx="293.5" cy="251.9" r="1.5"/><circle class="st2" cx="301.3" cy="251.9" r="1.5"/><circle class="st0" cx="199.1" cy="44.6" r="8.4"/><circle class="st4" cx="199.1" cy="44.6" r="5.1"/><circle class="st1" cx="271.1" cy="148.3" r="8.4"/><circle class="st4" cx="271.1" cy="148.3" r="5.1"/><circle class="st2" cx="271.1" cy="251.9" r="8.4"/><circle class="st4" cx="271.1" cy="251.9" r="5.1"/><circle class="st3" cx="201.1" cy="355.5" r="8.4"/><circle class="st4" cx="201.1" cy="355.5" r="5.1"/><path class="st5" d="M271.6 243.5c1.1.1 2.2.3 3.2.8 3.2-14.1 5-28.8 5-43.9 0-15.3-1.8-30.1-5.1-44.4-1 .4-2 .7-3.2.7 3.3 14 5 28.7 5 43.7 0 14.8-1.7 29.2-4.9 43.1zm-4.4 15.9c-11.4 35.4-32.8 66.4-60.9 89.5.9.7 1.6 1.5 2.1 2.5 28.5-23.6 50.3-55.1 61.9-91.1-1.1-.1-2.1-.4-3.1-.9zM206.8 48c-.4 1-1.1 1.9-1.9 2.7 28.6 23.2 50.4 54.4 62.1 90.2.9-.5 2-.9 3.1-1-11.8-36.5-34.1-68.3-63.3-91.9z"/><path class="st6" d="M71.2 117.7c15.7-3.7 32.6-2.5 47.6 3.5 17.2 6.8 31.7 19.8 40.5 36 7.9 14.4 11.1 31.3 9 47.6-2 16.7-9.6 32.7-21.2 44.8-7.6 8.1-17 14.4-27.1 18.8-5.6-15.1-11.5-30.1-16.9-45.3 9.1-4.6 15.9-13.7 17.2-24 2.1-13.9-6.6-28.4-19.8-33.2-12.2-4.8-27.1-.9-35.2 9.3-7.9 9.3-9.4 23.4-3.6 34.2 3 6 8.2 10.6 14 13.8-5.7 15.1-11.3 30.1-17 45.2-15.6-6.5-29-18.1-37.6-32.5-7.3-12.2-11.4-26.4-11.3-40.6-.2-17.6 5.9-35.2 16.8-49 11.1-14.2 27-24.5 44.6-28.6z"/><path class="st7" d="M369.3 249.6l-18.8-18.8c-1.1-1.1-2.8-1.1-3.9 0l-3.9 3.9 4.9 4.9c1.1-.4 2.5-.1 3.4.8.9.9 1.2 2.2.8 3.4l4.8 4.8c1.2-.4 2.5-.1 3.4.8 1.3 1.3 1.3 3.4 0 4.7a3.32 3.32 0 0 1-4.7 0c-1-1-1.2-2.4-.7-3.6l-4.4-4.4v11.7l.9.6c1.3 1.3 1.3 3.4 0 4.7a3.32 3.32 0 0 1-4.7 0 3.32 3.32 0 0 1 0-4.7c.3-.3.7-.6 1.1-.7v-11.8c-.4-.2-.8-.4-1.1-.7-1-1-1.2-2.4-.7-3.6l-4.9-4.9-12.9 12.9c-1.1 1.1-1.1 2.8 0 3.9l18.8 18.8c1.1 1.1 2.8 1.1 3.9 0l18.7-18.7c1.1-1.1 1.1-2.9 0-4zm-10.8-114.4c-2.2-1.3-4.2-1.9-6.2-3.2-1.3-.9-3-2.9-4.5-4.6-.3 2.8-1.1 4-2.1 4.8-2.1 1.6-3.4 2.1-5.2 3.1-1.5.8-9.7 5.7-9.7 16.2s8.8 18.2 18.6 18.2 18.3-7.1 18.3-17.9c.1-10.9-7.9-15.8-9.2-16.6zm.2 30.6c-.2.2-2.1 1.5-4.3 1.7-2.2.2-5.2.3-7-1.3-.3-.3-.2-.7 0-.9.2-.2.4-.3.6-.3.2 0 .2 0 .3.1.8.7 2 1.2 4.6 1.2s4.4-.7 5.3-1.3c.4-.3.5 0 .6.1.1.1.2.4-.1.7zm-7.1-3.7c.4-.4 1.2-1.1 1.9-1.3.7-.3 1.1-.2 1.7-.2.7 0 1.3 0 1.8.4.5.3.8 1.1.9 1.5.2.4 0 .7-.3.8-.3.2-.3.1-.6-.4s-.5-1.1-2-1.1c-1.4 0-1.9.5-2.6 1.1-.7.6-.9.8-1.2.4-.1-.5 0-.8.4-1.2zm10.8.3c-1.5-.1-4.4-4.7-6.3-4.8-2.4-.1-7.5 4.9-11.5 4.9-2.4 0-3.2-.4-4-.9-1.2-.9-1.8-2.2-1.8-4 0-3.2 3-6.1 6.8-6.2 4.8 0 8.1 4.7 10.5 4.7 2 0 5.9-4 7.9-4s2.6 2.1 2.6 3.4c0 1.3-.4 3.5-1.4 5-1 1.4-1.7 2-2.8 1.9zM328.2 44l3.3 1.8.3.2c.9.5 1.9.9 2.6 1.7l.9-2c-.2-.1-.4-.3-.6-.4l-3.5-1.8-.1-.1c-1.4-.7-2.9-1.4-2.9-3 0-1.7 1.3-3.1 3-3.1 1.4 0 2.5.6 3.4 2l.3.4 1.5-1.2-.2-.3c-.9-1.7-2.9-2.8-4.9-2.8-3 0-5.2 2.2-5.2 5.1-.1 1.3.6 2.6 2.1 3.5zm6.6 6.1c-.5 1.6-2.1 2.9-4 2.9-1.7 0-3-.9-3.9-2.6l-.1-.2h-2.1l.2.6c.9 2.6 3.2 4.3 5.8 4.3 3 0 5.6-2.1 6.1-4.8h-2zm21.9-12.9l-1.1 2.6 2.9 7.2h-5.9l-.8 2h9.7l-4.8-11.8zm-5.3-2l-3.1 7.7-3-7.7h-2.4l5.4 13.4 5.5-13.4zM344 46.9h-5.9l2.9-7.2-1.1-2.6-4.8 11.7h9.6l-.7-1.9z"/><path class="st7" d="M356.7 37.2l-1.1 2.6-2.9 7.1-.8 2-2.5 6.1h-2.1l-2.5-6.1-.8-2-3-7.1-1.1-2.6 1.2-2.9 7.2 18 7.3-18zM372 49.5c0 2-2.1 5.5-6.2 5.5-2 0-4.5-1-5.8-4.4l-.2-.6h2.1l.1.2c.8 1.7 2.2 2.7 3.9 2.7 1.8 0 4.1-1.5 4.1-3.9 0-.8-.4-1.4-.9-1.9-.6-.5-1.4-.9-2.1-1.2l-.3-.2-3.3-1.8c-.8-.5-1.4-1.1-1.7-1.8-.3-.6-.4-1.2-.4-1.9 0-3 2.2-5.1 5.2-5.1 1.4 0 2.8.6 3.8 1.5.4.4.8.8 1 1.3l.2.3-1.5 1.2-.1-.1-.2-.3c-.3-.4-.5-.7-.8-1-.7-.6-1.5-1-2.5-1-1.7 0-3 1.4-3 3.1 0 .3.1.6.2.8.2.6.7 1 1.2 1.3l1.5.8.1.1.6.3 2.9 1.5c.2.1.4.3.6.4 1.2 1.4 1.5 2.6 1.5 4.2zm-35.4 303.4c.3 2.1 2 4.8 4.7 5.8 1.1.4 2.3.4 3.4 0 2.7-1 4.4-3.7 4.7-5.8.4 0 .8-.5 1.3-2.3.7-2.5 0-2.8-.7-2.8.1-.3.2-.7.3-1 1.1-6.4-2.1-6.6-2.1-6.6s-.5-1-1.9-1.8c-.9-.5-2.2-1-3.9-.8-.5 0-1.1.1-1.5.3-.6.2-1.2.5-1.7.9-.6.4-1.2.9-1.7 1.4-.8.8-1.6 1.9-1.9 3.3-.3 1-.2 2.1 0 3.2.1.3.1.7.3 1-.6-.1-1.4.3-.7 2.8.5 1.9 1 2.4 1.4 2.4z"/><path class="st7" d="M373.2 366.9c-.2-1.3-1.1-2.5-2.3-3.1l-4.6-2.3c-.3-.1-.5-.3-.8-.4l-1.4-1.1v-1.4s.5 0 1.3-.1c.3 0 3.8-.8 4.9-1.9 0 0-2.9-.8-2.4-6.1s-.7-9.9-4.9-9.5c0 0-1.8-2.2-5.5-.8-1.3.5-4.6 1.7-4.5 9 .2 7.3-2.6 7.4-2.6 7.4s1 1.4 4 1.9c.3 0 .6.1.9.1h1.3l.3 2.3s.3.8-1.7.2v-.1l-.2.1c-3.8-1-6.8-3.1-6.8-3.1l-5.3 3.4-5.5-3.4s-3.1 2.2-6.9 3.1c-2.8.7-3 4-2.9 5.6 0 0 .2 2.2.3 3.2 0 0 5.5 3.6 14.8 3.6 4.1 0 7.4-.7 9.9-1.5 2.1.5 4.6.9 7.5.9 4 0 7.2-.7 9.6-1.4 1.7-.5 3-1.1 3.8-1.5l-.3-3.1z"/></svg>