<?xml version="1.0" encoding="utf-8"?>
<!-- Generator: Adobe Illustrator 21.0.2, SVG Export Plug-In . SVG Version: 6.00 Build 0)  -->
<svg version="1.1" id="Layer_1" xmlns="http://www.w3.org/2000/svg" xmlns:xlink="http://www.w3.org/1999/xlink" x="0px" y="0px"
	 viewBox="0 0 400 400" style="enable-background:new 0 0 400 400;" xml:space="preserve">
<style type="text/css">
	.st0{fill:#9E023B;}
	.st1{fill:#0A5365;}
	.st2{fill:#DE281B;}
	.st3{fill:#06282D;}
	.st4{fill:#FFFFFF;}
	.st5{fill:#565D5E;}
	.st6{fill:#39A954;}
	.st7{fill:#FFF8F3;}
</style>
<g>
	<circle class="st0" cx="348.4" cy="44.7" r="33.3"/>
	<circle class="st1" cx="348.4" cy="148.3" r="33.3"/>
	<circle class="st2" cx="348.4" cy="251.9" r="33.3"/>
	<circle class="st3" cx="348.4" cy="355.5" r="33.3"/>
	<g>
		<g>
			<g>
				<g>
					<circle class="st3" cx="348.4" cy="394.7" r="1.5"/>
					<circle class="st3" cx="348.4" cy="316.4" r="1.5"/>
				</g>
				<g>
					<circle class="st3" cx="309.2" cy="355.5" r="1.5"/>
					<circle class="st3" cx="387.6" cy="355.5" r="1.5"/>
				</g>
			</g>
			<g>
				<g>
					
						<ellipse transform="matrix(0.9848 -0.1738 0.1738 0.9848 -63.0691 67.71)" class="st3" cx="355.2" cy="394.1" rx="1.5" ry="1.5"/>
					
						<ellipse transform="matrix(0.9848 -0.1736 0.1736 0.9848 -49.8262 64.0981)" class="st3" cx="341.6" cy="317" rx="1.5" ry="1.5"/>
				</g>
				<g>
					
						<ellipse transform="matrix(0.9848 -0.1736 0.1736 0.9848 -58.1974 59.2931)" class="st3" cx="309.8" cy="362.3" rx="1.5" ry="1.5"/>
					
						<ellipse transform="matrix(0.9848 -0.1736 0.1736 0.9848 -54.6599 72.4682)" class="st3" cx="387" cy="348.7" rx="1.5" ry="1.5"/>
				</g>
			</g>
			<g>
				<g>
					
						<ellipse transform="matrix(0.9397 -0.3421 0.3421 0.9397 -112.3776 147.4325)" class="st3" cx="361.8" cy="392.3" rx="1.5" ry="1.5"/>
					
						<ellipse transform="matrix(0.9397 -0.3419 0.3419 0.9397 -88.7882 133.7602)" class="st3" cx="335" cy="318.7" rx="1.5" ry="1.5"/>
				</g>
				<g>
					
						<ellipse transform="matrix(0.9397 -0.3421 0.3421 0.9397 -107.3996 128.8515)" class="st3" cx="311.6" cy="368.9" rx="1.5" ry="1.5"/>
					
						<ellipse transform="matrix(0.9397 -0.3421 0.3421 0.9397 -93.7966 152.4107)" class="st3" cx="385.2" cy="342.1" rx="1.5" ry="1.5"/>
				</g>
			</g>
			<g>
				<g>
					
						<ellipse transform="matrix(0.8659 -0.5002 0.5002 0.8659 -145.4431 236.2579)" class="st3" cx="368" cy="389.4" rx="1.5" ry="1.5"/>
					
						<ellipse transform="matrix(0.8661 -0.4999 0.4999 0.8661 -116.729 207.4188)" class="st3" cx="328.8" cy="321.6" rx="1.5" ry="1.5"/>
				</g>
				<g>
					
						<ellipse transform="matrix(0.866 -0.5001 0.5001 0.866 -145.4281 207.5333)" class="st3" cx="314.5" cy="375.1" rx="1.5" ry="1.5"/>
					
						<ellipse transform="matrix(0.8661 -0.4999 0.4999 0.8661 -116.7314 236.0752)" class="st3" cx="382.3" cy="335.9" rx="1.5" ry="1.5"/>
				</g>
			</g>
			<g>
				<g>
					
						<ellipse transform="matrix(0.7661 -0.6427 0.6427 0.7661 -160.3984 330.2614)" class="st3" cx="373.6" cy="385.5" rx="1.5" ry="1.5"/>
					
						<ellipse transform="matrix(0.7662 -0.6426 0.6426 0.7662 -133.6093 283.8199)" class="st3" cx="323.2" cy="325.5" rx="1.5" ry="1.5"/>
				</g>
				<g>
					
						<ellipse transform="matrix(0.7659 -0.6429 0.6429 0.7659 -170.2223 293.8034)" class="st3" cx="318.4" cy="380.7" rx="1.5" ry="1.5"/>
					
						<ellipse transform="matrix(0.766 -0.6428 0.6428 0.766 -123.815 320.53)" class="st3" cx="378.4" cy="330.3" rx="1.5" ry="1.5"/>
				</g>
			</g>
			<g>
				<g>
					
						<ellipse transform="matrix(0.6429 -0.7659 0.7659 0.6429 -156.4632 425.7566)" class="st3" cx="378.4" cy="380.7" rx="1.5" ry="1.5"/>
					
						<ellipse transform="matrix(0.6428 -0.766 0.766 0.6428 -139.3236 361.8997)" class="st3" cx="318.4" cy="330.3" rx="1.5" ry="1.5"/>
				</g>
				<g>
					
						<ellipse transform="matrix(0.6427 -0.7661 0.7661 0.6427 -179.8586 385.3583)" class="st3" cx="323.2" cy="385.5" rx="1.5" ry="1.5"/>
					
						<ellipse transform="matrix(0.6426 -0.7662 0.7662 0.6426 -115.9009 402.5609)" class="st3" cx="373.6" cy="325.5" rx="1.5" ry="1.5"/>
				</g>
			</g>
			<g>
				<g>
					
						<ellipse transform="matrix(0.4999 -0.8661 0.8661 0.4999 -133.6753 518.6763)" class="st3" cx="382.3" cy="375.1" rx="1.5" ry="1.5"/>
					<ellipse transform="matrix(0.5 -0.866 0.866 0.5 -133.6869 440.319)" class="st3" cx="314.5" cy="335.9" rx="1.5" ry="1.5"/>
				</g>
				<g>
					<ellipse transform="matrix(0.5 -0.866 0.866 0.5 -172.8447 479.477)" class="st3" cx="328.8" cy="389.4" rx="1.5" ry="1.5"/>
					<ellipse transform="matrix(0.5 -0.866 0.866 0.5 -94.533 479.4649)" class="st3" cx="368" cy="321.6" rx="1.5" ry="1.5"/>
				</g>
			</g>
			<g>
				<g>
					
						<ellipse transform="matrix(0.3421 -0.9397 0.9397 0.3421 -93.2288 604.6597)" class="st3" cx="385.2" cy="368.9" rx="1.5" ry="1.5"/>
					
						<ellipse transform="matrix(0.3421 -0.9397 0.9397 0.3421 -116.4767 517.8846)" class="st3" cx="311.6" cy="342.1" rx="1.5" ry="1.5"/>
				</g>
				<g>
					
						<ellipse transform="matrix(0.3421 -0.9397 0.9397 0.3421 -148.2402 572.8956)" class="st3" cx="335" cy="392.3" rx="1.5" ry="1.5"/>
					
						<ellipse transform="matrix(0.3419 -0.9397 0.9397 0.3419 -61.4274 549.717)" class="st3" cx="361.8" cy="318.7" rx="1.5" ry="1.5"/>
				</g>
			</g>
			<g>
				<g>
					
						<ellipse transform="matrix(0.1736 -0.9848 0.9848 0.1736 -37.0296 680.5007)" class="st3" cx="387" cy="362.3" rx="1.5" ry="1.5"/>
					
						<ellipse transform="matrix(0.1736 -0.9848 0.9848 0.1736 -87.3785 593.3)" class="st3" cx="309.8" cy="348.7" rx="1.5" ry="1.5"/>
				</g>
				<g>
					
						<ellipse transform="matrix(0.1737 -0.9848 0.9848 0.1737 -105.84 662.0059)" class="st3" cx="341.6" cy="394.1" rx="1.5" ry="1.5"/>
					
						<ellipse transform="matrix(0.1736 -0.9848 0.9848 0.1736 -18.5958 611.7432)" class="st3" cx="355.2" cy="317" rx="1.5" ry="1.5"/>
				</g>
			</g>
		</g>
	</g>
	<g>
		<g>
			<g>
				<g>
					<circle class="st2" cx="348.4" cy="291" r="1.5"/>
					<circle class="st2" cx="348.4" cy="212.7" r="1.5"/>
				</g>
				<g>
					<circle class="st2" cx="309.2" cy="251.9" r="1.5"/>
					<circle class="st2" cx="387.6" cy="251.9" r="1.5"/>
				</g>
			</g>
			<g>
				<g>
					
						<ellipse transform="matrix(0.9848 -0.1736 0.1736 0.9848 -45.0257 66.0653)" class="st2" cx="355.2" cy="290.5" rx="1.5" ry="1.5"/>
					
						<ellipse transform="matrix(0.9848 -0.1737 0.1737 0.9848 -31.8698 62.5965)" class="st2" cx="341.6" cy="213.3" rx="1.5" ry="1.5"/>
				</g>
				<g>
					
						<ellipse transform="matrix(0.9848 -0.1736 0.1736 0.9848 -40.2008 57.7089)" class="st2" cx="309.8" cy="258.7" rx="1.5" ry="1.5"/>
					
						<ellipse transform="matrix(0.9848 -0.1736 0.1736 0.9848 -36.6655 70.8807)" class="st2" cx="387" cy="245.1" rx="1.5" ry="1.5"/>
				</g>
			</g>
			<g>
				<g>
					
						<ellipse transform="matrix(0.9397 -0.3421 0.3421 0.9397 -76.929 141.1806)" class="st2" cx="361.8" cy="288.7" rx="1.5" ry="1.5"/>
					
						<ellipse transform="matrix(0.9397 -0.3421 0.3421 0.9397 -53.3699 127.5775)" class="st2" cx="335" cy="215.1" rx="1.5" ry="1.5"/>
				</g>
				<g>
					
						<ellipse transform="matrix(0.9397 -0.3421 0.3421 0.9397 -71.9509 122.5996)" class="st2" cx="311.6" cy="265.3" rx="1.5" ry="1.5"/>
					
						<ellipse transform="matrix(0.9397 -0.3421 0.3421 0.9397 -58.3484 146.1616)" class="st2" cx="385.2" cy="238.5" rx="1.5" ry="1.5"/>
				</g>
			</g>
			<g>
				<g>
					<ellipse transform="matrix(0.866 -0.5 0.5 0.866 -93.6033 222.2878)" class="st2" cx="368" cy="285.8" rx="1.5" ry="1.5"/>
					<ellipse transform="matrix(0.866 -0.5 0.5 0.866 -64.9363 193.6105)" class="st2" cx="328.8" cy="218" rx="1.5" ry="1.5"/>
				</g>
				<g>
					<ellipse transform="matrix(0.866 -0.5 0.5 0.866 -93.6017 193.6104)" class="st2" cx="314.5" cy="271.5" rx="1.5" ry="1.5"/>
					
						<ellipse transform="matrix(0.8661 -0.4999 0.4999 0.8661 -64.9347 222.201)" class="st2" cx="382.3" cy="232.3" rx="1.5" ry="1.5"/>
				</g>
			</g>
			<g>
				<g>
					
						<ellipse transform="matrix(0.7662 -0.6426 0.6426 0.7662 -93.8015 305.9625)" class="st2" cx="373.6" cy="281.9" rx="1.5" ry="1.5"/>
					
						<ellipse transform="matrix(0.7661 -0.6427 0.6427 0.7661 -67.0138 259.6433)" class="st2" cx="323.2" cy="221.9" rx="1.5" ry="1.5"/>
				</g>
				<g>
					
						<ellipse transform="matrix(0.766 -0.6428 0.6428 0.766 -103.6002 269.4916)" class="st2" cx="318.4" cy="277.1" rx="1.5" ry="1.5"/>
					
						<ellipse transform="matrix(0.7659 -0.6429 0.6429 0.7659 -57.1939 296.3435)" class="st2" cx="378.4" cy="226.7" rx="1.5" ry="1.5"/>
				</g>
			</g>
			<g>
				<g>
					
						<ellipse transform="matrix(0.6428 -0.766 0.766 0.6428 -77.0787 388.8168)" class="st2" cx="378.4" cy="277.1" rx="1.5" ry="1.5"/>
					
						<ellipse transform="matrix(0.6429 -0.7659 0.7659 0.6429 -59.9575 324.8338)" class="st2" cx="318.4" cy="226.7" rx="1.5" ry="1.5"/>
				</g>
				<g>
					
						<ellipse transform="matrix(0.6426 -0.7662 0.7662 0.6426 -100.4634 348.392)" class="st2" cx="323.2" cy="281.9" rx="1.5" ry="1.5"/>
					
						<ellipse transform="matrix(0.6427 -0.7661 0.7661 0.6427 -36.524 365.4719)" class="st2" cx="373.6" cy="221.9" rx="1.5" ry="1.5"/>
				</g>
			</g>
			<g>
				<g>
					
						<ellipse transform="matrix(0.4999 -0.8661 0.8661 0.4999 -43.9129 466.8939)" class="st2" cx="382.3" cy="271.5" rx="1.5" ry="1.5"/>
					<ellipse transform="matrix(0.5 -0.866 0.866 0.5 -43.9457 388.5068)" class="st2" cx="314.5" cy="232.3" rx="1.5" ry="1.5"/>
				</g>
				<g>
					
						<ellipse transform="matrix(0.4999 -0.8661 0.8661 0.4999 -83.0798 427.7337)" class="st2" cx="328.8" cy="285.8" rx="1.5" ry="1.5"/>
					
						<ellipse transform="matrix(0.5002 -0.8659 0.8659 0.5002 -4.8283 427.5927)" class="st2" cx="368" cy="218" rx="1.5" ry="1.5"/>
				</g>
			</g>
			<g>
				<g>
					
						<ellipse transform="matrix(0.3421 -0.9397 0.9397 0.3421 4.1434 536.4841)" class="st2" cx="385.2" cy="265.3" rx="1.5" ry="1.5"/>
					
						<ellipse transform="matrix(0.3421 -0.9397 0.9397 0.3421 -19.1056 449.7068)" class="st2" cx="311.6" cy="238.5" rx="1.5" ry="1.5"/>
				</g>
				<g>
					
						<ellipse transform="matrix(0.3421 -0.9397 0.9397 0.3421 -50.8682 504.7203)" class="st2" cx="335" cy="288.7" rx="1.5" ry="1.5"/>
					
						<ellipse transform="matrix(0.3421 -0.9397 0.9397 0.3421 35.9066 481.4727)" class="st2" cx="361.8" cy="215.1" rx="1.5" ry="1.5"/>
				</g>
			</g>
			<g>
				<g>
					
						<ellipse transform="matrix(0.1736 -0.9848 0.9848 0.1736 65.0316 594.8746)" class="st2" cx="387" cy="258.7" rx="1.5" ry="1.5"/>
					
						<ellipse transform="matrix(0.1736 -0.9848 0.9848 0.1736 14.681 507.6762)" class="st2" cx="309.8" cy="245.1" rx="1.5" ry="1.5"/>
				</g>
				<g>
					
						<ellipse transform="matrix(0.1736 -0.9848 0.9848 0.1736 -3.7431 576.4456)" class="st2" cx="341.6" cy="290.5" rx="1.5" ry="1.5"/>
					
						<ellipse transform="matrix(0.1738 -0.9848 0.9848 0.1738 83.3959 526.053)" class="st2" cx="355.2" cy="213.3" rx="1.5" ry="1.5"/>
				</g>
			</g>
		</g>
	</g>
	<g>
		<g>
			<g>
				<g>
					<circle class="st1" cx="348.4" cy="187.4" r="1.5"/>
					<circle class="st1" cx="348.4" cy="109.1" r="1.5"/>
				</g>
				<g>
					<circle class="st1" cx="309.2" cy="148.3" r="1.5"/>
					<circle class="st1" cx="387.6" cy="148.3" r="1.5"/>
				</g>
			</g>
			<g>
				<g>
					
						<ellipse transform="matrix(0.9848 -0.1737 0.1737 0.9848 -27.0476 64.5212)" class="st1" cx="355.2" cy="186.8" rx="1.5" ry="1.5"/>
					
						<ellipse transform="matrix(0.9848 -0.1737 0.1737 0.9848 -13.8605 60.9865)" class="st1" cx="341.6" cy="109.7" rx="1.5" ry="1.5"/>
				</g>
				<g>
					
						<ellipse transform="matrix(0.9848 -0.1736 0.1736 0.9848 -22.2164 56.1458)" class="st1" cx="309.8" cy="155.1" rx="1.5" ry="1.5"/>
					
						<ellipse transform="matrix(0.9848 -0.1736 0.1736 0.9848 -18.6815 69.3148)" class="st1" cx="387" cy="141.5" rx="1.5" ry="1.5"/>
				</g>
			</g>
			<g>
				<g>
					
						<ellipse transform="matrix(0.9397 -0.342 0.342 0.9397 -41.4758 134.8921)" class="st1" cx="361.8" cy="185.1" rx="1.5" ry="1.5"/>
					
						<ellipse transform="matrix(0.9397 -0.342 0.342 0.9397 -17.9221 121.2936)" class="st1" cx="335" cy="111.5" rx="1.5" ry="1.5"/>
				</g>
				<g>
					
						<ellipse transform="matrix(0.9397 -0.3421 0.3421 0.9397 -36.5008 116.3362)" class="st1" cx="311.6" cy="161.7" rx="1.5" ry="1.5"/>
					
						<ellipse transform="matrix(0.9397 -0.3421 0.3421 0.9397 -22.8992 139.9068)" class="st1" cx="385.2" cy="134.9" rx="1.5" ry="1.5"/>
				</g>
			</g>
			<g>
				<g>
					
						<ellipse transform="matrix(0.866 -0.5001 0.5001 0.866 -41.787 208.4379)" class="st1" cx="368" cy="182.2" rx="1.5" ry="1.5"/>
					<ellipse transform="matrix(0.866 -0.5 0.5 0.866 -13.1245 179.7276)" class="st1" cx="328.8" cy="114.4" rx="1.5" ry="1.5"/>
				</g>
				<g>
					<ellipse transform="matrix(0.866 -0.5 0.5 0.866 -41.7899 179.7276)" class="st1" cx="314.5" cy="167.8" rx="1.5" ry="1.5"/>
					
						<ellipse transform="matrix(0.8661 -0.4999 0.4999 0.8661 -13.134 208.3459)" class="st1" cx="382.3" cy="128.7" rx="1.5" ry="1.5"/>
				</g>
			</g>
			<g>
				<g>
					
						<ellipse transform="matrix(0.7662 -0.6427 0.6427 0.7662 -27.2056 281.7584)" class="st1" cx="373.6" cy="178.3" rx="1.5" ry="1.5"/>
					
						<ellipse transform="matrix(0.7662 -0.6426 0.6426 0.7662 -0.4282 235.3625)" class="st1" cx="323.2" cy="118.3" rx="1.5" ry="1.5"/>
				</g>
				<g>
					
						<ellipse transform="matrix(0.766 -0.6428 0.6428 0.766 -36.9893 245.2511)" class="st1" cx="318.4" cy="173.4" rx="1.5" ry="1.5"/>
					
						<ellipse transform="matrix(0.766 -0.6429 0.6429 0.766 9.4169 272.0608)" class="st1" cx="378.4" cy="123.1" rx="1.5" ry="1.5"/>
				</g>
			</g>
			<g>
				<g>
					
						<ellipse transform="matrix(0.6428 -0.766 0.766 0.6428 2.2971 351.7993)" class="st1" cx="378.4" cy="173.4" rx="1.5" ry="1.5"/>
					
						<ellipse transform="matrix(0.6429 -0.766 0.766 0.6429 19.4247 287.8531)" class="st1" cx="318.4" cy="123.1" rx="1.5" ry="1.5"/>
				</g>
				<g>
					
						<ellipse transform="matrix(0.6427 -0.7661 0.7661 0.6427 -21.0757 311.3381)" class="st1" cx="323.2" cy="178.3" rx="1.5" ry="1.5"/>
					
						<ellipse transform="matrix(0.6426 -0.7662 0.7662 0.6426 42.8915 328.4923)" class="st1" cx="373.6" cy="118.3" rx="1.5" ry="1.5"/>
				</g>
			</g>
			<g>
				<g>
					
						<ellipse transform="matrix(0.4999 -0.8661 0.8661 0.4999 45.837 415.0666)" class="st1" cx="382.3" cy="167.8" rx="1.5" ry="1.5"/>
					<ellipse transform="matrix(0.5 -0.866 0.866 0.5 45.7854 336.6815)" class="st1" cx="314.5" cy="128.7" rx="1.5" ry="1.5"/>
				</g>
				<g>
					
						<ellipse transform="matrix(0.4999 -0.8661 0.8661 0.4999 6.654 375.8794)" class="st1" cx="328.8" cy="182.2" rx="1.5" ry="1.5"/>
					
						<ellipse transform="matrix(0.5002 -0.8659 0.8659 0.5002 84.9029 375.7978)" class="st1" cx="368" cy="114.4" rx="1.5" ry="1.5"/>
				</g>
			</g>
			<g>
				<g>
					
						<ellipse transform="matrix(0.3421 -0.9397 0.9397 0.3421 101.5258 468.318)" class="st1" cx="385.2" cy="161.7" rx="1.5" ry="1.5"/>
					
						<ellipse transform="matrix(0.3421 -0.9397 0.9397 0.3421 78.2678 381.5337)" class="st1" cx="311.6" cy="134.9" rx="1.5" ry="1.5"/>
				</g>
				<g>
					<ellipse transform="matrix(0.342 -0.9397 0.9397 0.342 46.5269 436.571)" class="st1" cx="335" cy="185.1" rx="1.5" ry="1.5"/>
					
						<ellipse transform="matrix(0.342 -0.9397 0.9397 0.342 133.3065 413.3177)" class="st1" cx="361.8" cy="111.5" rx="1.5" ry="1.5"/>
				</g>
			</g>
			<g>
				<g>
					
						<ellipse transform="matrix(0.1736 -0.9848 0.9848 0.1736 167.0721 509.2296)" class="st1" cx="387" cy="155.1" rx="1.5" ry="1.5"/>
					
						<ellipse transform="matrix(0.1736 -0.9848 0.9848 0.1736 116.7273 422.0359)" class="st1" cx="309.8" cy="141.5" rx="1.5" ry="1.5"/>
				</g>
				<g>
					
						<ellipse transform="matrix(0.1737 -0.9848 0.9848 0.1737 98.2846 490.7902)" class="st1" cx="341.6" cy="186.8" rx="1.5" ry="1.5"/>
					
						<ellipse transform="matrix(0.1737 -0.9848 0.9848 0.1737 185.4753 440.4499)" class="st1" cx="355.2" cy="109.7" rx="1.5" ry="1.5"/>
				</g>
			</g>
		</g>
	</g>
	<g>
		<g>
			<g>
				<g>
					<circle class="st0" cx="348.4" cy="83.8" r="1.5"/>
					<circle class="st0" cx="348.4" cy="5.5" r="1.5"/>
				</g>
				<g>
					<circle class="st0" cx="309.2" cy="44.6" r="1.5"/>
					<circle class="st0" cx="387.6" cy="44.6" r="1.5"/>
				</g>
			</g>
			<g>
				<g>
					
						<ellipse transform="matrix(0.9848 -0.1736 0.1736 0.9848 -9.0509 62.9191)" class="st0" cx="355.2" cy="83.2" rx="1.5" ry="1.5"/>
					
						<ellipse transform="matrix(0.9848 -0.1736 0.1736 0.9848 4.1303 59.3865)" class="st0" cx="341.6" cy="6.1" rx="1.5" ry="1.5"/>
				</g>
				<g>
					
						<ellipse transform="matrix(0.9848 -0.1736 0.1736 0.9848 -4.2259 54.5679)" class="st0" cx="309.8" cy="51.4" rx="1.5" ry="1.5"/>
					
						<ellipse transform="matrix(0.9848 -0.1736 0.1736 0.9848 -0.6945 67.7431)" class="st0" cx="387" cy="37.8" rx="1.5" ry="1.5"/>
				</g>
			</g>
			<g>
				<g>
					
						<ellipse transform="matrix(0.9397 -0.342 0.342 0.9397 -6.036 128.6434)" class="st0" cx="361.8" cy="81.4" rx="1.5" ry="1.5"/>
					
						<ellipse transform="matrix(0.9397 -0.3419 0.3419 0.9397 17.5078 115.0156)" class="st0" cx="335" cy="7.8" rx="1.5" ry="1.5"/>
				</g>
				<g>
					
						<ellipse transform="matrix(0.9397 -0.3421 0.3421 0.9397 -1.0537 110.0958)" class="st0" cx="311.6" cy="58" rx="1.5" ry="1.5"/>
					
						<ellipse transform="matrix(0.9397 -0.3421 0.3421 0.9397 12.5494 133.655)" class="st0" cx="385.2" cy="31.2" rx="1.5" ry="1.5"/>
				</g>
			</g>
			<g>
				<g>
					<ellipse transform="matrix(0.866 -0.5001 0.5001 0.866 10.0346 194.5493)" class="st0" cx="368" cy="78.6" rx="1.5" ry="1.5"/>
					
						<ellipse transform="matrix(0.8661 -0.4999 0.4999 0.8661 38.6741 165.8201)" class="st0" cx="328.8" cy="10.7" rx="1.5" ry="1.5"/>
				</g>
				<g>
					<ellipse transform="matrix(0.866 -0.5 0.5 0.866 10.0268 165.8594)" class="st0" cx="314.5" cy="64.2" rx="1.5" ry="1.5"/>
					
						<ellipse transform="matrix(0.8661 -0.4999 0.4999 0.8661 38.6589 194.4526)" class="st0" cx="382.3" cy="25.1" rx="1.5" ry="1.5"/>
				</g>
			</g>
			<g>
				<g>
					
						<ellipse transform="matrix(0.7662 -0.6426 0.6426 0.7662 39.3779 257.5068)" class="st0" cx="373.6" cy="74.6" rx="1.5" ry="1.5"/>
					
						<ellipse transform="matrix(0.7661 -0.6427 0.6427 0.7661 66.1916 211.1721)" class="st0" cx="323.2" cy="14.6" rx="1.5" ry="1.5"/>
				</g>
				<g>
					
						<ellipse transform="matrix(0.766 -0.6429 0.6429 0.766 29.6312 221.0233)" class="st0" cx="318.4" cy="69.8" rx="1.5" ry="1.5"/>
					
						<ellipse transform="matrix(0.766 -0.6429 0.6429 0.766 76.0331 247.811)" class="st0" cx="378.4" cy="19.5" rx="1.5" ry="1.5"/>
				</g>
			</g>
			<g>
				<g>
					
						<ellipse transform="matrix(0.6429 -0.766 0.766 0.6429 81.6592 314.7691)" class="st0" cx="378.4" cy="69.8" rx="1.5" ry="1.5"/>
					
						<ellipse transform="matrix(0.6429 -0.766 0.766 0.6429 98.7995 250.844)" class="st0" cx="318.4" cy="19.5" rx="1.5" ry="1.5"/>
				</g>
				<g>
					
						<ellipse transform="matrix(0.6426 -0.7662 0.7662 0.6426 58.3275 274.3251)" class="st0" cx="323.2" cy="74.6" rx="1.5" ry="1.5"/>
					
						<ellipse transform="matrix(0.6427 -0.7661 0.7661 0.6427 122.2467 291.4206)" class="st0" cx="373.6" cy="14.6" rx="1.5" ry="1.5"/>
				</g>
			</g>
			<g>
				<g>
					
						<ellipse transform="matrix(0.4999 -0.8661 0.8661 0.4999 135.5724 363.2274)" class="st0" cx="382.3" cy="64.2" rx="1.5" ry="1.5"/>
					<ellipse transform="matrix(0.5 -0.866 0.866 0.5 135.5367 284.8823)" class="st0" cx="314.5" cy="25.1" rx="1.5" ry="1.5"/>
				</g>
				<g>
					
						<ellipse transform="matrix(0.4999 -0.8661 0.8661 0.4999 96.3994 324.0597)" class="st0" cx="328.8" cy="78.6" rx="1.5" ry="1.5"/>
					
						<ellipse transform="matrix(0.5001 -0.866 0.866 0.5001 174.6608 324.0193)" class="st0" cx="368" cy="10.7" rx="1.5" ry="1.5"/>
				</g>
			</g>
			<g>
				<g>
					
						<ellipse transform="matrix(0.3421 -0.9397 0.9397 0.3421 198.8878 400.1335)" class="st0" cx="385.2" cy="58" rx="1.5" ry="1.5"/>
					
						<ellipse transform="matrix(0.3421 -0.9397 0.9397 0.3421 175.6399 313.3583)" class="st0" cx="311.6" cy="31.2" rx="1.5" ry="1.5"/>
				</g>
				<g>
					
						<ellipse transform="matrix(0.342 -0.9397 0.9397 0.342 143.9022 368.3868)" class="st0" cx="335" cy="81.4" rx="1.5" ry="1.5"/>
					
						<ellipse transform="matrix(0.3419 -0.9397 0.9397 0.3419 230.7129 345.1457)" class="st0" cx="361.8" cy="7.8" rx="1.5" ry="1.5"/>
				</g>
			</g>
			<g>
				<g>
					
						<ellipse transform="matrix(0.1736 -0.9848 0.9848 0.1736 269.1278 423.5957)" class="st0" cx="387" cy="51.4" rx="1.5" ry="1.5"/>
					
						<ellipse transform="matrix(0.1736 -0.9848 0.9848 0.1736 218.7771 336.4003)" class="st0" cx="309.8" cy="37.8" rx="1.5" ry="1.5"/>
				</g>
				<g>
					
						<ellipse transform="matrix(0.1736 -0.9848 0.9848 0.1736 200.3588 405.1717)" class="st0" cx="341.6" cy="83.2" rx="1.5" ry="1.5"/>
					
						<ellipse transform="matrix(0.1736 -0.9848 0.9848 0.1736 287.5514 354.8262)" class="st0" cx="355.2" cy="6.1" rx="1.5" ry="1.5"/>
				</g>
			</g>
		</g>
	</g>
	<g>
		<g>
			<circle class="st0" cx="215.4" cy="44.7" r="1.5"/>
			<circle class="st0" cx="223.3" cy="44.7" r="1.5"/>
			<circle class="st0" cx="231.1" cy="44.7" r="1.5"/>
			<circle class="st0" cx="239" cy="44.7" r="1.5"/>
			<circle class="st0" cx="246.9" cy="44.7" r="1.5"/>
			<circle class="st0" cx="254.7" cy="44.7" r="1.5"/>
			<circle class="st0" cx="262.6" cy="44.7" r="1.5"/>
			<circle class="st0" cx="270.5" cy="44.7" r="1.5"/>
			<circle class="st0" cx="278.4" cy="44.7" r="1.5"/>
			<circle class="st0" cx="285.8" cy="44.7" r="1.5"/>
			<circle class="st0" cx="293.6" cy="44.7" r="1.5"/>
			<circle class="st0" cx="301.5" cy="44.7" r="1.5"/>
		</g>
	</g>
	<g>
		<g>
			<circle class="st3" cx="215.4" cy="355.5" r="1.5"/>
			<circle class="st3" cx="223.3" cy="355.5" r="1.5"/>
			<circle class="st3" cx="231.1" cy="355.5" r="1.5"/>
			<circle class="st3" cx="239" cy="355.5" r="1.5"/>
			<circle class="st3" cx="246.9" cy="355.5" r="1.5"/>
			<circle class="st3" cx="254.7" cy="355.5" r="1.5"/>
			<circle class="st3" cx="262.6" cy="355.5" r="1.5"/>
			<circle class="st3" cx="270.5" cy="355.5" r="1.5"/>
			<circle class="st3" cx="278.4" cy="355.5" r="1.5"/>
			<circle class="st3" cx="285.8" cy="355.5" r="1.5"/>
			<circle class="st3" cx="293.6" cy="355.5" r="1.5"/>
			<circle class="st3" cx="301.5" cy="355.5" r="1.5"/>
		</g>
	</g>
	<g>
		<g>
			<circle class="st1" cx="285.6" cy="148.3" r="1.5"/>
			<circle class="st1" cx="293.5" cy="148.3" r="1.5"/>
			<circle class="st1" cx="301.3" cy="148.3" r="1.5"/>
		</g>
	</g>
	<g>
		<g>
			<circle class="st2" cx="285.6" cy="251.9" r="1.5"/>
			<circle class="st2" cx="293.5" cy="251.9" r="1.5"/>
			<circle class="st2" cx="301.3" cy="251.9" r="1.5"/>
		</g>
	</g>
	<circle class="st0" cx="199.1" cy="44.6" r="8.4"/>
	<circle class="st4" cx="199.1" cy="44.6" r="5.1"/>
	<circle class="st1" cx="271.1" cy="148.3" r="8.4"/>
	<circle class="st4" cx="271.1" cy="148.3" r="5.1"/>
	<circle class="st2" cx="271.1" cy="251.9" r="8.4"/>
	<circle class="st4" cx="271.1" cy="251.9" r="5.1"/>
	<circle class="st3" cx="201.1" cy="355.5" r="8.4"/>
	<circle class="st4" cx="201.1" cy="355.5" r="5.1"/>
	<path class="st5" d="M271.6,243.5c1.1,0.1,2.2,0.3,3.2,0.8c3.2-14.1,5-28.8,5-43.9c0-15.3-1.8-30.1-5.1-44.4c-1,0.4-2,0.7-3.2,0.7
		c3.3,14,5,28.7,5,43.7C276.5,215.2,274.8,229.6,271.6,243.5z"/>
	<path class="st5" d="M267.2,259.4c-11.4,35.4-32.8,66.4-60.9,89.5c0.9,0.7,1.6,1.5,2.1,2.5c28.5-23.6,50.3-55.1,61.9-91.1
		C269.2,260.2,268.2,259.9,267.2,259.4z"/>
	<g>
		<path class="st5" d="M206.8,48c-0.4,1-1.1,1.9-1.9,2.7c28.6,23.2,50.4,54.4,62.1,90.2c0.9-0.5,2-0.9,3.1-1
			C258.3,103.4,236,71.6,206.8,48z"/>
	</g>
	<path class="st6" d="M71.2,117.7c15.7-3.7,32.6-2.5,47.6,3.5c17.2,6.8,31.7,19.8,40.5,36c7.9,14.4,11.1,31.3,9,47.6
		c-2,16.7-9.6,32.7-21.2,44.8c-7.6,8.1-17,14.4-27.1,18.8c-5.6-15.1-11.5-30.1-16.9-45.3c9.1-4.6,15.9-13.7,17.2-24
		c2.1-13.9-6.6-28.4-19.8-33.2c-12.2-4.8-27.1-0.9-35.2,9.3c-7.9,9.3-9.4,23.4-3.6,34.2c3,6,8.2,10.6,14,13.8
		c-5.7,15.1-11.3,30.1-17,45.2c-15.6-6.5-29-18.1-37.6-32.5c-7.3-12.2-11.4-26.4-11.3-40.6c-0.2-17.6,5.9-35.2,16.8-49
		C37.7,132.1,53.6,121.8,71.2,117.7L71.2,117.7z"/>
	<g>
		<path class="st7" d="M369.3,249.6l-18.8-18.8c-1.1-1.1-2.8-1.1-3.9,0l-3.9,3.9l4.9,4.9c1.1-0.4,2.5-0.1,3.4,0.8
			c0.9,0.9,1.2,2.2,0.8,3.4l4.8,4.8c1.2-0.4,2.5-0.1,3.4,0.8c1.3,1.3,1.3,3.4,0,4.7c-1.3,1.3-3.4,1.3-4.7,0c-1-1-1.2-2.4-0.7-3.6
			l-4.4-4.4v11.7c0.3,0.2,0.6,0.4,0.9,0.6c1.3,1.3,1.3,3.4,0,4.7c-1.3,1.3-3.4,1.3-4.7,0c-1.3-1.3-1.3-3.4,0-4.7
			c0.3-0.3,0.7-0.6,1.1-0.7v-11.8c-0.4-0.2-0.8-0.4-1.1-0.7c-1-1-1.2-2.4-0.7-3.6l-4.9-4.9l-12.9,12.9c-1.1,1.1-1.1,2.8,0,3.9
			l18.8,18.8c1.1,1.1,2.8,1.1,3.9,0l18.7-18.7C370.4,252.5,370.4,250.7,369.3,249.6z"/>
	</g>
	<g>
		<path class="st7" d="M358.5,135.2c-2.2-1.3-4.2-1.9-6.2-3.2c-1.3-0.9-3-2.9-4.5-4.6c-0.3,2.8-1.1,4-2.1,4.8
			c-2.1,1.6-3.4,2.1-5.2,3.1c-1.5,0.8-9.7,5.7-9.7,16.2c0,10.5,8.8,18.2,18.6,18.2s18.3-7.1,18.3-17.9
			C367.8,140.9,359.8,136,358.5,135.2z M358.7,165.8c-0.2,0.2-2.1,1.5-4.3,1.7c-2.2,0.2-5.2,0.3-7-1.3c-0.3-0.3-0.2-0.7,0-0.9
			c0.2-0.2,0.4-0.3,0.6-0.3c0.2,0,0.2,0,0.3,0.1c0.8,0.7,2,1.2,4.6,1.2s4.4-0.7,5.3-1.3c0.4-0.3,0.5,0,0.6,0.1
			C358.9,165.2,359,165.5,358.7,165.8z M351.6,162.1c0.4-0.4,1.2-1.1,1.9-1.3c0.7-0.3,1.1-0.2,1.7-0.2c0.7,0,1.3,0,1.8,0.4
			c0.5,0.3,0.8,1.1,0.9,1.5c0.2,0.4,0,0.7-0.3,0.8c-0.3,0.2-0.3,0.1-0.6-0.4c-0.3-0.5-0.5-1.1-2-1.1c-1.4,0-1.9,0.5-2.6,1.1
			c-0.7,0.6-0.9,0.8-1.2,0.4C351.1,162.8,351.2,162.5,351.6,162.1z M362.4,162.4c-1.5-0.1-4.4-4.7-6.3-4.8
			c-2.4-0.1-7.5,4.9-11.5,4.9c-2.4,0-3.2-0.4-4-0.9c-1.2-0.9-1.8-2.2-1.8-4c0-3.2,3-6.1,6.8-6.2c4.8,0,8.1,4.7,10.5,4.7
			c2,0,5.9-4,7.9-4c2,0,2.6,2.1,2.6,3.4c0,1.3-0.4,3.5-1.4,5C364.2,161.9,363.5,162.5,362.4,162.4z"/>
	</g>
	<g>
		<path class="st7" d="M328.2,44l3.3,1.8l0.3,0.2c0.9,0.5,1.9,0.9,2.6,1.7l0.9-2c-0.2-0.1-0.4-0.3-0.6-0.4l-3.5-1.8l-0.1-0.1
			c-1.4-0.7-2.9-1.4-2.9-3c0-1.7,1.3-3.1,3-3.1c1.4,0,2.5,0.6,3.4,2l0.3,0.4l1.5-1.2l-0.2-0.3c-0.9-1.7-2.9-2.8-4.9-2.8
			c-3,0-5.2,2.2-5.2,5.1C326,41.8,326.7,43.1,328.2,44z"/>
		<path class="st7" d="M334.8,50.1c-0.5,1.6-2.1,2.9-4,2.9c-1.7,0-3-0.9-3.9-2.6l-0.1-0.2h-2.1l0.2,0.6c0.9,2.6,3.2,4.3,5.8,4.3
			c3,0,5.6-2.1,6.1-4.8H334.8z"/>
		<path class="st7" d="M356.7,37.2l-1.1,2.6l2.9,7.2h-5.9l-0.8,2h7.8l1.9,0L356.7,37.2z"/>
		<polygon class="st7" points="351.4,35.2 348.3,42.9 345.3,35.2 342.9,35.2 348.3,48.6 353.8,35.2 		"/>
		<path class="st7" d="M344,46.9h-5.9l2.9-7.2l-1.1-2.6l-4.8,11.7l9.6,0L344,46.9z"/>
		<polygon class="st7" points="356.7,37.2 355.6,39.8 352.7,46.9 351.9,48.9 349.4,55 347.3,55 344.8,48.9 344,46.9 341,39.8 
			339.9,37.2 341.1,34.3 348.3,52.3 355.6,34.3 		"/>
		<path class="st7" d="M372,49.5c0,2-2.1,5.5-6.2,5.5c-2,0-4.5-1-5.8-4.4l-0.2-0.6h2.1l0.1,0.2c0.8,1.7,2.2,2.7,3.9,2.7
			c1.8,0,4.1-1.5,4.1-3.9c0-0.8-0.4-1.4-0.9-1.9c-0.6-0.5-1.4-0.9-2.1-1.2l-0.3-0.2l-3.3-1.8c-0.8-0.5-1.4-1.1-1.7-1.8
			c-0.3-0.6-0.4-1.2-0.4-1.9c0-3,2.2-5.1,5.2-5.1c1.4,0,2.8,0.6,3.8,1.5c0.4,0.4,0.8,0.8,1,1.3l0.2,0.3l-1.5,1.2l-0.1-0.1l-0.2-0.3
			c-0.3-0.4-0.5-0.7-0.8-1c-0.7-0.6-1.5-1-2.5-1c-1.7,0-3,1.4-3,3.1c0,0.3,0.1,0.6,0.2,0.8c0.2,0.6,0.7,1,1.2,1.3l1.5,0.8l0.1,0.1
			l0.6,0.3l2.9,1.5c0.2,0.1,0.4,0.3,0.6,0.4c0,0,0,0,0,0c0,0,0,0,0,0C371.7,46.7,372,47.9,372,49.5z"/>
	</g>
	<g>
		<path class="st7" d="M336.6,352.9c0.3,2.1,2,4.8,4.7,5.8c1.1,0.4,2.3,0.4,3.4,0c2.7-1,4.4-3.7,4.7-5.8c0.4,0,0.8-0.5,1.3-2.3
			c0.7-2.5,0-2.8-0.7-2.8c0.1-0.3,0.2-0.7,0.3-1c1.1-6.4-2.1-6.6-2.1-6.6s-0.5-1-1.9-1.8c-0.9-0.5-2.2-1-3.9-0.8
			c-0.5,0-1.1,0.1-1.5,0.3c-0.6,0.2-1.2,0.5-1.7,0.9c-0.6,0.4-1.2,0.9-1.7,1.4c-0.8,0.8-1.6,1.9-1.9,3.3c-0.3,1-0.2,2.1,0,3.2
			c0.1,0.3,0.1,0.7,0.3,1c-0.6-0.1-1.4,0.3-0.7,2.8C335.7,352.4,336.2,352.9,336.6,352.9z"/>
		<path class="st7" d="M373.2,366.9c-0.2-1.3-1.1-2.5-2.3-3.1l-4.6-2.3c-0.3-0.1-0.5-0.3-0.8-0.4l-1.4-1.1l0-0.1v-1.3
			c0,0,0.5,0,1.3-0.1c0.3,0,3.8-0.8,4.9-1.9c0,0-2.9-0.8-2.4-6.1c0.5-5.3-0.7-9.9-4.9-9.5c0,0-1.8-2.2-5.5-0.8
			c-1.3,0.5-4.6,1.7-4.5,9c0.2,7.3-2.6,7.4-2.6,7.4s1,1.4,4,1.9c0.3,0,0.6,0.1,0.9,0.1c0.4,0,0.9,0,1.3,0l0.3,2.3
			c0,0,0.3,0.8-1.7,0.2l0-0.1l-0.2,0.1c-3.8-1-6.8-3.1-6.8-3.1l-5.3,3.4l-5.5-3.4c0,0-3.1,2.2-6.9,3.1c-2.8,0.7-3,4-2.9,5.6
			c0,0,0.2,2.2,0.3,3.2c0,0,5.5,3.6,14.8,3.6c4.1,0,7.4-0.7,9.9-1.5c2.1,0.5,4.6,0.9,7.5,0.9c4,0,7.2-0.7,9.6-1.4
			c1.7-0.5,3-1.1,3.8-1.5L373.2,366.9z"/>
	</g>
</g>
</svg>
