<svg id="Layer_1" xmlns="http://www.w3.org/2000/svg" width="100" height="100" viewBox="0 0 100 100"><style>.st0{fill:#0a5365}</style><path class="st0" d="M77.1 67.3c-5.3 0-9.6 4.3-9.6 9.6s4.3 9.6 9.6 9.6 9.6-4.3 9.6-9.6-4.4-9.6-9.6-9.6zm0 15.9c-3.5 0-6.4-2.9-6.4-6.4 0-3.5 2.9-6.4 6.4-6.4 3.5 0 6.4 2.9 6.4 6.4-.1 3.5-2.9 6.4-6.4 6.4zm-43.5-65L31.4 16 20.2 27.1c-.6.6-.6 1.6 0 2.3l11.1 11.1 2.3-2.3-10-10 10-10zm35.1 8.9L57.5 16l-2.3 2.3 10 10-10 10 2.3 2.3 11.1-11.1c.7-.8.7-1.8.1-2.4z"/><path transform="rotate(-63.435 44.435 26.644)" class="st0" d="M28.4 25.1h32v3.2h-32z"/><path class="st0" d="M64.3 37.8h3.2V41h-3.2zm6.4 0h3.2V41h-3.2zm6.4 0h3.2V41h-3.2zm14.5 6.8h.3v2.9h-.3z"/><path class="st0" d="M91.6 44.6v2.9h.3v-2.9h-.3z"/><path class="st0" d="M94.6 72.2h-2.3c-.1 0-.1-.1-.1-.1-.3-.9-.6-1.7-1.1-2.6v-.2l1.6-1.6c.6-.6.6-1.5 0-2.1l-3.8-3.8h5.6V4H5.1v57.9h28.1l-4.7 10.4h-9V83h43.1c.2.4.3.7.5 1.1v.2L61.5 86c-.6.6-.6 1.5 0 2l4.5 4.5c.6.6 1.5.6 2.1 0l1.6-1.7c.1 0 .1-.1.2 0 .8.4 1.7.8 2.6 1.1.1 0 .1.1.1.1v2.3c0 .8.6 1.4 1.4 1.4h6.4c.8 0 1.4-.7 1.4-1.4V92c0-.1 0-.1.1-.1.9-.3 1.7-.6 2.6-1.1h.2l1.6 1.6c.6.6 1.5.6 2.1 0l4.5-4.5c.6-.6.6-1.5 0-2.1l-1.6-1.6s-.1-.1 0-.2c.4-.8.8-1.7 1.1-2.6 0-.1.1-.1.1-.1h2.3c.8 0 1.4-.6 1.4-1.4v-6.4c-.2-.7-.8-1.3-1.6-1.3zM8 6.9h83.6v37.7H8V6.9zM8 59V47.5h83.6V59H8zm77.5 2.9l-.9.9c-.1.1-.1.1-.2 0-.7-.4-1.5-.7-2.3-1h3.4zm-13.4 0c-.8.3-1.6.6-2.3 1h-.2l-.9-1h3.4zm-35.8 0h27l.6 1.3-2.5 2.5c-.6.6-.6 1.5 0 2.1l1.6 1.7c.1 0 .1.1 0 .2-.4.8-.8 1.7-1.1 2.6 0 .1-.1.1-.1.1l-30.3.1 4.8-10.6zm-14 18.2V75h35.8v5.1H22.3zm70.8-1.5h-.9c-1.3 0-2.5.9-2.9 2.1-.2.7-.5 1.4-.9 2.1-.6 1.2-.4 2.6.5 3.6l.6.6-2.5 2.5-.6-.6c-.9-.9-2.4-1.2-3.6-.5-.7.4-1.4.7-2.1.9-1.3.4-2.1 1.6-2.1 2.9v.9h-3.5V92c0-1.3-.9-2.5-2.1-2.9-.7-.2-1.4-.5-2.1-.9-1.2-.6-2.6-.4-3.6.6l-.6.6-2.2-2.4.6-.6c.9-.9 1.2-2.4.5-3.6-.4-.7-.6-1.4-.9-2.1-.4-1.3-1.6-2.1-2.9-2.1H61v-3.5h.9c1.3 0 2.5-.9 2.9-2.1.2-.7.5-1.4.9-2.1.6-1.2.4-2.6-.5-3.6l-.6-.6 2.5-2.5.6.6c.9.9 2.4 1.2 3.6.6.7-.4 1.4-.7 2.1-.9 1.2-.4 2-1.4 2.1-2.7H79c.1 1.2.9 2.3 2.1 2.7.7.2 1.4.5 2.1.9 1.2.6 2.6.4 3.6-.6l.6-.6 2.5 2.5-.9.6c-.9.9-1.2 2.4-.5 3.6.4.7.7 1.4.9 2.1.4 1.3 1.6 2.1 2.9 2.1h.9v3.5z"/></svg>