<svg version="1.1" id="logo" xmlns="http://www.w3.org/2000/svg" x="0" y="0" viewBox="0 0 508.5 371.25" xml:space="preserve"><style>.st0{fill:#104a71!important}.st2{fill:#f4854f}.st3{fill:#fef59b}.st7{fill:#f16623}</style><path class="st0" d="M20.76 291.51l217.75 70.42c4.06 1.31 9.8 2.07 15.74 2.07 5.94 0 11.68-.75 15.74-2.07l217.75-70.42c7.59-2.46 14.01-11.27 14.01-19.26v-108.5c0-7.98-6.42-16.8-14.01-19.26L306.62 85.92l-3.43-1.11.34-3.59c.15-1.61.23-3.2.23-4.71 0-17.98-9.78-34.58-25.52-43.32l-.36-.2c-4.01-2.22-14.64-8.11-20.19-14.2a33.642 33.642 0 0 1-3.42-4.42c-.93 1.44-2.06 2.93-3.42 4.42-5.55 6.09-16.19 11.99-20.2 14.21l-.36.2c-15.74 8.73-25.52 25.33-25.52 43.32 0 1.51.08 3.1.23 4.71l.34 3.59-3.43 1.11-181.15 58.56c-7.59 2.46-14.01 11.27-14.01 19.26v108.5c0 7.98 6.42 16.8 14.01 19.26z"/><path d="M6.75 163.75v108.5c0 4.16 1.75 8.54 4.5 12.14V151.61c-2.75 3.6-4.5 7.98-4.5 12.14zm14.01-19.26c-.17.06-.34.13-.51.19v146.63c.17.06.34.14.51.19l8.49 2.75v-152.5l-8.49 2.74zm17.49-5.65v158.32l9 2.91V135.93zm18-5.82v169.96l9 2.92V130.11zm18-5.82v181.61l9 2.91V124.29zm18-5.83v193.26l9 2.91V118.46zm18-5.82v204.9l9 2.91V112.64zm18-5.82v216.54l9 2.91V106.82zm18-5.82v228.18l9 2.91V101zm18-5.82v239.82l9 2.91V95.18zm18-5.82v251.46l9 2.91V89.36zm22.5-15.77c0 1.51.08 3.1.23 4.71l.34 3.59-3.43 1.11-1.63.53v263.11l9 2.91V55.9a49.352 49.352 0 0 0-4.51 20.6zm13.5-33.96v312.84l9 2.91V35.01c-3.32 2.16-6.33 4.7-9 7.53zm18-12.77V361.2l2.26.73c1.92.62 4.23 1.11 6.74 1.46V23.75c-2.96 2.26-6.2 4.34-9 6.02zm21.42-10.99a33.642 33.642 0 0 1-3.42-4.42v349.63c3.13 0 6.2-.21 9-.6V23.75c-2.08-1.59-4.03-3.27-5.58-4.97zm20.56 14.4l-.36-.2c-1.3-.72-3.31-1.84-5.62-3.22V361.2l9-2.91V35.01c-.98-.64-1.99-1.25-3.02-1.83zm12.02 9.35v312.84l9-2.91V55.9a49.65 49.65 0 0 0-9-13.37zm18 43.92v263.1l9-2.91V89.36zm18 5.82v251.46l9-2.91V95.18zm18 5.82v239.82l9-2.91V101zm18 5.82v228.18l9-2.91V106.82zm18 5.82v216.54l9-2.91V112.64zm18 5.82v204.9l9-2.91V118.46zm18 5.82v193.26l9-2.91V124.29zm18 5.83v181.61l9-2.91V130.11zm18 5.82v169.96l9-2.91V135.93zm18 5.82v158.32l9-2.91v-152.5zm18 5.85v146.63c3.44-1.25 6.6-3.78 9-6.92V151.61c-2.4-3.14-5.56-5.67-9-6.92z" fill="#285c80"/><path class="st0" d="M256.4 195.99h-28.27l-4.5 4.5-8.35 30.2-9.59-34.7h-32.01l-4.5 4.5 3.31 9.22c-5.89-9.74-17.63-16.03-33.68-16.03-14.32 0-25.2 4.96-31.59 12.9-7.08 5.73-10.97 13.98-10.97 23.5v.34H60.71l-4.5 4.5v12.43h11v1.54c0 .71-.1 1.39-.28 2.04-1.13.39-2.47.61-4.02.61-6.05 0-10.01-3.08-10.01-9.46V226.9c0-2.28.39-4.26 1.15-5.9 1.48-.67 3.23-1.04 5.24-1.04 6.05 0 10.89 3.41 13.97 7.59l18.04-12.21 4.5-4.5c-4.95-9.79-17.27-17.16-34.54-17.16-14.46 0-25.87 4.98-32.56 13.25-7.07 5.75-11.1 14.01-11.1 23.81v13.97c0 18.7 13.75 31.35 33.44 31.35 10.01 0 17.38-3.19 22.11-9.13l1.87 6.82h16.94l4.5-4.5v-21.47c1.82 16.37 15.74 28.28 37.85 28.28 14.21 0 25.04-4.97 31.43-12.89 7.11-5.76 11.03-14.07 11.03-23.62v-13.97c0-1.71-.13-3.38-.37-5l19.08 53.17h29.26l4.5-4.5 27.16-73.26zm-117.59 54.23c-4.95 0-7.26-2.86-7.26-8.03v-19.14c0-1.27.14-2.39.41-3.38.71-.17 1.49-.27 2.35-.27 4.95 0 7.15 2.86 7.15 8.14v19.14c0 1.23-.13 2.32-.38 3.28-.69.17-1.44.26-2.27.26zm227.8-56.54c-14.32 0-25.2 4.96-31.59 12.9-7.08 5.73-10.97 13.98-10.97 23.5v13.97c0 3.18.44 6.21 1.28 9.07l-16.47-11.15c-3.08 4.18-7.92 7.59-13.97 7.59-7.04 0-10.78-4.4-10.78-11.22v-11.88c0-2.17.38-4.08 1.12-5.7 1.45-.66 3.17-1.02 5.16-1.02 6.05 0 10.89 3.41 13.97 7.59l17.93-11.99 4.5-4.5c-4.51-9.79-17.16-17.16-34.43-17.16-14.53 0-25.94 4.99-32.58 13.22-7 5.68-10.97 13.8-10.97 23.4v13.64c0 18.92 15.4 32.12 39.05 32.12 14.59 0 25.71-5.43 31.73-13.02 2.76-2.22 4.97-4.76 6.56-7.51 4.78 12.24 17.52 20.52 35.95 20.52 14.21 0 25.04-4.97 31.43-12.89 7.11-5.76 11.02-14.07 11.02-23.62v-13.97c.01-18.25-14.29-31.89-37.94-31.89zm0 56.54c-4.95 0-7.26-2.86-7.26-8.03v-19.14c0-1.27.14-2.39.41-3.38.71-.17 1.49-.27 2.35-.27 4.95 0 7.15 2.86 7.15 8.14v19.14c0 1.23-.13 2.32-.38 3.28-.68.17-1.43.26-2.27.26zm118.14-54.23H457.8l-4.5 4.5v18.71l-17.61-23.21h-25.08l-4.5 4.5v73.26h26.95l4.5-4.5v-19.09l17.17 23.59h25.52l4.5-4.5z"/><path class="st2" d="M79.52 269.25l-1.87-6.82c-4.73 5.94-12.1 9.13-22.11 9.13-19.69 0-33.44-12.65-33.44-31.35v-13.97c0-19.25 15.51-32.56 39.16-32.56 17.27 0 29.59 7.37 34.54 17.16l-18.04 12.21c-3.08-4.18-7.92-7.59-13.97-7.59-6.93 0-10.89 4.18-10.89 11.44v15.18c0 6.38 3.96 9.46 10.01 9.46 5.94 0 8.8-3.19 8.8-7.15v-1.54h-11v-12.43h35.75v38.83H79.52z"/><path class="st3" d="M61.26 196.68c13.61 0 25.02 5.02 30.54 13.25l-13.47 9.12c-3.96-4.22-9.13-6.59-14.53-6.59-8.57 0-13.89 5.53-13.89 14.44v15.18c0 7.69 4.99 12.46 13.01 12.46 5.87 0 11.8-3.14 11.8-10.15v-4.54h-11v-6.43h29.75v32.83H81.81l-1.26-4.61-1.56-5.7-3.68 4.62c-4.23 5.31-10.88 8-19.76 8-18.21 0-30.44-11.39-30.44-28.35v-13.97c-.01-17.68 14.52-29.56 36.15-29.56m0-3c-23.65 0-39.16 13.31-39.16 32.56v13.97c0 18.7 13.75 31.35 33.44 31.35 10.01 0 17.38-3.19 22.11-9.13l1.87 6.82h16.94v-38.83H60.71v12.43h11v1.54c0 3.96-2.86 7.15-8.8 7.15-6.05 0-10.01-3.08-10.01-9.46V226.9c0-7.26 3.96-11.44 10.89-11.44 6.05 0 10.89 3.41 13.97 7.59l18.04-12.21c-4.95-9.79-17.27-17.16-34.54-17.16z"/><path class="st2" d="M138.81 271.56c-23.76 0-38.06-13.75-38.06-32.01v-13.97c0-18.26 14.3-31.9 38.06-31.9 23.65 0 37.95 13.64 37.95 31.9v13.97c0 18.26-14.3 32.01-37.95 32.01zm7.15-48.51c0-5.28-2.2-8.14-7.15-8.14s-7.26 2.86-7.26 8.14v19.14c0 5.17 2.31 8.03 7.26 8.03s7.15-2.86 7.15-8.03v-19.14z"/><path class="st3" d="M138.81 196.68c10.65 0 19.59 2.89 25.87 8.36 5.94 5.18 9.08 12.28 9.08 20.54v13.97c0 17.35-14.05 29.01-34.95 29.01-10.69 0-19.67-2.91-25.97-8.42-5.95-5.2-9.09-12.32-9.09-20.59v-13.97c0-8.26 3.14-15.36 9.09-20.53 6.29-5.48 15.27-8.37 25.97-8.37m0 56.54c6.45 0 10.15-4.02 10.15-11.03v-19.14c0-7.08-3.7-11.14-10.15-11.14-6.52 0-10.26 4.06-10.26 11.14v19.14c0 7.01 3.74 11.03 10.26 11.03m0-59.54c-23.76 0-38.06 13.64-38.06 31.9v13.97c0 18.26 14.3 32.01 38.06 32.01 23.65 0 37.95-13.75 37.95-32.01v-13.97c0-18.26-14.3-31.9-37.95-31.9zm0 56.54c-4.95 0-7.26-2.86-7.26-8.03v-19.14c0-5.28 2.31-8.14 7.26-8.14s7.15 2.86 7.15 8.14v19.14c0 5.17-2.2 8.03-7.15 8.03z"/><path class="st2" d="M229.23 269.25h-29.26l-26.29-73.26h32.01l11.22 40.59 11.22-40.59h28.27l-27.17 73.26z"/><path class="st3" d="M252.08 198.99l-24.94 67.26h-25.06l-24.14-67.26h25.46l10.61 38.39 2.89 10.46 2.89-10.46 10.61-38.39h21.68m4.32-3h-28.27l-11.22 40.59-11.22-40.59h-32.01l26.29 73.26h29.26l27.17-73.26z"/><path class="st2" d="M292.37 271.56c-23.65 0-39.05-13.2-39.05-32.12V225.8c0-18.92 15.4-32.12 39.05-32.12 17.27 0 29.92 7.37 34.43 17.16l-17.93 11.99c-3.08-4.18-7.92-7.59-13.97-7.59-7.04 0-10.78 4.4-10.78 11.22v11.88c0 6.82 3.74 11.22 10.78 11.22 6.05 0 10.89-3.41 13.97-7.59l18.04 12.21c-4.84 9.79-17.27 17.38-34.54 17.38z"/><path class="st3" d="M292.37 196.68c13.73 0 25.34 5.1 30.49 13.19l-13.41 8.97c-3.97-4.22-9.14-6.6-14.54-6.6-8.5 0-13.78 5.45-13.78 14.22v11.88c0 8.77 5.28 14.22 13.78 14.22 5.4 0 10.57-2.37 14.53-6.59l13.5 9.13c-5.47 8.36-16.89 13.45-30.56 13.45-21.56 0-36.05-11.7-36.05-29.12V225.8c-.01-17.42 14.47-29.12 36.04-29.12m0-3c-23.65 0-39.05 13.2-39.05 32.12v13.64c0 18.92 15.4 32.12 39.05 32.12 17.27 0 29.7-7.59 34.54-17.38l-18.04-12.21c-3.08 4.18-7.92 7.59-13.97 7.59-7.04 0-10.78-4.4-10.78-11.22v-11.88c0-6.82 3.74-11.22 10.78-11.22 6.05 0 10.89 3.41 13.97 7.59l17.93-11.99c-4.51-9.79-17.16-17.16-34.43-17.16z"/><path class="st2" d="M366.61 271.56c-23.76 0-38.06-13.75-38.06-32.01v-13.97c0-18.26 14.3-31.9 38.06-31.9 23.65 0 37.95 13.64 37.95 31.9v13.97c0 18.26-14.3 32.01-37.95 32.01zm7.15-48.51c0-5.28-2.2-8.14-7.15-8.14s-7.26 2.86-7.26 8.14v19.14c0 5.17 2.31 8.03 7.26 8.03s7.15-2.86 7.15-8.03v-19.14z"/><path class="st3" d="M366.61 196.68c10.65 0 19.59 2.89 25.87 8.36 5.94 5.18 9.08 12.28 9.08 20.54v13.97c0 17.35-14.05 29.01-34.95 29.01-10.69 0-19.67-2.91-25.97-8.42-5.95-5.2-9.09-12.32-9.09-20.59v-13.97c0-8.26 3.14-15.36 9.09-20.53 6.3-5.48 15.28-8.37 25.97-8.37m0 56.54c6.45 0 10.15-4.02 10.15-11.03v-19.14c0-7.08-3.7-11.14-10.15-11.14-6.52 0-10.26 4.06-10.26 11.14v19.14c0 7.01 3.74 11.03 10.26 11.03m0-59.54c-23.76 0-38.06 13.64-38.06 31.9v13.97c0 18.26 14.3 32.01 38.06 32.01 23.65 0 37.95-13.75 37.95-32.01v-13.97c0-18.26-14.3-31.9-37.95-31.9zm0 56.54c-4.95 0-7.26-2.86-7.26-8.03v-19.14c0-5.28 2.31-8.14 7.26-8.14s7.15 2.86 7.15 8.14v19.14c0 5.17-2.2 8.03-7.15 8.03z"/><path class="st2" d="M459.23 269.25l-17.93-24.64-3.74-5.72v30.36h-26.95v-73.26h25.08l19.03 25.08 3.08 4.51v-29.59h26.95v73.26h-25.52z"/><path class="st3" d="M481.75 198.99v67.26h-20.99l-16.99-23.35-3.7-5.66-5.51-8.43v37.43h-20.95v-67.26h20.59l18.08 23.83 3.04 4.45 5.48 8.02v-36.3h20.95m3-2.99H457.8v29.59l-3.08-4.51-19.03-25.08h-25.08v73.26h26.95v-30.36l3.74 5.72 17.93 24.64h25.52v-73.26z"/><path class="st0" d="M159.51 182.36c-2.72 0-6.38-3.92-6.55-5.02-.43-2.13-1.02-4.17-1.02-18.04 0-13.45 1.02-22.98 2.3-29.02-3.49.17-12.43 3.32-13.53 3.32-.77 0-2.38-2.38-2.38-4.17 0-.6.17-1.02.51-1.19 1.79-1.02 18.21-6.72 36.94-6.72 39.58 0 43.49 18.73 43.49 26.56-.01 17.34-17.37 34.28-59.76 34.28zm15.32-53.71c-5.87 0-9.45.34-10.47.43-.94 4.43-2.47 12.51-3.32 21.45-.94 9.53-1.11 20-1.11 25.53 22.13-.17 46.81-6.38 46.81-27.83.01-8.17-5.52-19.58-31.91-19.58zm74.31 40.6c-1.19 2.38-4.94 10.21-11.32 10.21-4.34 0-6.55-2.98-6.55-6.3 0-2.55 1.96-6.64 2.98-8.94.08-.26.17-.43.17-.6 0-.43-.43-.68-.94-.68-1.96-.08-5.02-.68-5.7-1.02-.68 2.47-4.68 11.23-6.55 11.23-.77 0-1.11-2.64-1.11-3.4 0-.6 3.15-4.77 4.6-9.45-.51-.43-2.89-1.79-2.89-5.87 0-1.62 1.11-4.34 3.23-4.34 2.72 0 4 2.38 4 5.7 1.36.94 6.04 1.19 8.17 1.19 3.4 0 5.19 1.45 5.19 4.17 0 2.64-3.92 9.7-3.92 11.83 0 .6.26 1.11.85 1.11 2.47 0 5.87-4.94 8.51-9.87.26-.51.43-.68.68-.68.6 0 1.11 1.53 1.11 3.06 0 .95-.17 1.97-.51 2.65z"/><path class="st0" d="M281.06 169.25c-1.19 2.38-4.94 10.21-11.32 10.21-3.66 0-6.13-2.3-7.4-5.96-1.96 2.89-4.94 5.96-9.02 5.96-5.87 0-8.6-6.13-8.6-14.21 0-1.96.34-9.02.68-9.7.51-.77 1.53-1.11 3.4-1.11 1.96 0 3.57.26 4 1.11.08.17.17.94.17 1.96 0 2.47-.26 6.89-.26 9.53 0 3.83.43 7.06 2.21 7.06 1.79 0 4.08-2.64 6.3-6.04-.08-.94-.08-1.87-.08-2.81 0-1.96.26-9.02.68-9.7.51-.77 1.45-1.11 3.4-1.11 1.87 0 3.49.26 3.92 1.11.08.26.17 1.19.17 2.47 0 2.55-.17 6.55-.17 9.02 0 3.83.43 7.06 2.21 7.06 2.38 0 5.87-4.94 8.51-9.87.17-.51.34-.68.68-.68.6 0 1.02 1.53 1.02 3.06.01.94-.08 1.96-.5 2.64z"/><path class="st0" d="M288.98 179.47c-2.3 0-4.51-.68-6.47-1.7.78 7.49.65 13.86.34 14.29-.27.37-1.45 1.45-2.81 1.45h-.09c-.85 0-3.36-1.15-3.74-1.62-.38-.47-1.38-5.67-1.36-9.02.11-17.79 1.19-27.49 1.28-27.58.26-.94 2.38-1.02 2.38-1.02s2.3 0 2.64 1.02c0 0 .08.6.17 1.62 2.21-1.53 4.85-2.47 7.66-2.47 7.58 0 13.7 5.62 13.7 12.51s-6.13 12.52-13.7 12.52zm0-19.41c-4.77 0-6.89 3.06-6.89 6.89 0 3.75 2.13 6.89 6.89 6.89 3.15 0 5.7-3.15 5.7-6.89 0-3.82-2.55-6.89-5.7-6.89zm54.73 9.19c-1.19 2.38-4.94 10.21-11.4 10.21-2.64 0-4.51-1.19-5.7-3.4-2.38 2.04-5.53 3.4-8.94 3.4-7.49 0-13.62-5.62-13.62-12.51s6.13-12.51 13.62-12.51c2.72 0 5.28.85 7.4 2.21.08-.6.17-.94.26-1.11.51-.77.94-1.11 2.89-1.11 1.87 0 3.15.26 3.58 1.11.08.17.17.94.17 1.96 0 2.47-.26 6.89-.26 9.53 0 3.83.43 7.06 2.21 7.06 2.47 0 5.87-4.94 8.51-9.87.25-.51.43-.68.68-.68.6 0 1.11 1.53 1.11 3.06 0 .95-.17 1.97-.51 2.65zm-19.07-2.72c-.17-3.57-2.3-6.47-6.98-6.47-3.06 0-5.62 3.06-5.62 6.89 0 3.75 2.55 6.89 5.62 6.89 4.85 0 6.98-3.06 6.98-6.89v-.42z"/><path class="st0" d="M356.56 169.25c-1.28 2.38-5.02 10.21-11.41 10.21-6.98 0-7.06-14.55-7.15-15.15-.25-5.19-.42-11.75-.42-19.49 0-7.92.51-16.94 1.02-18.04.42-.6 2.81-1.7 3.66-1.7 1.36 0 2.72 1.02 2.98 1.45.17.6.42 4.6.42 10.89 0 7.75-.77 19.15-.77 28v3.06c0 3.15.43 5.62 1.87 5.62 2.38 0 5.87-4.94 8.51-9.87.25-.51.43-.68.68-.68.6 0 1.02 1.53 1.02 3.06v.51c.01.77-.16 1.62-.41 2.13z"/><path class="st2" d="M216.71 326.25h-23.9l-3.65-7.25 16.82-16.82 1.45-2.9v-1.45l-1.16-2.32-2.32-1.16h-5.22l-8.41 2.9 3.77-11.6h16.53l7.25 7.25v10.15l-13.34 13.34 1.45-.29h8.7l6.09-2.03-4.06 12.18z"/><path class="st3" d="M209.69 287.9l5.93 5.93v8.29l-12.68 12.68-5.26 5.26 7.29-1.46 1.23-.25h8.85l.35-.12 1.82-.61-2.12 6.37h-20.9l-2.3-4.56 15.67-15.67.26-.26.16-.33 1.45-2.9.24-.48v-2.51l-.24-.48-1.16-2.32-.34-.67-.67-.34-2.32-1.16-.48-.24h-6.13l-.36.12-4.14 1.43 1.87-5.75h13.98m.93-2.22h-16.53l-3.77 11.6 8.41-2.9h5.22l2.32 1.16 1.16 2.32v1.45l-1.45 2.9L189.16 319l3.65 7.25h23.9l4.06-12.18-6.09 2.03h-8.7l-1.45.29 13.34-13.34V292.9l-7.25-7.25z"/><path class="st2" d="M249.44 326.25H233.2l-7.54-7.54v-25.52l7.54-7.54h16.24l7.54 7.54v25.52l-7.54 7.54zm-3.48-28.71l-1.16-2.32-2.32-1.16h-2.32l-2.32 1.16-1.16 2.32v16.24l1.16 2.32 2.32 1.16h2.32l2.32-1.16 1.16-2.32v-16.24z"/><path class="st3" d="M248.51 287.9l6.22 6.22v23.66l-6.22 6.22h-14.38l-6.22-6.22v-23.66l6.22-6.22h14.38m-8.88 31.61h3.38l.48-.24 2.32-1.16.67-.34.34-.67 1.16-2.32.24-.48V297l-.24-.48-1.16-2.32-.34-.67-.67-.34-2.32-1.16-.48-.24h-3.38l-.48.24-2.32 1.16-.67.34-.34.67-1.16 2.32-.24.48v17.3l.24.48 1.16 2.32.34.67.67.34 2.32 1.16.48.24m9.81-33.86H233.2l-7.54 7.54v25.52l7.54 7.54h16.24l7.54-7.54v-25.52l-7.54-7.54zm-9.28 31.61l-2.32-1.16-1.16-2.32v-16.24l1.16-2.32 2.32-1.16h2.32l2.32 1.16 1.16 2.32v16.24l-1.16 2.32-2.32 1.16h-2.32z"/><path class="st2" d="M264.75 326.25l2.03-5.22v-24.94h-4.93l5.22-10.44h10.44v35.38l2.03 5.22h-14.79z"/><path class="st3" d="M275.26 287.9v33.55l.15.39.84 2.15h-8.21l.84-2.15.15-.39v-27.61h-3.54l2.97-5.94h6.8m2.25-2.25h-10.44l-5.22 10.44h4.93v24.94l-2.03 5.22h14.79l-2.03-5.22v-35.38z"/><path class="st2" d="M307.45 326.25h-19.43l-3.77-11.6 8.58 2.9h7.37l2.9-1.45 1.45-2.9v-3.77l-3.48 1.74h-10.15l-6.67-6.67v-11.31l7.54-7.54h16.24l7.54 7.54v24.94l-8.12 8.12zm-2.9-28.71l-1.16-2.32-2.32-1.16h-2.9l-2.32 1.16-1.16 2.32v2.03l1.16 2.32 2.32 1.16h2.9l2.32-1.16 1.16-2.32v-2.03z"/><path class="st3" d="M307.09 287.9l6.22 6.22v23.08l-6.8 6.8h-16.86l-1.88-5.78 4.34 1.47.35.12h8.27l.48-.24 2.9-1.45.67-.34.34-.67 1.45-2.9.24-.47v-7.94l-3.26 1.63-3 1.5h-8.69l-5.35-5.35v-9.45l6.22-6.22h14.36m-9.45 17.39h3.96l.48-.24 2.32-1.16.67-.34.34-.67 1.16-2.32.24-.47v-3.09l-.24-.47-1.16-2.32-.34-.67-.67-.34-2.32-1.16-.48-.24h-3.96l-.48.24-2.32 1.16-.67.34-.34.67-1.16 2.32-.24.48v3.09l.24.48 1.16 2.32.34.67.67.34 2.32 1.16.48.22m10.39-19.65h-16.24l-7.54 7.54v11.31l6.67 6.67h10.15l3.48-1.74v3.77l-1.45 2.9-2.9 1.45h-7.37l-8.58-2.9 3.77 11.6h19.43l8.12-8.12v-24.94l-7.54-7.54zm-9.86 17.4l-2.32-1.16-1.16-2.32v-2.03l1.16-2.32 2.32-1.16h2.9l2.32 1.16 1.16 2.32v2.03l-1.16 2.32-2.32 1.16h-2.9z"/><path d="M178.03 119.25c-18.73 0-35.15 5.7-36.94 6.72-.34.17-.51.6-.51 1.19 0 1.79 1.62 4.17 2.38 4.17 1.11 0 10.04-3.15 13.53-3.32-1.28 6.04-2.3 15.58-2.3 29.02 0 13.87.6 15.92 1.02 18.04.17 1.11 3.83 5.02 6.55 5.02 42.39 0 59.75-16.94 59.75-34.3.01-7.81-3.91-26.54-43.48-26.54zm-15.83 54.56c0-5.53.17-16 1.11-25.53.85-8.94 2.38-17.02 3.32-21.45 1.02-.08 4.6-.43 10.47-.43 26.39 0 31.92 11.41 31.92 19.58-.01 21.44-24.69 27.66-46.82 27.83zm129.03-21.62c-2.81 0-5.45.94-7.66 2.47-.08-1.02-.17-1.62-.17-1.62-.34-1.02-2.64-1.02-2.64-1.02s-2.13.08-2.38 1.02c-.06.07-.71 5.72-1.06 16.26-1.34 1.55-2.64 2.55-3.71 2.55-1.79 0-2.21-3.23-2.21-7.06 0-2.47.17-6.47.17-9.02 0-1.28-.08-2.21-.17-2.47-.43-.85-2.04-1.11-3.92-1.11-1.96 0-2.89.34-3.4 1.11-.43.68-.68 7.75-.68 9.7 0 .94 0 1.87.08 2.81-2.21 3.4-4.51 6.04-6.3 6.04s-2.21-3.23-2.21-7.06c0-2.64.26-7.06.26-9.53 0-1.02-.08-1.79-.17-1.96-.43-.85-2.04-1.11-4-1.11-1.87 0-2.89.34-3.4 1.11-.34.68-.68 7.75-.68 9.7 0 1.35.08 2.63.24 3.85-1.95 2.86-3.98 5-5.6 5-.6 0-.85-.51-.85-1.11 0-2.13 3.92-9.19 3.92-11.83 0-2.72-1.79-4.17-5.19-4.17-2.13 0-6.81-.26-8.17-1.19 0-3.32-1.28-5.7-4-5.7-2.13 0-3.23 2.72-3.23 4.34 0 4.09 2.38 5.45 2.89 5.87-1.45 4.68-4.6 8.85-4.6 9.45 0 .77.34 3.4 1.11 3.4 1.87 0 5.87-8.77 6.55-11.23.68.34 3.75.94 5.7 1.02.51 0 .94.26.94.68 0 .17-.08.34-.17.6-1.02 2.3-2.98 6.38-2.98 8.94 0 3.32 2.21 6.3 6.55 6.3 3.68 0 6.48-2.6 8.42-5.26 1.38 3.24 3.7 5.26 7.07 5.26 4.08 0 7.06-3.06 9.02-5.96 1.28 3.66 3.74 5.96 7.4 5.96 1.98 0 3.7-.75 5.17-1.86-.03 1.67-.05 3.42-.07 5.27-.02 3.34.98 8.55 1.36 9.02.38.47 2.89 1.62 3.74 1.62h.09c1.36 0 2.54-1.08 2.81-1.45.31-.43.44-6.8-.34-14.29 1.96 1.02 4.17 1.7 6.47 1.7 7.58 0 13.7-5.62 13.7-12.51s-6.12-12.53-13.7-12.53zm0 19.4c-4.77 0-6.89-3.15-6.89-6.89 0-3.83 2.13-6.89 6.89-6.89 3.15 0 5.7 3.06 5.7 6.89 0 3.75-2.55 6.89-5.7 6.89zm66.99-10.29c-.25 0-.43.17-.68.68-2.64 4.94-6.13 9.87-8.51 9.87-1.45 0-1.87-2.47-1.87-5.62v-3.06c0-8.85.77-20.26.77-28 0-6.3-.25-10.3-.42-10.89-.26-.43-1.62-1.45-2.98-1.45-.85 0-3.23 1.11-3.66 1.7-.51 1.11-1.02 10.13-1.02 18.04 0 7.75.17 14.3.42 19.49.04.25.07 2.97.62 6.04-1.66 2.22-3.33 3.75-4.71 3.75-1.79 0-2.21-3.23-2.21-7.06 0-2.64.26-7.06.26-9.53 0-1.02-.08-1.79-.17-1.96-.43-.85-1.7-1.11-3.58-1.11-1.96 0-2.38.34-2.89 1.11-.08.17-.17.51-.26 1.11-2.13-1.36-4.68-2.21-7.4-2.21-7.49 0-13.62 5.62-13.62 12.51s6.13 12.51 13.62 12.51c3.4 0 6.55-1.36 8.94-3.4 1.19 2.21 3.06 3.4 5.7 3.4 3.25 0 5.81-1.98 7.71-4.25 1.05 2.4 2.66 4.25 5.14 4.25 6.38 0 10.13-7.83 11.41-10.21.26-.51.43-1.36.43-2.13v-.51c-.02-1.54-.45-3.07-1.04-3.07zm-31.32 3.15v.26c0 3.83-2.13 6.89-6.98 6.89-3.06 0-5.62-3.15-5.62-6.89 0-3.83 2.55-6.89 5.62-6.89 4.68 0 6.81 2.89 6.98 6.47v.16z" fill="#5fcfca"/><path d="M200.43 218.81c-.3-.16-1.18-.65-1.62-1.12-.52-.57-.56-1.13-.56-1.13s-.05.56-.56 1.13c-.43.48-1.32.96-1.62 1.12a4.506 4.506 0 0 0-2.32 3.94c0 2.49 2.01 4.5 4.5 4.5s4.5-2.01 4.5-4.5c0-1.69-.94-3.17-2.32-3.94zm35.4 0c-.3-.16-1.18-.65-1.62-1.12-.52-.57-.56-1.13-.56-1.13s-.05.56-.56 1.13c-.43.48-1.32.96-1.62 1.12a4.506 4.506 0 0 0-2.32 3.94c0 2.49 2.01 4.5 4.5 4.5s4.5-2.01 4.5-4.5c0-1.69-.94-3.17-2.32-3.94zm-39.9-14.5c-.3-.16-1.18-.65-1.62-1.12-.52-.57-.56-1.13-.56-1.13s-.05.56-.56 1.13c-.43.48-1.32.96-1.62 1.12a4.506 4.506 0 0 0-2.32 3.94c0 2.49 2.01 4.5 4.5 4.5s4.5-2.01 4.5-4.5c0-1.69-.94-3.17-2.32-3.94zm45.5-.5c-.3-.16-1.18-.65-1.62-1.12-.52-.57-.56-1.13-.56-1.13s-.05.56-.56 1.13c-.43.48-1.32.96-1.62 1.12a4.506 4.506 0 0 0-2.32 3.94c0 2.49 2.01 4.5 4.5 4.5s4.5-2.01 4.5-4.5c0-1.69-.94-3.17-2.32-3.94zm-36 30c-.3-.16-1.18-.65-1.62-1.12-.52-.57-.56-1.13-.56-1.13s-.05.56-.56 1.13c-.43.48-1.32.96-1.62 1.12a4.506 4.506 0 0 0-2.32 3.94c0 2.49 2.01 4.5 4.5 4.5s4.5-2.01 4.5-4.5c0-1.69-.94-3.17-2.32-3.94zm25.25 0c-.3-.16-1.18-.65-1.62-1.12-.52-.57-.56-1.13-.56-1.13s-.05.56-.56 1.13c-.43.48-1.32.96-1.62 1.12a4.506 4.506 0 0 0-2.32 3.94c0 2.49 2.01 4.5 4.5 4.5s4.5-2.01 4.5-4.5c0-1.69-.94-3.17-2.32-3.94zm-20.25 15.5c-.3-.16-1.18-.65-1.62-1.12-.52-.57-.56-1.13-.56-1.13s-.05.56-.56 1.13c-.43.48-1.32.96-1.62 1.12a4.506 4.506 0 0 0-2.32 3.94c0 2.49 2.01 4.5 4.5 4.5s4.5-2.01 4.5-4.5c0-1.69-.94-3.17-2.32-3.94zm16.25 0c-.3-.16-1.18-.65-1.62-1.12-.52-.57-.56-1.13-.56-1.13s-.05.56-.56 1.13c-.43.48-1.32.96-1.62 1.12a4.506 4.506 0 0 0-2.32 3.94c0 2.49 2.01 4.5 4.5 4.5s4.5-2.01 4.5-4.5c0-1.69-.94-3.17-2.32-3.94zm45.2-30.5c-.3-.16-1.18-.65-1.62-1.12-.52-.57-.56-1.13-.56-1.13s-.05.56-.56 1.13c-.43.48-1.32.96-1.62 1.12a4.506 4.506 0 0 0-2.32 3.94c0 2.49 2.01 4.5 4.5 4.5s4.5-2.01 4.5-4.5c0-1.69-.94-3.17-2.32-3.94zm0 15c-.3-.16-1.18-.65-1.62-1.12-.52-.57-.56-1.13-.56-1.13s-.05.56-.56 1.13c-.43.48-1.32.96-1.62 1.12a4.506 4.506 0 0 0-2.32 3.94c0 2.49 2.01 4.5 4.5 4.5s4.5-2.01 4.5-4.5c0-1.69-.94-3.17-2.32-3.94zm1.5 15c-.3-.16-1.18-.65-1.62-1.12-.52-.57-.56-1.13-.56-1.13s-.05.56-.56 1.13c-.43.48-1.32.96-1.62 1.12a4.506 4.506 0 0 0-2.32 3.94c0 2.49 2.01 4.5 4.5 4.5s4.5-2.01 4.5-4.5c0-1.69-.94-3.17-2.32-3.94zm13.05 6.5c-.3-.16-1.18-.65-1.62-1.12-.52-.57-.56-1.13-.56-1.13s-.05.56-.56 1.13c-.43.48-1.32.96-1.62 1.12a4.506 4.506 0 0 0-2.32 3.94c0 2.49 2.01 4.5 4.5 4.5s4.5-2.01 4.5-4.5c0-1.69-.94-3.17-2.32-3.94zm14 1c-.3-.16-1.18-.65-1.62-1.12-.52-.57-.56-1.13-.56-1.13s-.05.56-.56 1.13c-.43.48-1.32.96-1.62 1.12a4.506 4.506 0 0 0-2.32 3.94c0 2.49 2.01 4.5 4.5 4.5s4.5-2.01 4.5-4.5c0-1.69-.94-3.17-2.32-3.94zm13-4c-.3-.16-1.18-.65-1.62-1.12-.52-.57-.56-1.13-.56-1.13s-.05.56-.56 1.13c-.43.48-1.32.96-1.62 1.12a4.506 4.506 0 0 0-2.32 3.94c0 2.49 2.01 4.5 4.5 4.5s4.5-2.01 4.5-4.5c0-1.69-.94-3.17-2.32-3.94zm-33.05-47.5c-.3-.16-1.18-.65-1.62-1.12-.52-.57-.56-1.13-.56-1.13s-.05.56-.56 1.13c-.43.48-1.32.96-1.62 1.12a4.506 4.506 0 0 0-2.32 3.94c0 2.49 2.01 4.5 4.5 4.5s4.5-2.01 4.5-4.5c0-1.69-.94-3.17-2.32-3.94zm13-3.5c-.3-.16-1.18-.65-1.62-1.12-.52-.57-.56-1.13-.56-1.13s-.05.56-.56 1.13c-.43.48-1.32.96-1.62 1.12a4.506 4.506 0 0 0-2.32 3.94c0 2.49 2.01 4.5 4.5 4.5s4.5-2.01 4.5-4.5c0-1.69-.94-3.17-2.32-3.94zm13.5 2c-.3-.16-1.18-.65-1.62-1.12-.52-.57-.56-1.13-.56-1.13s-.05.56-.56 1.13c-.43.48-1.32.96-1.62 1.12a4.506 4.506 0 0 0-2.32 3.94c0 2.49 2.01 4.5 4.5 4.5s4.5-2.01 4.5-4.5c0-1.69-.94-3.17-2.32-3.94zm38.55 15.5c-.3-.16-1.18-.65-1.62-1.12-.52-.57-.56-1.13-.56-1.13s-.05.56-.56 1.13c-.43.48-1.32.96-1.62 1.12a4.506 4.506 0 0 0-2.32 3.94c0 2.49 2.01 4.5 4.5 4.5s4.5-2.01 4.5-4.5c0-1.69-.94-3.17-2.32-3.94zm45.5 0c-.3-.16-1.18-.65-1.62-1.12-.52-.57-.56-1.13-.56-1.13s-.05.56-.56 1.13c-.43.48-1.32.96-1.62 1.12a4.506 4.506 0 0 0-2.32 3.94c0 2.49 2.01 4.5 4.5 4.5s4.5-2.01 4.5-4.5c0-1.69-.94-3.17-2.32-3.94zm-45.7 15c-.3-.16-1.18-.65-1.62-1.12-.52-.57-.56-1.13-.56-1.13s-.05.56-.56 1.13c-.43.48-1.32.96-1.62 1.12a4.506 4.506 0 0 0-2.32 3.94c0 2.49 2.01 4.5 4.5 4.5s4.5-2.01 4.5-4.5c0-1.69-.94-3.17-2.32-3.94zm46 0c-.3-.16-1.18-.65-1.62-1.12-.52-.57-.56-1.13-.56-1.13s-.05.56-.56 1.13c-.43.48-1.32.96-1.62 1.12a4.506 4.506 0 0 0-2.32 3.94c0 2.49 2.01 4.5 4.5 4.5s4.5-2.01 4.5-4.5c0-1.69-.94-3.17-2.32-3.94zm-41.3 14.5c-.3-.16-1.18-.65-1.62-1.12-.52-.57-.56-1.13-.56-1.13s-.05.56-.56 1.13c-.43.48-1.32.96-1.62 1.12a4.506 4.506 0 0 0-2.32 3.94c0 2.49 2.01 4.5 4.5 4.5s4.5-2.01 4.5-4.5c0-1.69-.94-3.17-2.32-3.94zm38 0c-.3-.16-1.18-.65-1.62-1.12-.52-.57-.56-1.13-.56-1.13s-.05.56-.56 1.13c-.43.48-1.32.96-1.62 1.12a4.506 4.506 0 0 0-2.32 3.94c0 2.49 2.01 4.5 4.5 4.5s4.5-2.01 4.5-4.5c0-1.69-.94-3.17-2.32-3.94zm-26 7.65c-.3-.16-1.18-.65-1.62-1.12-.52-.57-.56-1.13-.56-1.13s-.05.56-.56 1.12c-.43.48-1.32.96-1.62 1.13a4.506 4.506 0 0 0-2.32 3.94c0 2.49 2.01 4.5 4.5 4.5s4.5-2.01 4.5-4.5c0-1.69-.94-3.17-2.32-3.94zm14-.15c-.3-.16-1.18-.65-1.62-1.12-.52-.57-.56-1.13-.56-1.13s-.05.56-.56 1.13c-.43.48-1.32.96-1.62 1.12a4.506 4.506 0 0 0-2.32 3.94c0 2.49 2.01 4.5 4.5 4.5s4.5-2.01 4.5-4.5c0-1.69-.94-3.17-2.32-3.94zm-24.5-49.45c-.3-.16-1.18-.65-1.62-1.12-.52-.57-.56-1.13-.56-1.13s-.05.56-.56 1.12c-.43.48-1.32.96-1.62 1.13a4.506 4.506 0 0 0-2.32 3.94c0 2.49 2.01 4.5 4.5 4.5s4.5-2.01 4.5-4.5c0-1.69-.94-3.17-2.32-3.94zm35-.05c-.3-.16-1.18-.65-1.62-1.12-.52-.57-.56-1.13-.56-1.13s-.05.56-.56 1.13c-.43.48-1.32.96-1.62 1.12a4.506 4.506 0 0 0-2.32 3.94c0 2.49 2.01 4.5 4.5 4.5s4.5-2.01 4.5-4.5c0-1.69-.94-3.17-2.32-3.94zm-24-5.5c-.3-.16-1.18-.65-1.62-1.12-.52-.57-.56-1.13-.56-1.13s-.05.56-.56 1.13c-.43.48-1.32.96-1.62 1.12a4.506 4.506 0 0 0-2.32 3.94c0 2.49 2.01 4.5 4.5 4.5s4.5-2.01 4.5-4.5c0-1.69-.94-3.17-2.32-3.94zm13 0c-.3-.16-1.18-.65-1.62-1.12-.52-.57-.56-1.13-.56-1.13s-.05.56-.56 1.13c-.43.48-1.32.96-1.62 1.12a4.506 4.506 0 0 0-2.32 3.94c0 2.49 2.01 4.5 4.5 4.5s4.5-2.01 4.5-4.5c0-1.69-.94-3.17-2.32-3.94zm51 20c-.3-.16-1.18-.65-1.62-1.12-.52-.57-.56-1.13-.56-1.13s-.05.56-.56 1.13c-.43.48-1.32.96-1.62 1.12a4.506 4.506 0 0 0-2.32 3.94c0 2.49 2.01 4.5 4.5 4.5s4.5-2.01 4.5-4.5c0-1.69-.94-3.17-2.32-3.94zm46.5 0c-.3-.16-1.18-.65-1.62-1.12-.52-.57-.56-1.13-.56-1.13s-.05.56-.56 1.13c-.43.48-1.32.96-1.62 1.12a4.506 4.506 0 0 0-2.32 3.94c0 2.49 2.01 4.5 4.5 4.5s4.5-2.01 4.5-4.5c0-1.69-.94-3.17-2.32-3.94zm-46.5-16c-.3-.16-1.18-.65-1.62-1.12-.52-.57-.56-1.13-.56-1.13s-.05.56-.56 1.13c-.43.48-1.32.96-1.62 1.12a4.506 4.506 0 0 0-2.32 3.94c0 2.49 2.01 4.5 4.5 4.5s4.5-2.01 4.5-4.5c0-1.69-.94-3.17-2.32-3.94zm46.5 0c-.3-.16-1.18-.65-1.62-1.12-.52-.57-.56-1.13-.56-1.13s-.05.56-.56 1.13c-.43.48-1.32.96-1.62 1.12a4.506 4.506 0 0 0-2.32 3.94c0 2.49 2.01 4.5 4.5 4.5s4.5-2.01 4.5-4.5c0-1.69-.94-3.17-2.32-3.94zm-46.5 32c-.3-.16-1.18-.65-1.62-1.12-.52-.57-.56-1.13-.56-1.13s-.05.56-.56 1.13c-.43.48-1.32.96-1.62 1.12a4.506 4.506 0 0 0-2.32 3.94c0 2.49 2.01 4.5 4.5 4.5s4.5-2.01 4.5-4.5c0-1.69-.94-3.17-2.32-3.94zm46.5 0c-.3-.16-1.18-.65-1.62-1.12-.52-.57-.56-1.13-.56-1.13s-.05.56-.56 1.13c-.43.48-1.32.96-1.62 1.12a4.506 4.506 0 0 0-2.32 3.94c0 2.49 2.01 4.5 4.5 4.5s4.5-2.01 4.5-4.5c0-1.69-.94-3.17-2.32-3.94zm-46.5 16c-.3-.16-1.18-.65-1.62-1.12-.52-.57-.56-1.13-.56-1.13s-.05.56-.56 1.13c-.43.48-1.32.96-1.62 1.12a4.506 4.506 0 0 0-2.32 3.94c0 2.49 2.01 4.5 4.5 4.5s4.5-2.01 4.5-4.5c0-1.69-.94-3.17-2.32-3.94zm46.5 0c-.3-.16-1.18-.65-1.62-1.12-.52-.57-.56-1.13-.56-1.13s-.05.56-.56 1.13c-.43.48-1.32.96-1.62 1.12a4.506 4.506 0 0 0-2.32 3.94c0 2.49 2.01 4.5 4.5 4.5s4.5-2.01 4.5-4.5c0-1.69-.94-3.17-2.32-3.94zm-33.25-38.25c-.3-.16-1.18-.65-1.62-1.12-.52-.57-.56-1.13-.56-1.13s-.05.56-.56 1.13c-.43.48-1.32.96-1.62 1.12a4.506 4.506 0 0 0-2.32 3.94c0 2.49 2.01 4.5 4.5 4.5s4.5-2.01 4.5-4.5c0-1.69-.94-3.17-2.32-3.94zm10 13.85c-.3-.16-1.18-.65-1.62-1.12-.52-.57-.56-1.13-.56-1.13s-.05.56-.56 1.12c-.43.48-1.32.96-1.62 1.13a4.506 4.506 0 0 0-2.32 3.94c0 2.49 2.01 4.5 4.5 4.5s4.5-2.01 4.5-4.5c0-1.69-.94-3.17-2.32-3.94zm10 13.65c-.3-.16-1.18-.65-1.62-1.12-.52-.57-.56-1.13-.56-1.13s-.05.56-.56 1.13c-.43.48-1.32.96-1.62 1.12A4.506 4.506 0 0 0 453 246c0 2.49 2.01 4.5 4.5 4.5s4.5-2.01 4.5-4.5c0-1.69-.94-3.17-2.32-3.94zm-342.25-23.25c-.3-.16-1.18-.65-1.62-1.12-.52-.57-.56-1.13-.56-1.13s-.05.56-.56 1.13c-.43.48-1.32.96-1.62 1.12a4.506 4.506 0 0 0-2.32 3.94c0 2.49 2.01 4.5 4.5 4.5s4.5-2.01 4.5-4.5c0-1.69-.94-3.17-2.32-3.94zm45.5 0c-.3-.16-1.18-.65-1.62-1.12-.52-.57-.56-1.13-.56-1.13s-.05.56-.56 1.13c-.43.48-1.32.96-1.62 1.12a4.506 4.506 0 0 0-2.32 3.94c0 2.49 2.01 4.5 4.5 4.5s4.5-2.01 4.5-4.5c0-1.69-.94-3.17-2.32-3.94zm-45.7 15c-.3-.16-1.18-.65-1.62-1.12-.52-.57-.56-1.13-.56-1.13s-.05.56-.56 1.13c-.43.48-1.32.96-1.62 1.12a4.506 4.506 0 0 0-2.32 3.94c0 2.49 2.01 4.5 4.5 4.5s4.5-2.01 4.5-4.5c0-1.69-.94-3.17-2.32-3.94zm46 0c-.3-.16-1.18-.65-1.62-1.12-.52-.57-.56-1.13-.56-1.13s-.05.56-.56 1.13c-.43.48-1.32.96-1.62 1.12a4.506 4.506 0 0 0-2.32 3.94c0 2.49 2.01 4.5 4.5 4.5s4.5-2.01 4.5-4.5c0-1.69-.94-3.17-2.32-3.94zm-41.3 14.5c-.3-.16-1.18-.65-1.62-1.12-.52-.57-.56-1.13-.56-1.13s-.05.56-.56 1.13c-.43.48-1.32.96-1.62 1.12a4.506 4.506 0 0 0-2.32 3.94c0 2.49 2.01 4.5 4.5 4.5s4.5-2.01 4.5-4.5c0-1.69-.94-3.17-2.32-3.94zm38 0c-.3-.16-1.18-.65-1.62-1.12-.52-.57-.56-1.13-.56-1.13s-.05.56-.56 1.13c-.43.48-1.32.96-1.62 1.12a4.506 4.506 0 0 0-2.32 3.94c0 2.49 2.01 4.5 4.5 4.5s4.5-2.01 4.5-4.5c0-1.69-.94-3.17-2.32-3.94zm-26 7.65c-.3-.16-1.18-.65-1.62-1.12-.52-.57-.56-1.13-.56-1.13s-.05.56-.56 1.12c-.43.48-1.32.96-1.62 1.13a4.506 4.506 0 0 0-2.32 3.94c0 2.49 2.01 4.5 4.5 4.5s4.5-2.01 4.5-4.5c0-1.69-.94-3.17-2.32-3.94zm14-.15c-.3-.16-1.18-.65-1.62-1.12-.52-.57-.56-1.13-.56-1.13s-.05.56-.56 1.13c-.43.48-1.32.96-1.62 1.12a4.506 4.506 0 0 0-2.32 3.94c0 2.49 2.01 4.5 4.5 4.5s4.5-2.01 4.5-4.5c0-1.69-.94-3.17-2.32-3.94zm-24.5-49.45c-.3-.16-1.18-.65-1.62-1.12-.52-.57-.56-1.13-.56-1.13s-.05.56-.56 1.12c-.43.48-1.32.96-1.62 1.13a4.506 4.506 0 0 0-2.32 3.94c0 2.49 2.01 4.5 4.5 4.5s4.5-2.01 4.5-4.5c0-1.69-.94-3.17-2.32-3.94zm35-.05c-.3-.16-1.18-.65-1.62-1.12-.52-.57-.56-1.13-.56-1.13s-.05.56-.56 1.13c-.43.48-1.32.96-1.62 1.12a4.506 4.506 0 0 0-2.32 3.94c0 2.49 2.01 4.5 4.5 4.5s4.5-2.01 4.5-4.5c0-1.69-.94-3.17-2.32-3.94zm-24-5.5c-.3-.16-1.18-.65-1.62-1.12-.52-.57-.56-1.13-.56-1.13s-.05.56-.56 1.13c-.43.48-1.32.96-1.62 1.12a4.506 4.506 0 0 0-2.32 3.94c0 2.49 2.01 4.5 4.5 4.5s4.5-2.01 4.5-4.5c0-1.69-.94-3.17-2.32-3.94zm13 0c-.3-.16-1.18-.65-1.62-1.12-.52-.57-.56-1.13-.56-1.13s-.05.56-.56 1.13c-.43.48-1.32.96-1.62 1.12a4.506 4.506 0 0 0-2.32 3.94c0 2.49 2.01 4.5 4.5 4.5s4.5-2.01 4.5-4.5c0-1.69-.94-3.17-2.32-3.94zm-99.5 4.5c-.3-.16-1.18-.65-1.62-1.12-.52-.57-.56-1.13-.56-1.13s-.05.56-.56 1.13c-.43.48-1.32.96-1.62 1.12a4.506 4.506 0 0 0-2.32 3.94c0 2.49 2.01 4.5 4.5 4.5s4.5-2.01 4.5-4.5c0-1.69-.94-3.17-2.32-3.94zm-8 10c-.3-.16-1.18-.65-1.62-1.12-.52-.57-.56-1.13-.56-1.13s-.05.56-.56 1.13c-.43.48-1.32.96-1.62 1.12a4.506 4.506 0 0 0-2.32 3.94c0 2.49 2.01 4.5 4.5 4.5s4.5-2.01 4.5-4.5c0-1.69-.94-3.17-2.32-3.94zm-1.5 14.5c-.3-.16-1.18-.65-1.62-1.12-.52-.57-.56-1.13-.56-1.13s-.05.56-.56 1.13c-.43.48-1.32.96-1.62 1.12a4.506 4.506 0 0 0-2.32 3.94c0 2.49 2.01 4.5 4.5 4.5s4.5-2.01 4.5-4.5c0-1.69-.94-3.17-2.32-3.94zm1.5 13.75c-.3-.16-1.18-.65-1.62-1.12-.52-.57-.56-1.13-.56-1.13s-.05.56-.56 1.13c-.43.48-1.32.96-1.62 1.12a4.506 4.506 0 0 0-2.32 3.94c0 2.49 2.01 4.5 4.5 4.5s4.5-2.01 4.5-4.5c0-1.69-.94-3.17-2.32-3.94zm8.5 11.44c-.3-.16-1.18-.65-1.62-1.12-.52-.57-.56-1.13-.56-1.13s-.05.56-.56 1.13c-.43.48-1.32.96-1.62 1.12a4.506 4.506 0 0 0-2.32 3.94c0 2.49 2.01 4.5 4.5 4.5s4.5-2.01 4.5-4.5c0-1.7-.94-3.17-2.32-3.94zm21.5-53.19c-.3-.16-1.18-.65-1.62-1.12-.52-.57-.56-1.13-.56-1.13s-.05.56-.56 1.13c-.43.48-1.32.96-1.62 1.12a4.506 4.506 0 0 0-2.32 3.94c0 2.49 2.01 4.5 4.5 4.5s4.5-2.01 4.5-4.5c0-1.69-.94-3.17-2.32-3.94zm11.5 3.5c-.3-.16-1.18-.65-1.62-1.12-.52-.57-.56-1.13-.56-1.13s-.05.56-.56 1.13c-.43.48-1.32.96-1.62 1.12a4.506 4.506 0 0 0-2.32 3.94c0 2.49 2.01 4.5 4.5 4.5s4.5-2.01 4.5-4.5c0-1.69-.94-3.17-2.32-3.94zm-16.5 52.19c-.3-.16-1.18-.65-1.62-1.12-.52-.57-.56-1.13-.56-1.13s-.05.56-.56 1.12c-.43.48-1.32.96-1.62 1.13a4.506 4.506 0 0 0-2.32 3.94c0 2.49 2.01 4.5 4.5 4.5s4.5-2.01 4.5-4.5c0-1.7-.94-3.17-2.32-3.94zm24-5c-.3-.16-1.18-.65-1.62-1.12-.52-.57-.56-1.13-.56-1.13s-.05.56-.56 1.13c-.43.48-1.32.96-1.62 1.12a4.506 4.506 0 0 0-2.32 3.94c0 2.49 2.01 4.5 4.5 4.5s4.5-2.01 4.5-4.5c0-1.7-.94-3.17-2.32-3.94zm0-14c-.3-.16-1.18-.65-1.62-1.12-.52-.57-.56-1.13-.56-1.13s-.05.56-.56 1.13c-.43.48-1.32.96-1.62 1.12a4.506 4.506 0 0 0-2.32 3.94c0 2.49 2.01 4.5 4.5 4.5s4.5-2.01 4.5-4.5c0-1.7-.94-3.17-2.32-3.94zm-30-38.04c-.3-.16-1.18-.65-1.62-1.12-.52-.57-.56-1.13-.56-1.13s-.05.56-.56 1.12c-.43.48-1.32.96-1.62 1.13a4.506 4.506 0 0 0-2.32 3.94c0 2.49 2.01 4.5 4.5 4.5s4.5-2.01 4.5-4.5c0-1.69-.94-3.17-2.32-3.94z" fill="#f8b391" opacity=".6"/><path class="st7" d="M254.25 21.71c.03.04.07.07.1.11 5.36 5.88 14.22 11.16 21.34 15.11l.36.2c14.31 7.94 23.21 23.03 23.21 39.38 0 1.37-.07 2.82-.21 4.29l-.68 7.19 6.87 2.22 181.12 58.58c5.7 1.84 10.9 8.98 10.9 14.98v108.5c0 5.99-5.19 13.13-10.9 14.98l-217.75 70.42c-3.63 1.17-8.86 1.85-14.36 1.85-5.49 0-10.73-.67-14.36-1.85L22.15 287.23c-5.7-1.84-10.9-8.98-10.9-14.98v-108.5c0-5.99 5.19-13.13 10.9-14.98L203.27 90.2l6.87-2.22-.68-7.19a45.58 45.58 0 0 1-.21-4.29c0-16.35 8.89-31.44 23.2-39.38l.35-.2c7.12-3.94 15.98-9.23 21.34-15.11.04-.03.08-.07.11-.1m0-19.46s-.55 6.69-6.75 13.5c-5.22 5.73-15.87 11.54-19.41 13.5-16.6 9.21-27.84 26.92-27.84 47.25 0 1.73.09 3.44.25 5.14L19.38 140.21c-9.42 3.05-17.13 13.64-17.13 23.54v108.5c0 9.9 7.71 20.49 17.13 23.54l217.75 70.42c4.71 1.52 10.92 2.28 17.13 2.28s12.42-.76 17.13-2.28l217.75-70.42c9.42-3.05 17.13-13.64 17.13-23.54v-108.5c0-9.9-7.71-20.49-17.13-23.54L308 81.64c.16-1.69.25-3.4.25-5.14 0-20.33-11.24-38.04-27.84-47.25-3.54-1.96-14.19-7.77-19.41-13.5-6.2-6.8-6.75-13.5-6.75-13.5z"/><path class="st7" d="M271.68 44.99l-.35-.2c-5.35-2.97-11.64-6.66-17.07-10.93-5.43 4.27-11.72 7.96-17.08 10.93l-.35.19c-11.45 6.35-18.57 18.43-18.57 31.51 0 19.85 16.15 36 36 36s36-16.15 36-36c-.01-13.07-7.13-25.15-18.58-31.5z"/><path d="M267.31 52.86l-.35-.19c-3.73-2.06-8.23-4.65-12.71-7.68-4.48 3.03-8.99 5.62-12.72 7.69l-.35.19c-8.59 4.77-13.93 13.83-13.93 23.64 0 14.89 12.11 27 27 27s27-12.11 27-27c0-9.82-5.34-18.88-13.94-23.65z" fill="#f58c5a"/><path d="M272.25 76.5c0-6.54-3.57-12.59-9.31-15.77l-.35-.19c-2.38-1.32-5.27-2.95-8.35-4.85-3.08 1.9-5.97 3.53-8.36 4.85l-.34.19c-5.73 3.18-9.3 9.22-9.3 15.77 0 9.93 8.07 18 18 18s18.01-8.07 18.01-18z" fill="#f8b391"/><path d="M263.25 76.5c0-3.28-1.79-6.3-4.67-7.9l-.34-.19c-1.15-.64-2.5-1.39-3.99-2.25-1.49.86-2.84 1.61-4 2.25l-.34.19a9.044 9.044 0 0 0-4.66 7.9c0 4.96 4.04 9 9 9s9-4.04 9-9z" fill="#fce0d3"/></svg>