<svg xmlns="http://www.w3.org/2000/svg" width="120" height="120" viewBox="0 0 120 120"><path fill="#211D63" d="M110 0H10C4.49 0 0 4.48 0 10v100c0 5.51 4.48 10 10 10h100c5.51 0 10-4.48 10-10V10c0-5.51-4.48-10-10-10zm3 110c0 1.65-1.35 3-3 3H10c-1.65 0-3-1.35-3-3V10c0-1.65 1.35-3 3-3h100c1.65 0 3 1.35 3 3v100z"/><path fill="#008BA4" d="M79.259 93.968c-.234.234-.711.577-1.431 1.029-.72.452-1.808.954-3.265 1.507-1.457.552-2.871.896-4.244 1.029-1.675.101-3.332.176-4.972.226-1.641.05-3.357-.159-5.148-.627-1.792-.469-3.257-1.239-4.395-2.311-.269-.335-.394-.67-.376-1.004a1.08 1.08 0 0 1 .376-.804c.502-.402.937-.603 1.306-.603.268 0 .485.067.653.201 2.143 1.64 5.374 2.461 9.693 2.461 2.478 0 4.671-.285 6.579-.854 1.909-.57 3.365-1.223 4.37-1.959.636-.469 1.037-.385 1.205.251.168.57.051 1.056-.351 1.458zm-2.31-5.525c-.335.134-.544.151-.628.05-.084-.101-.293-.435-.628-1.004-.268-.502-.494-.87-.678-1.105-.185-.234-.57-.477-1.155-.728-.586-.251-1.331-.377-2.235-.377-.369 0-.712.018-1.03.05a8.228 8.228 0 0 0-.829.125c-.234.05-.486.125-.753.226-.268.101-.477.185-.627.251a3.63 3.63 0 0 0-.578.352c-.235.168-.402.285-.502.352-.1.068-.276.21-.527.427-.251.218-.427.36-.527.427-.771.67-1.298 1.063-1.582 1.18-.285.118-.578.042-.879-.226-.469-.669-.268-1.406.603-2.209 1.64-1.473 2.946-2.411 3.917-2.813.804-.334 1.992-.502 3.566-.502 1.774 0 3.046.251 3.817.753.669.469 1.322 1.49 1.959 3.063.3.737.065 1.306-.704 1.708zm17.804-10.497c-.486 2.009-1.198 3.7-2.135 5.073-1.072 1.541-2.001 2.595-2.787 3.164-.787.57-1.767.803-2.938.703-.67-.033-1.6-.569-2.788-1.607a37.894 37.894 0 0 1-3.415-3.39 27.42 27.42 0 0 0-3.591-3.365c-1.306-1.021-2.394-1.548-3.264-1.582-1.072-.033-2.629.486-4.671 1.557a73.727 73.727 0 0 0-6.027 3.541c-1.976 1.29-4.219 2.478-6.73 3.566-2.511 1.088-4.721 1.632-6.629 1.632-2.344 0-4.077-.142-5.198-.427a9.663 9.663 0 0 1-3.139-1.431c-2.545-1.741-3.784-4.486-3.717-8.237.067-3.381 1.473-6.37 4.219-8.965 2.745-2.594 6.043-3.909 9.894-3.942 1.841-.033 3.699.285 5.575.954 1.875.67 3.549 1.49 5.022 2.461 1.473.972 2.871 1.942 4.194 2.913a34.184 34.184 0 0 0 3.817 2.461c1.222.67 2.285.988 3.189.954 1.206 0 2.896-.703 5.073-2.109 2.176-1.406 4.335-2.804 6.479-4.193 2.143-1.389 3.767-2.084 4.872-2.084 1.004 0 1.883.235 2.637.703a4.614 4.614 0 0 1 1.708 1.833c.384.753.661 1.506.829 2.26.167.753.251 1.499.251 2.235-.002 1.539-.245 3.314-.73 5.322zm2.411-22.274c-.653-2.863-1.44-5.349-2.36-7.458a35.018 35.018 0 0 0-3.466-6.127c-1.39-1.975-2.645-3.566-3.767-4.771a37.342 37.342 0 0 0-3.817-3.541c-1.423-1.155-2.436-1.934-3.039-2.335a71.082 71.082 0 0 0-1.958-1.255c-1.44-.904-3.6-2.009-6.479-3.315-2.88-1.306-5.056-2.443-6.529-3.415-1.909-1.272-5.022-4.503-9.342-9.693-.268 2.712-.771 4.813-1.506 6.303-.737 1.49-1.708 2.705-2.913 3.641a39.506 39.506 0 0 1-3.039 2.21 49.323 49.323 0 0 1-2.411 1.507c-.586.335-1.499.812-2.737 1.431-1.239.62-2.093 1.063-2.562 1.331-.636.335-1.348.746-2.134 1.23-.787.486-1.867 1.264-3.239 2.335a42.98 42.98 0 0 0-3.943 3.49c-1.255 1.256-2.57 2.83-3.942 4.721a37.703 37.703 0 0 0-3.541 5.952c-.988 2.076-1.808 4.512-2.461 7.307A38.034 38.034 0 0 0 21 63.884c0 5.357 1.071 10.414 3.214 15.167 2.142 4.755 4.997 8.798 8.563 12.129s7.709 5.959 12.43 7.885a38.61 38.61 0 0 0 14.715 2.888c5.089 0 9.952-.904 14.59-2.712 4.637-1.808 8.697-4.312 12.179-7.509 3.482-3.197 6.261-7.148 8.337-11.853 2.076-4.704 3.114-9.801 3.114-15.293a39.97 39.97 0 0 0-.978-8.914z"/><path clip-rule="evenodd" fill="none" d="M120 10v100c0 5.52-4.49 10-10 10H10c-5.52 0-10-4.49-10-10V10C0 4.48 4.49 0 10 0h100c5.52 0 10 4.49 10 10z"/><ellipse fill="#9596B6" cx="60" cy="107" rx="27.333" ry="1.952"/></svg>