<svg xmlns="http://www.w3.org/2000/svg" width="120" height="120" viewBox="0 0 120 120"><path fill="#F5433D" d="M110 0H10C4.49 0 0 3.98 0 9.5v100c0 5.51 4.48 10.5 10 10.5h100c5.51 0 10-4.98 10-10.5V9.5c0-5.51-4.48-9.5-10-9.5zm3 110a3 3 0 0 1-3 3H10a3 3 0 0 1-3-3V10a3 3 0 0 1 3-3h100a3 3 0 0 1 3 3v100z"/><path fill="#FAE3BC" d="M106 37.107V21.732H65.75L29.875 33.197 49 21.732H37.625L14 42.482v7.625l10.064-11.898L14 62.857v20.125h11l1.926-44.571L37 71.982l13-4-18.419-28.081 34.794 21.081L74.5 45.607 35 37.37l-2-1.638z"/><path fill="#211D63" d="M14 98.268h91.583V59.21L78.654 32.739 45.525 65.021 35.263 55.008 14 76.174z"/><path fill-rule="evenodd" clip-rule="evenodd" fill="#F1A122" d="M26.689 47.111c7.009 0 12.689-5.682 12.689-12.69s-5.681-12.689-12.689-12.689C19.682 21.732 14 27.413 14 34.421s5.682 12.69 12.689 12.69z"/></svg>