<svg xmlns="http://www.w3.org/2000/svg" width="120" height="120" viewBox="0 0 120 120"><path fill="#DE2561" d="M68.291 29.803c-5.563-2.345-11.611-3.517-18.148-3.517s-12.587 1.172-18.148 3.517c-5.563 2.345-9.951 5.536-13.168 9.574C15.608 43.416 14 47.814 14 52.571c0 4.073 1.215 7.906 3.646 11.5 2.43 3.594 5.767 6.623 10.011 9.087a28.232 28.232 0 0 1-1.053 2.259 12.904 12.904 0 0 1-1.283 1.977c-.496.634-.882 1.13-1.155 1.489-.274.359-.719.864-1.335 1.515s-1.01 1.078-1.181 1.283c-.034.034-.103.111-.205.231s-.18.205-.231.257c-.051.051-.12.137-.205.256a2.369 2.369 0 0 0-.18.283l-.128.256c-.052.104-.086.206-.104.309s-.025.214-.025.334.017.23.052.333c.068.445.265.805.59 1.078.325.274.676.411 1.053.411h.154c1.711-.239 3.183-.514 4.415-.821 5.271-1.369 10.028-3.56 14.272-6.571 3.08.548 6.092.821 9.035.821 6.537 0 12.586-1.172 18.148-3.517 5.562-2.345 9.951-5.536 13.169-9.575 3.217-4.038 4.826-8.437 4.826-13.194 0-4.757-1.609-9.155-4.826-13.194-3.218-4.039-7.607-7.231-13.169-9.575z"/><path fill="#DE2561" d="M102.149 53.906c-2.566-3.662-6.058-6.708-10.473-9.139a26.522 26.522 0 0 1 1.181 7.804c0 4.587-1.147 8.934-3.44 13.04-2.293 4.107-5.579 7.735-9.856 10.884-3.971 2.875-8.489 5.083-13.554 6.623-5.065 1.54-10.354 2.311-15.864 2.311-1.026 0-2.533-.068-4.518-.205C52.505 89.741 60.582 92 69.857 92c2.943 0 5.955-.273 9.035-.821 4.244 3.011 9.002 5.202 14.272 6.571 1.232.308 2.703.582 4.415.821.411.034.787-.086 1.13-.359.342-.274.564-.65.667-1.129.034-.104.052-.215.052-.334 0-.12-.009-.231-.025-.334a1.132 1.132 0 0 0-.104-.308c-.051-.103-.095-.188-.128-.257a2.266 2.266 0 0 0-.18-.282 2.147 2.147 0 0 0-.205-.257 5.066 5.066 0 0 1-.231-.257 6.24 6.24 0 0 0-.205-.231 35.19 35.19 0 0 0-1.181-1.283c-.616-.65-1.062-1.155-1.335-1.515-.274-.359-.659-.854-1.155-1.488-.496-.633-.924-1.292-1.283-1.977s-.711-1.438-1.053-2.259c4.243-2.465 7.58-5.485 10.011-9.062S106 69.821 106 65.714c0-4.209-1.283-8.145-3.851-11.808z"/><path fill="#211D63" d="M77.956 28.747l-1.297-.75c-.095-.055-9.662-5.5-24.757-6.417-15.023-.912-28.033 6.35-28.162 6.424l-1.304.739-1.48-2.607 1.303-.741c.559-.318 13.887-7.783 29.825-6.809 15.852.962 25.672 6.578 26.082 6.816l1.295.753-1.505 2.592zM70.748 99.57c-3.38 0-8.795-.2-13.736-1.265-7.822-1.688-14.528-5.858-14.81-6.035l-1.27-.797 1.594-2.54 1.271.796c.064.04 6.556 4.071 13.847 5.644 7.372 1.588 16.187 1.134 16.275 1.129l1.498-.081.162 2.996-1.498.081c-.137.007-1.403.072-3.333.072z"/><path fill="#015365" d="M110 0H10C4.49 0 0 4.48 0 10v100c0 5.51 4.48 10 10 10h100c5.51 0 10-4.48 10-10V10c0-5.51-4.48-10-10-10zm3 110c0 1.65-1.35 3-3 3H10c-1.65 0-3-1.35-3-3V10c0-1.65 1.35-3 3-3h100c1.65 0 3 1.35 3 3v100z"/></svg>