<svg xmlns="http://www.w3.org/2000/svg" width="120" height="120" viewBox="0 0 120 120"><path fill="#9D003A" d="M110 0H10C4.49 0 0 4.48 0 10v100c0 5.51 4.48 10 10 10h100c5.51 0 10-4.48 10-10V10c0-5.51-4.48-10-10-10zm3 110c0 1.65-1.35 3-3 3H10c-1.65 0-3-1.35-3-3V10c0-1.65 1.35-3 3-3h100c1.65 0 3 1.35 3 3v100z"/><path fill="none" d="M120 110c0 5.52-4.49 10-10 10H10c-5.52 0-10-4.49-10-10V10C0 4.48 4.49 0 10 0h100c5.52 0 10 4.49 10 10v100z"/><path fill="#DD970A" d="M95.348 22.651c-.958-.957-2.122-1.438-3.49-1.438H65.571v-3.285c0-.89-.325-1.66-.976-2.311-.65-.649-1.42-.976-2.311-.976h-6.571c-.891 0-1.661.326-2.311.976-.65.65-.975 1.421-.975 2.311v3.285h-29.57c-.89 0-1.66.326-2.31.976-.65.65-.976 1.421-.976 2.311v13.143c0 .891.325 1.661.976 2.311.65.65 1.42.976 2.31.976h69c1.368 0 2.532-.479 3.49-1.438l7.239-7.239c.342-.342.514-.735.514-1.181 0-.444-.172-.838-.514-1.181l-7.238-7.24zm-42.919 80.706c0 .89.325 1.659.975 2.31.65.65 1.42.976 2.311.976h6.571c.891 0 1.66-.325 2.311-.976s.976-1.42.976-2.31V77.071H52.429v26.286zm13.142-49.286v-9.857H52.429v9.857H26.143c-1.369 0-2.533.479-3.491 1.438l-7.239 7.239c-.343.342-.514.736-.514 1.181 0 .445.171.839.514 1.181l7.239 7.239c.958.958 2.122 1.438 3.491 1.438h69c.89 0 1.66-.325 2.311-.976s.976-1.42.976-2.311V57.357c0-.89-.325-1.66-.976-2.311-.65-.649-1.421-.976-2.311-.976H65.571v.001z"/><path fill="#211D63" d="M89.43 28l-3.83 7H25l4.43-7z"/><path clip-rule="evenodd" fill="none" d="M89.43 28l-3.83 7H25l4.43-7z"/><path fill="#211D63" d="M90.43 68h-60.6L26 61h60z"/><path clip-rule="evenodd" fill="none" d="M90.43 68h-60.6L26 61h60z"/></svg>