<svg id="Layer_1" xmlns="http://www.w3.org/2000/svg" viewBox="0 0 365.3 78"><style>.st5{fill:#e26c78}.st15{fill:#29abab}</style><path d="M54.3 50.7c-.1-5.6-1.7-10-4.2-13.9L45.2 39l9.1 11.7z" fill="#cea844"/><path d="M38.2 62.6l12-3.4 3.1-.9c.7-2.3 1-4.8 1-7.3v-.3l-9.1-11.8-7.4 23.5.4.2zm-.1.2l.1-.2z" fill="#a2c7bd"/><path d="M37.9 62.4l7.4-23.5-29.9 13.5z" fill="#f8d22b"/><path d="M15.4 52.4l10.1 13 12.7-2.8-.3-.2z" fill="#249ea2"/><path d="M25.5 65.4l-12.7 2.8 6.7 8.6c2.5.7 5.1 1.1 7.8 1.1 1.8 0 3.6-.2 5.3-.5l5.6-14.6.1-.3-12.8 2.9z" fill="#e7d990"/><path class="st5" d="M38.2 62.6l-.1.3-5.6 14.6c4.7-.9 9-3.1 12.5-6.1l-6.8-8.8z"/><path d="M49.1 59.5l1.1-.3-12 3.4 6.8 8.8c1.4-1.2 2.7-2.6 3.8-4.1l.3-7.8z" fill="#65a8ac"/><path d="M49.1 59.5l-.3 7.7c2-2.6 3.6-5.7 4.5-9l-3.1.9-1.1.4z" fill="#246068"/><path d="M50.2 36.8c-2.1-3.3-4.8-6.2-7.5-9L45.3 39l4.9-2.2z" fill="#5fb2ac"/><path class="st5" d="M15.4 52.4l29.8-13.5-2.6-11.2-.2-.2-11.1 10.3-15.9 14.6z"/><path d="M12.8 68.3l12.8-2.8-10-13-9.4 15.6c.3.5.8.9 1.2 1.3l5.4-1.1z" fill="#e6d2c8"/><path d="M.1 53.7c.6 5.4 2.7 10.4 6 14.4l9.3-15.7L.1 53.7z" fill="#2e686f"/><path d="M31.3 37.8l11.1-10.3-.3-.3-22.8-7.5c-.3.3-.5.6-.8.9l12.8 17.2z" fill="#d8b757"/><path d="M12.8 68.3l-5.4 1.2c3.2 3.4 7.4 6.1 12 7.4l-6.6-8.6z" fill="#2cb5b0"/><path d="M16.2 38.8l-.7 13.6 15.8-14.7-12.8-17c-.4.5-.9 1-1.4 1.5l-.8 14.2-.1 2.4z" fill="#f2806d"/><path d="M29.8 11.9l-8.1 4.6c-.8 1.1-1.6 2.2-2.5 3.2L42 27.2c-4.5-4.7-9.3-9.2-12.2-15.3z" fill="#e6d4c4"/><path class="st15" d="M16.2 38.8L1.7 41.6c-.6 1.4-1 2.9-1.3 4.5l15 6.2.8-13.5z"/><path d="M.4 46.2C.2 47.7 0 49.3 0 51c0 .9 0 1.9.1 2.8l15.3-1.3-15-6.3z" fill="#fa8777"/><path d="M16.2 38.8l.1-2.4-9.1-3.8c-2.3 2.7-4.2 5.6-5.5 9l14.5-2.8z" fill="#b6cec5"/><path d="M16.3 36.4l.8-14.2c-3.3 3.5-6.8 6.8-9.9 10.5l9.1 3.7z" fill="#d395a0"/><path d="M27.2 0c0 6.8-2.2 12-5.4 16.5l8.1-4.6C28.2 8.5 27.2 4.6 27.2 0z" fill="#a86264"/><path class="st15" d="M75.8 44.8V20.1h9.7c7.7 0 13.1 4.9 13.1 12.4 0 7.4-5.4 12.3-13.1 12.3h-9.7zm17.5-12.4c0-4.4-2.7-7.7-7.7-7.7h-4.5v15.4h4.5c4.9 0 7.7-3.5 7.7-7.7zm8.6 12.4V20.1h17.5v4.6h-12.2v5.2h12v4.6h-12v5.6h12.2v4.6h-17.5zm19.7-3.5l2.9-4c1.7 1.8 4.4 3.3 7.8 3.3 2.9 0 4.3-1.3 4.3-2.7 0-4.4-14.2-1.4-14.2-10.7 0-4.1 3.6-7.5 9.4-7.5 3.9 0 7.2 1.2 9.6 3.4l-2.9 3.9c-2-1.9-4.7-2.7-7.2-2.7-2.3 0-3.5 1-3.5 2.5 0 3.9 14.2 1.3 14.2 10.5 0 4.5-3.2 7.9-9.9 7.9-4.8 0-8.2-1.6-10.5-3.9zm23.6 3.5V20.1h5.3v24.7h-5.3zm8.5-12.4c0-7.8 5.9-12.8 13.1-12.8 5.1 0 8.4 2.6 10.2 5.5l-4.4 2.4c-1.1-1.7-3.2-3.2-5.8-3.2-4.5 0-7.7 3.4-7.7 8.1s3.3 8.1 7.7 8.1c2.2 0 4.3-1 5.3-1.9v-3h-6.5V31h11.8v9.5c-2.5 2.8-6 4.7-10.5 4.7-7.3.1-13.2-5-13.2-12.8zm44.7 12.4l-11.8-16.1v16.1h-5.3V20.1h5.4l11.4 15.5V20.1h5.3v24.7h-5zm30.9 0V20.1h9.7c7.7 0 13.1 4.9 13.1 12.4 0 7.4-5.4 12.3-13.1 12.3h-9.7zm17.5-12.4c0-4.4-2.7-7.7-7.7-7.7h-4.5v15.4h4.5c4.9 0 7.7-3.5 7.7-7.7zm22.6 12.4l-4.8-8.8h-3.8v8.8h-5.3V20.1H267c5.1 0 8.3 3.4 8.3 8 0 4.4-2.7 6.7-5.4 7.3l5.6 9.4h-6.1zm.5-16.8c0-2.1-1.6-3.3-3.7-3.3h-5.5v6.7h5.5c2.1 0 3.7-1.3 3.7-3.4zm8.6 6.9V20.1h5.3v14.7c0 3.4 2 5.8 5.8 5.8s5.8-2.4 5.8-5.8V20.1h5.4v14.8c0 6.1-3.6 10.3-11.1 10.3-7.6 0-11.2-4.2-11.2-10.3zm26.7 9.9V20.1h11.5c5.4 0 8.3 3.6 8.3 8 0 4.3-3 8-8.3 8h-6.3v8.8h-5.2zM319.7 28c0-2.1-1.6-3.3-3.6-3.3h-5.6v6.7h5.6c2.1 0 3.6-1.3 3.6-3.4zm22.1 16.8l-1.5-4.2h-10.6l-1.6 4.2h-6l9.6-24.7h6.6l9.5 24.7h-6zM335 25.3L331.2 36h7.7L335 25.3zm14.7 19.5V20.1h5.3v20.1h10.4v4.6h-15.7z"/><path d="M217.9 44.8v-5.1h-11.8v-4.1l9.8-15.4h7.3v15h3.2v4.6h-3.2v5.1h-5.3zm0-20.1L211.2 35h6.7V24.7zM76.4 52.9h10.4c3.8 0 5.7 2.4 5.7 5.1 0 2.5-1.5 4.2-3.4 4.5 2.1.3 3.8 2.4 3.8 4.9 0 3-2 5.3-5.8 5.3H76.4V52.9zm9.5 7.9c1.4 0 2.3-.9 2.3-2.2 0-1.2-.9-2.2-2.3-2.2h-5.3v4.4h5.3zm.2 8.3c1.6 0 2.6-.9 2.6-2.3 0-1.2-.9-2.3-2.6-2.3h-5.4v4.7h5.4zm19.4-16.6c6 0 10.4 4.3 10.4 10.2S111.5 73 105.5 73s-10.3-4.3-10.3-10.2 4.4-10.3 10.3-10.3zm0 3.8c-3.7 0-6 2.8-6 6.5s2.3 6.5 6 6.5 6-2.8 6-6.5c.1-3.7-2.3-6.5-6-6.5zm14.3 10.4c1.4 1.5 3.6 2.7 6.3 2.7 2.3 0 3.4-1.1 3.4-2.2 0-1.5-1.7-2-4-2.5-3.2-.7-7.4-1.6-7.4-6.1 0-3.3 2.9-6 7.5-6 3.1 0 5.8 1 7.7 2.8l-2.3 3.1c-1.6-1.5-3.7-2.2-5.7-2.2-1.9 0-2.9.8-2.9 2 0 1.3 1.7 1.8 4 2.3 3.3.7 7.4 1.7 7.4 6.1 0 3.6-2.6 6.4-7.9 6.4-3.8 0-6.5-1.3-8.4-3.1l2.3-3.3zm21.3-10.1h-5.8v-3.7h15.8v3.7h-5.8v16.1h-4.2V56.6zm21.3-4.1c6 0 10.4 4.3 10.4 10.2S168.4 73 162.4 73s-10.3-4.3-10.3-10.2 4.4-10.3 10.3-10.3zm0 3.8c-3.7 0-6 2.8-6 6.5s2.3 6.5 6 6.5 6-2.8 6-6.5c.1-3.7-2.3-6.5-6-6.5zm17.6 3.1v13.3h-4.2V52.9h4.3l9.2 12.8V52.9h4.2v19.8h-4.1L180 59.4z" fill="#2c7b80"/><path class="st15" d="M201.9 72.3v-3.2c7.9-5.8 10.2-7.8 10.2-10.2 0-1.7-1.5-2.5-3.1-2.5-2.2 0-3.9.9-5.2 2.2l-2.3-2.7c1.9-2.2 4.7-3.1 7.4-3.1 4.1 0 7.4 2.3 7.4 6.1 0 3.3-2.7 6.1-7.7 9.8h7.8v3.6h-14.5zm16.9-9.6c0-5 2.5-9.9 8-9.9s8 5 8 9.9c0 5-2.5 10-8 10s-8-5-8-10zm11.7 0c0-3.5-1-6.3-3.8-6.3-2.7 0-3.8 2.7-3.8 6.3 0 3.5 1 6.3 3.8 6.3s3.8-2.7 3.8-6.3zm11.1 9.6v-14l-3.2 3.3-2.3-2.5 6.1-6.1h3.6v19.2h-4.2zm8.3-5c0-2.3 1.8-4.1 4.1-4.9-2.1-.8-3.8-2.1-3.8-4.5 0-3.6 3.8-5.1 7.4-5.1 3.5 0 7.4 1.4 7.4 5.1 0 2.4-1.7 3.8-3.8 4.5 2.3.8 4.1 2.6 4.1 4.9 0 3.6-3.7 5.3-7.7 5.3s-7.7-1.7-7.7-5.3zm11.3-.5c0-1.6-2.4-2.3-3.6-2.5-1.2.2-3.6.9-3.6 2.5 0 1.4 1.6 2.3 3.6 2.3 2-.1 3.6-1 3.6-2.3zm-.4-8.2c0-1.4-1.4-2.1-3.2-2.1-1.9 0-3.3.8-3.3 2.1 0 1.4 2.1 2 3.3 2.2 1.2-.2 3.2-.8 3.2-2.2z"/></svg>