<?xml version="1.0" encoding="utf-8"?>
<!-- Generator: Adobe Illustrator 21.0.2, SVG Export Plug-In . SVG Version: 6.00 Build 0)  -->
<svg version="1.1" id="Layer_1" xmlns="http://www.w3.org/2000/svg" xmlns:xlink="http://www.w3.org/1999/xlink" x="0px" y="0px"
	 width="100px" height="100px" viewBox="0 0 100 100" style="enable-background:new 0 0 100 100;" xml:space="preserve">
<style type="text/css">
	.st0{fill:#0A5365;}
</style>
<g>
	<g>
		<g>
			<g>
				<path class="st0" d="M95.6,44.7l-3.8,0l0-0.3l0.1-41.3L5.1,3L4.9,71.7l28.5,0.1l0,8.6l-5.7,0l0,3.3l30.4,0.1l0,13.9l37.4,0.1
					L95.6,44.7z M8.1,68.4l0-8.6l50.1,0.1l0,8.6L8.1,68.4z M36.6,80.3l0-8.6l21.6,0l0,8.6L36.6,80.3z M58.2,44.7l0,11.9L8.1,56.5
					L8.2,6.3l0.3,0l80.2,0.1l0,0.3l-0.1,38L58.2,44.7z M61.4,48l31.1,0l0,4.6l-31.1-0.1L61.4,48z M61.4,55.9L92.4,56l0,28.4l-31.1,0
					L61.4,55.9z M92,94.3l-30.8-0.1l0-6.6l31.1,0l0,6.6L92,94.3z"/>
			</g>
		</g>
		<g>
			<g>
				<g>
					<polygon class="st0" points="29.5,29 17.7,16.6 17.7,23.3 14.5,23.3 14.5,10.9 26.4,11 26.4,14.3 19.9,14.3 31.8,26.6 					"/>
					<path class="st0" d="M17.7,23.3l-3.2,0l0-12.4l11.9,0l0,3.3l-6.5,0l11.8,12.4L29.5,29L17.7,16.6L17.7,23.3z"/>
				</g>
			</g>
		</g>
		<g>
			<g>
				<g>
					<polygon class="st0" points="38.5,49.9 26.7,49.9 26.7,46.6 33.1,46.6 21.3,34.2 23.6,31.9 35.4,44.3 35.4,37.6 38.6,37.6 
											"/>
					<path class="st0" d="M33.1,46.6L21.3,34.2l2.2-2.3l11.8,12.4l0-6.7l3.2,0l0,12.4l-11.9,0l0-3.3L33.1,46.6z"/>
				</g>
			</g>
		</g>
	</g>
</g>
</svg>
