<?xml version="1.0" encoding="utf-8"?>
<!-- Generator: Adobe Illustrator 21.0.2, SVG Export Plug-In . SVG Version: 6.00 Build 0)  -->
<svg version="1.1" id="Layer_1" xmlns="http://www.w3.org/2000/svg" xmlns:xlink="http://www.w3.org/1999/xlink" x="0px" y="0px"
	 width="100px" height="100px" viewBox="0 0 100 100" style="enable-background:new 0 0 100 100;" xml:space="preserve">
<style type="text/css">
	.st0{fill:#0A5365;}
</style>
<g>
	<g>
		<path class="st0" d="M77.1,67.3c-5.3,0-9.6,4.3-9.6,9.6s4.3,9.6,9.6,9.6c5.3,0,9.6-4.3,9.6-9.6S82.3,67.3,77.1,67.3z M77.1,83.2
			c-3.5,0-6.4-2.9-6.4-6.4c0-3.5,2.9-6.4,6.4-6.4c3.5,0,6.4,2.9,6.4,6.4C83.4,80.3,80.6,83.2,77.1,83.2z"/>
	</g>
</g>
<g>
	<g>
		<path class="st0" d="M33.6,18.2L31.4,16L20.2,27.1c-0.6,0.6-0.6,1.6,0,2.3l11.1,11.1l2.3-2.3l-10-10L33.6,18.2z"/>
	</g>
</g>
<g>
	<g>
		<path class="st0" d="M68.7,27.1L57.5,16l-2.3,2.3l10,10l-10,10l2.3,2.3l11.1-11.1C69.3,28.7,69.3,27.7,68.7,27.1z"/>
	</g>
</g>
<g>
	<g>
		<rect x="28.4" y="25.1" transform="matrix(0.4472 -0.8944 0.8944 0.4472 0.7315 54.4706)" class="st0" width="32" height="3.2"/>
	</g>
</g>
<g>
	<rect x="64.3" y="37.8" class="st0" width="3.2" height="3.2"/>
</g>
<g>
	<rect x="70.7" y="37.8" class="st0" width="3.2" height="3.2"/>
</g>
<g>
	<rect x="77.1" y="37.8" class="st0" width="3.2" height="3.2"/>
</g>
<rect x="91.6" y="44.6" class="st0" width="0.3" height="2.9"/>
<path class="st0" d="M91.6,44.6v2.9h0.3v-2.9H91.6z"/>
<path class="st0" d="M94.6,72.2h-2.3c-0.1,0-0.1-0.1-0.1-0.1c-0.3-0.9-0.6-1.7-1.1-2.6c0-0.1,0-0.1,0-0.2l1.6-1.6
	c0.6-0.6,0.6-1.5,0-2.1l-3.8-3.8h5.6V4H5.1v57.9h28.1l-4.7,10.4h-9V83h43.1c0.2,0.4,0.3,0.7,0.5,1.1c0,0.1,0,0.1,0,0.2l-1.6,1.7
	c-0.6,0.6-0.6,1.5,0,2l4.5,4.5c0.6,0.6,1.5,0.6,2.1,0l1.6-1.7c0.1,0,0.1-0.1,0.2,0c0.8,0.4,1.7,0.8,2.6,1.1c0.1,0,0.1,0.1,0.1,0.1
	v2.3c0,0.8,0.6,1.4,1.4,1.4h6.4c0.8,0,1.4-0.7,1.4-1.4V92c0-0.1,0-0.1,0.1-0.1c0.9-0.3,1.7-0.6,2.6-1.1c0.1,0,0.1,0,0.2,0l1.6,1.6
	c0.6,0.6,1.5,0.6,2.1,0l4.5-4.5c0.6-0.6,0.6-1.5,0-2.1l-1.6-1.6c0,0-0.1-0.1,0-0.2c0.4-0.8,0.8-1.7,1.1-2.6c0-0.1,0.1-0.1,0.1-0.1
	h2.3c0.8,0,1.4-0.6,1.4-1.4v-6.4C96,72.8,95.4,72.2,94.6,72.2z M8,6.9h83.6v37.7H8V6.9z M8,59V47.5h83.6V59H8z M85.5,61.9l-0.9,0.9
	c-0.1,0.1-0.1,0.1-0.2,0c-0.7-0.4-1.5-0.7-2.3-1H85.5z M72.1,61.9c-0.8,0.3-1.6,0.6-2.3,1c-0.1,0-0.1,0-0.2,0l-0.9-1H72.1z
	 M36.3,61.9h27l0.6,1.3l-2.5,2.5c-0.6,0.6-0.6,1.5,0,2.1l1.6,1.7c0.1,0,0.1,0.1,0,0.2c-0.4,0.8-0.8,1.7-1.1,2.6
	c0,0.1-0.1,0.1-0.1,0.1l-30.3,0.1L36.3,61.9z M22.3,80.1V75h35.8v5c0,0,0,0.1,0,0.1H22.3z M93.1,78.6h-0.9c-1.3,0-2.5,0.9-2.9,2.1
	c-0.2,0.7-0.5,1.4-0.9,2.1c-0.6,1.2-0.4,2.6,0.5,3.6l0.6,0.6l-2.5,2.5l-0.6-0.6c-0.9-0.9-2.4-1.2-3.6-0.5c-0.7,0.4-1.4,0.7-2.1,0.9
	c-1.3,0.4-2.1,1.6-2.1,2.9v0.9h-3.5V92c0-1.3-0.9-2.5-2.1-2.9c-0.7-0.2-1.4-0.5-2.1-0.9c-1.2-0.6-2.6-0.4-3.6,0.6l-0.6,0.6L64.5,87
	l0.6-0.6c0.9-0.9,1.2-2.4,0.5-3.6c-0.4-0.7-0.6-1.4-0.9-2.1c-0.4-1.3-1.6-2.1-2.9-2.1H61v-3.5h0.9c1.3,0,2.5-0.9,2.9-2.1
	c0.2-0.7,0.5-1.4,0.9-2.1c0.6-1.2,0.4-2.6-0.5-3.6l-0.6-0.6l2.5-2.5l0.6,0.6c0.9,0.9,2.4,1.2,3.6,0.6c0.7-0.4,1.4-0.7,2.1-0.9
	c1.2-0.4,2-1.4,2.1-2.7h3.5c0.1,1.2,0.9,2.3,2.1,2.7c0.7,0.2,1.4,0.5,2.1,0.9c1.2,0.6,2.6,0.4,3.6-0.6l0.6-0.6l2.5,2.5L89,67.3
	c-0.9,0.9-1.2,2.4-0.5,3.6c0.4,0.7,0.7,1.4,0.9,2.1c0.4,1.3,1.6,2.1,2.9,2.1h0.9V78.6z"/>
</svg>
