<?xml version="1.0" encoding="utf-8"?>
<!-- Generator: Adobe Illustrator 15.0.2, SVG Export Plug-In . SVG Version: 6.00 Build 0)  -->
<!DOCTYPE svg PUBLIC "-//W3C//DTD SVG 1.1//EN" "http://www.w3.org/Graphics/SVG/1.1/DTD/svg11.dtd">
<svg version="1.1" id="Layer_1" xmlns="http://www.w3.org/2000/svg" xmlns:xlink="http://www.w3.org/1999/xlink" x="0px" y="0px"
	 width="120px" height="120px" viewBox="0 0 120 120" enable-background="new 0 0 120 120" xml:space="preserve">
<path fill="#9D003A" d="M110,0H10C4.49,0,0,4.48,0,10v100c0,5.51,4.48,10,10,10h100c5.51,0,10-4.48,10-10V10
	C120,4.49,115.52,0,110,0z M113,110c0,1.65-1.35,3-3,3H10c-1.65,0-3-1.35-3-3V10c0-1.65,1.35-3,3-3h100c1.65,0,3,1.35,3,3V110z"/>
<path fill="none" d="M120,110c0,5.52-4.49,10-10,10H10c-5.52,0-10-4.49-10-10V10C0,4.48,4.49,0,10,0h100c5.52,0,10,4.49,10,10V110z"
	/>
<path fill="#DD970A" d="M95.348,22.651c-0.958-0.957-2.122-1.438-3.49-1.438H65.571v-3.285c0-0.89-0.325-1.66-0.976-2.311
	c-0.65-0.649-1.42-0.976-2.311-0.976h-6.571c-0.891,0-1.661,0.326-2.311,0.976c-0.65,0.65-0.975,1.421-0.975,2.311v3.285H22.857
	c-0.89,0-1.66,0.326-2.31,0.976c-0.65,0.65-0.976,1.421-0.976,2.311v13.143c0,0.891,0.325,1.661,0.976,2.311
	c0.65,0.65,1.42,0.976,2.31,0.976h69c1.368,0,2.532-0.479,3.49-1.438l7.239-7.239c0.342-0.342,0.514-0.735,0.514-1.181
	c0-0.444-0.172-0.838-0.514-1.181L95.348,22.651L95.348,22.651z"/>
<path fill="#DD970A" d="M52.429,103.357c0,0.89,0.325,1.659,0.975,2.31c0.65,0.65,1.42,0.976,2.311,0.976h6.571
	c0.891,0,1.66-0.325,2.311-0.976s0.976-1.42,0.976-2.31V77.071H52.429V103.357L52.429,103.357z"/>
<path fill="#DD970A" d="M65.571,54.071v-9.857H52.429v9.857H26.143c-1.369,0-2.533,0.479-3.491,1.438l-7.239,7.239
	c-0.343,0.342-0.514,0.736-0.514,1.181c0,0.445,0.171,0.839,0.514,1.181l7.239,7.239c0.958,0.958,2.122,1.438,3.491,1.438h69
	c0.89,0,1.66-0.325,2.311-0.976s0.976-1.42,0.976-2.311V57.357c0-0.89-0.325-1.66-0.976-2.311c-0.65-0.649-1.421-0.976-2.311-0.976
	H65.571L65.571,54.071z"/>
<polygon fill="#211D63" points="89.43,28 85.6,35 25,35 29.43,28 "/>
<polygon fill-rule="evenodd" clip-rule="evenodd" fill="none" points="89.43,28 85.6,35 25,35 29.43,28 "/>
<polygon fill="#211D63" points="90.43,68 29.83,68 26,61 86,61 "/>
<polygon fill-rule="evenodd" clip-rule="evenodd" fill="none" points="90.43,68 29.83,68 26,61 86,61 "/>
</svg>
