<?xml version="1.0" encoding="utf-8"?>
<!-- Generator: Adobe Illustrator 15.0.2, SVG Export Plug-In . SVG Version: 6.00 Build 0)  -->
<!DOCTYPE svg PUBLIC "-//W3C//DTD SVG 1.1//EN" "http://www.w3.org/Graphics/SVG/1.1/DTD/svg11.dtd">
<svg version="1.1" id="Layer_1" xmlns="http://www.w3.org/2000/svg" xmlns:xlink="http://www.w3.org/1999/xlink" x="0px" y="0px"
	 width="120px" height="120px" viewBox="0 0 120 120" enable-background="new 0 0 120 120" xml:space="preserve">
<path fill="#DE2561" d="M68.291,29.803c-5.563-2.345-11.611-3.517-18.148-3.517s-12.587,1.172-18.148,3.517
	c-5.563,2.345-9.951,5.536-13.168,9.574C15.608,43.416,14,47.814,14,52.571c0,4.073,1.215,7.906,3.646,11.5
	c2.43,3.594,5.767,6.623,10.011,9.087c-0.343,0.821-0.693,1.575-1.053,2.259c-0.359,0.686-0.787,1.344-1.283,1.977
	c-0.496,0.634-0.882,1.13-1.155,1.489c-0.274,0.359-0.719,0.864-1.335,1.515s-1.01,1.078-1.181,1.283
	c-0.034,0.034-0.103,0.111-0.205,0.231s-0.18,0.205-0.231,0.257c-0.051,0.051-0.12,0.137-0.205,0.256
	c-0.086,0.121-0.146,0.215-0.18,0.283c-0.034,0.068-0.077,0.153-0.128,0.256c-0.052,0.104-0.086,0.206-0.104,0.309
	s-0.025,0.214-0.025,0.334s0.017,0.23,0.052,0.333c0.068,0.445,0.265,0.805,0.59,1.078c0.325,0.274,0.676,0.411,1.053,0.411h0.154
	c1.711-0.239,3.183-0.514,4.415-0.821c5.271-1.369,10.028-3.56,14.272-6.571c3.08,0.548,6.092,0.821,9.035,0.821
	c6.537,0,12.586-1.172,18.148-3.517c5.562-2.345,9.951-5.536,13.169-9.575c3.217-4.038,4.826-8.437,4.826-13.194
	c0-4.757-1.609-9.155-4.826-13.194C78.242,35.339,73.853,32.147,68.291,29.803L68.291,29.803z"/>
<path fill="#DE2561" d="M102.149,53.906c-2.566-3.662-6.058-6.708-10.473-9.139c0.786,2.567,1.181,5.169,1.181,7.804
	c0,4.587-1.147,8.934-3.44,13.04c-2.293,4.107-5.579,7.735-9.856,10.884c-3.971,2.875-8.489,5.083-13.554,6.623
	c-5.065,1.54-10.354,2.311-15.864,2.311c-1.026,0-2.533-0.068-4.518-0.205C52.505,89.741,60.582,92,69.857,92
	c2.943,0,5.955-0.273,9.035-0.821c4.244,3.011,9.002,5.202,14.272,6.571c1.232,0.308,2.703,0.582,4.415,0.821
	c0.411,0.034,0.787-0.086,1.13-0.359c0.342-0.274,0.564-0.65,0.667-1.129c0.034-0.104,0.052-0.215,0.052-0.334
	c0-0.12-0.009-0.231-0.025-0.334c-0.019-0.103-0.052-0.205-0.104-0.308c-0.051-0.103-0.095-0.188-0.128-0.257
	c-0.034-0.069-0.095-0.163-0.18-0.282c-0.086-0.121-0.154-0.206-0.205-0.257c-0.052-0.052-0.129-0.138-0.231-0.257
	c-0.103-0.12-0.172-0.197-0.205-0.231c-0.172-0.205-0.564-0.634-1.181-1.283c-0.616-0.65-1.062-1.155-1.335-1.515
	c-0.274-0.359-0.659-0.854-1.155-1.488c-0.496-0.633-0.924-1.292-1.283-1.977s-0.711-1.438-1.053-2.259
	c4.243-2.465,7.58-5.485,10.011-9.062S106,69.821,106,65.714C106,61.505,104.717,57.569,102.149,53.906L102.149,53.906z"/>
<path fill="#211D63" d="M77.956,28.747l-1.297-0.75c-0.095-0.055-9.662-5.5-24.757-6.417c-15.023-0.912-28.033,6.35-28.162,6.424
	l-1.304,0.739l-1.48-2.607l1.303-0.741c0.559-0.318,13.887-7.783,29.825-6.809c15.852,0.962,25.672,6.578,26.082,6.816l1.295,0.753
	L77.956,28.747z"/>
<path fill="#211D63" d="M70.748,99.57c-3.38,0-8.795-0.2-13.736-1.265c-7.822-1.688-14.528-5.858-14.81-6.035l-1.27-0.797
	l1.594-2.54l1.271,0.796c0.064,0.04,6.556,4.071,13.847,5.644c7.372,1.588,16.187,1.134,16.275,1.129l1.498-0.081l0.162,2.996
	l-1.498,0.081C73.944,99.505,72.678,99.57,70.748,99.57z"/>
<path fill="#015365" d="M110,0H10C4.49,0,0,4.48,0,10v100c0,5.51,4.48,10,10,10h100c5.51,0,10-4.48,10-10V10
	C120,4.49,115.52,0,110,0z M113,110c0,1.65-1.35,3-3,3H10c-1.65,0-3-1.35-3-3V10c0-1.65,1.35-3,3-3h100c1.65,0,3,1.35,3,3V110z"/>
</svg>
