<?xml version="1.0" encoding="utf-8"?>
<!-- Generator: Adobe Illustrator 15.0.2, SVG Export Plug-In . SVG Version: 6.00 Build 0)  -->
<!DOCTYPE svg PUBLIC "-//W3C//DTD SVG 1.1//EN" "http://www.w3.org/Graphics/SVG/1.1/DTD/svg11.dtd">
<svg version="1.1" id="Layer_1" xmlns="http://www.w3.org/2000/svg" xmlns:xlink="http://www.w3.org/1999/xlink" x="0px" y="0px"
	 width="120px" height="120px" viewBox="0 0 120 120" enable-background="new 0 0 120 120" xml:space="preserve">
<path fill="#F5433D" d="M110,0H10C4.49,0,0,3.98,0,9.5v100c0,5.51,4.48,10.5,10,10.5h100c5.51,0,10-4.98,10-10.5V9.5
	C120,3.99,115.52,0,110,0z M113,110c0,1.657-1.343,3-3,3H10c-1.657,0-3-1.343-3-3V10c0-1.657,1.343-3,3-3h100c1.657,0,3,1.343,3,3
	V110z"/>
<g>
	<polygon fill="#FAE3BC" points="106,37.107 106,21.732 65.75,21.732 29.875,33.197 49,21.732 37.625,21.732 14,42.482 14,50.107 
		24.064,38.209 14,62.857 14,82.982 25,82.982 26.926,38.411 37,71.982 50,67.982 31.581,39.901 66.375,60.982 74.5,45.607 
		35,37.37 33,35.732 	"/>
	<polygon fill="#211D63" points="14,98.268 105.583,98.268 105.583,59.21 78.654,32.739 45.525,65.021 35.263,55.008 14,76.174 	"/>
	<path fill-rule="evenodd" clip-rule="evenodd" fill="#F1A122" d="M26.689,47.111c7.009,0,12.689-5.682,12.689-12.69
		s-5.681-12.689-12.689-12.689C19.682,21.732,14,27.413,14,34.421S19.682,47.111,26.689,47.111L26.689,47.111z"/>
</g>
</svg>
