<svg width="120" height="120" viewBox="0 0 120 120" xmlns="http://www.w3.org/2000/svg" xmlns:xlink="http://www.w3.org/1999/xlink"><title>Group 54</title><defs><rect id="a" width="120" height="120" rx="10"/><mask id="b" x="0" y="0" width="120" height="120" fill="#fff"><use xlink:href="#a"/></mask></defs><g fill="none" fill-rule="evenodd"><path fill-opacity=".3" fill="#F2A324" d="M29.581 46.75l4.455-2.27L49.2 67.057 36.81 73.37zm-7.423-.991l-8.215 18.253v13.37l11.781-11.234 1.34-19.954zM16.052 41.1l-2.288 2.009-.07 8.557 6.128-7.395zm19.278 1.595l22.905 14.287 9.451-11.742-31.766-6.866zm1.725-13.38l12.078-6.764-11.291-.028-4.325 4.242zm1.361 2.397l27.91-9.406h39.627v15.86l-68.507-2.064z"/><use stroke="#F6433E" mask="url(#b)" stroke-width="14" xlink:href="#a"/><path fill="#222064" d="M14 77.067l21.263-21.166 10.263 10.013 33.128-32.282 26.929 26.471v39.058H14z"/><ellipse fill="#F2A324" cx="26.69" cy="34.69" rx="12.69" ry="12.69"/></g></svg>