<?xml version="1.0" encoding="utf-8"?>
<!-- Generator: Adobe Illustrator 21.0.2, SVG Export Plug-In . SVG Version: 6.00 Build 0)  -->
<svg version="1.1" id="Layer_1" xmlns="http://www.w3.org/2000/svg" xmlns:xlink="http://www.w3.org/1999/xlink" x="0px" y="0px"
	 width="100px" height="100px" viewBox="0 0 100 100" style="enable-background:new 0 0 100 100;" xml:space="preserve">
<style type="text/css">
	.st0{fill:#0A5365;}
</style>
<g>
	<g>
		<g>
			<g>
				<path class="st0" d="M83,55.8c1.4-3.5,2.1-7.2,2.1-10.8C85.1,28.4,71.7,15,55.2,15h-1.5v31l28.8,11.2L83,55.8z M80.8,53.3
					l-24.1-9.4V18c14.2,0.8,25.5,12.6,25.5,26.9C82.1,47.8,81.7,50.6,80.8,53.3z"/>
				<path class="st0" d="M81.2,86.8L67.5,73.1c4.2-3.2,7.5-7.6,9.6-12.8l0.5-1.4L50.7,48.4V19.5h-1.5c-5.8,0-11.2,1.7-15.8,4.6
					l-15-15H2.7v3h14.4l13.8,13.8c-7.1,5.5-11.7,14-11.7,23.7c0,8.9,3.9,16.8,10,22.3L14.1,86.8H2.7v3h12.6l16.2-16.2
					c4.9,3.6,11,5.8,17.6,5.8c5.8,0,11.2-1.6,15.8-4.5l15,15h15.6v-3H81.2z M22.2,49.4c0-8.8,4.2-16.6,10.8-21.5l6.1,6.1l2.1-2.1
					l-5.7-5.7c3.6-2.1,7.7-3.4,12.1-3.7v26.1L25.6,62.4C23.4,58.5,22.2,54.1,22.2,49.4z M33.7,71.5l4.5-4.5l-2.1-2.1l-4.8,4.8
					c-1.6-1.4-3-2.9-4.2-4.7l19.3-12l-7.2,21.6C37.3,73.7,35.4,72.7,33.7,71.5z M59.2,64.8l-2.1,2.1l5.7,5.7
					c-4,2.4-8.7,3.7-13.6,3.7c-2.5,0-4.8-0.4-7.1-1l8-24l23.6,9.2c-1.9,4.2-4.8,7.8-8.3,10.4L59.2,64.8z"/>
				<rect x="92.6" y="92.8" class="st0" width="3" height="3"/>
				<rect x="80.6" y="92.8" class="st0" width="9" height="3"/>
				<rect x="2.7" y="3" class="st0" width="3" height="3"/>
				<rect x="8.7" y="3" class="st0" width="9" height="3"/>
				<rect x="2.7" y="92.8" class="st0" width="3" height="3"/>
				<rect x="8.7" y="92.8" class="st0" width="7.5" height="3"/>
			</g>
		</g>
	</g>
</g>
</svg>
