<svg id="Layer_1" xmlns="http://www.w3.org/2000/svg" width="100" height="100" viewBox="0 0 100 100"><style>.st0{fill:#0a5365}</style><path class="st0" d="M83 55.8c1.4-3.5 2.1-7.2 2.1-10.8 0-16.6-13.4-30-29.9-30h-1.5v31l28.8 11.2.5-1.4zm-2.2-2.5l-24.1-9.4V18c14.2.8 25.5 12.6 25.5 26.9-.1 2.9-.5 5.7-1.4 8.4z"/><path class="st0" d="M81.2 86.8L67.5 73.1c4.2-3.2 7.5-7.6 9.6-12.8l.5-1.4-26.9-10.5V19.5h-1.5c-5.8 0-11.2 1.7-15.8 4.6l-15-15H2.7v3h14.4l13.8 13.8c-7.1 5.5-11.7 14-11.7 23.7 0 8.9 3.9 16.8 10 22.3L14.1 86.8H2.7v3h12.6l16.2-16.2c4.9 3.6 11 5.8 17.6 5.8 5.8 0 11.2-1.6 15.8-4.5l15 15h15.6v-3H81.2zm-59-37.4c0-8.8 4.2-16.6 10.8-21.5l6.1 6.1 2.1-2.1-5.7-5.7c3.6-2.1 7.7-3.4 12.1-3.7v26.1l-22 13.8c-2.2-3.9-3.4-8.3-3.4-13zm11.5 22.1l4.5-4.5-2.1-2.1-4.8 4.8c-1.6-1.4-3-2.9-4.2-4.7l19.3-12-7.2 21.6c-1.9-.9-3.8-1.9-5.5-3.1zm25.5-6.7l-2.1 2.1 5.7 5.7c-4 2.4-8.7 3.7-13.6 3.7-2.5 0-4.8-.4-7.1-1l8-24 23.6 9.2c-1.9 4.2-4.8 7.8-8.3 10.4l-6.2-6.1zm33.4 28h3v3h-3zm-12 0h9v3h-9zM2.7 3h3v3h-3zm6 0h9v3h-9zm-6 89.8h3v3h-3zm6 0h7.5v3H8.7z"/></svg>