<?xml version="1.0" encoding="utf-8"?>
<!-- Generator: Adobe Illustrator 21.0.2, SVG Export Plug-In . SVG Version: 6.00 Build 0)  -->
<svg version="1.1" id="Layer_1" xmlns="http://www.w3.org/2000/svg" xmlns:xlink="http://www.w3.org/1999/xlink" x="0px" y="0px"
	 width="100px" height="100px" viewBox="0 0 100 100" style="enable-background:new 0 0 100 100;" xml:space="preserve">
<style type="text/css">
	.st0{fill:#0A5365;}
</style>
<g>
	<g>
		<path class="st0" d="M36.1,23.9c-0.3-0.6-0.9-1-1.6-1c-0.3,0-0.5,0.1-0.8,0.2c-6.1,3-11.3,7.6-15,13.4C15,42.3,13,49.2,13,56.3
			v7.3h-3c-1.6,0-2.9-1.4-2.9-3V50.5c0-1.2,0.8-2.3,2-2.7c0.4-0.1,0.8-0.4,1-0.9c0.2-0.4,0.3-0.9,0.1-1.4c-0.2-0.8-0.9-1.2-1.7-1.2
			c-0.2,0-0.4,0-0.5,0.1c-2.7,0.9-4.5,3.3-4.5,6.1v10.2c0,3.5,3,6.5,6.4,6.5h4.6c1,0,1.9-0.9,1.9-1.9v-9c0-12.9,7.2-24.4,18.8-30.1
			c0.4-0.2,0.7-0.6,0.9-1C36.3,24.8,36.3,24.3,36.1,23.9z M91.6,44.4c-0.4-0.1-0.9-0.1-1.3,0.1c-0.4,0.2-0.7,0.6-0.9,1
			c-0.1,0.5-0.1,0.9,0.1,1.4c0.2,0.4,0.6,0.7,1,0.9c1.2,0.4,2,1.5,2,2.7v10.2c0,1.6-1.2,3-2.8,3h-3.6l0.1-0.5
			c0.4-2.2,0.6-4.5,0.6-6.7c0-4.4-0.8-8.8-2.3-12.9l-0.1-0.3l0.2-0.2c2.7-3.1,4.6-7,5.4-11c0.2-0.8,0.3-1.4,0.4-2.1
			c0.1-1,0.2-2,0.2-3c0-4-1-8-2.8-11.6c0-0.1,0-0.1-0.1-0.2C84.1,8.5,77.9,3.9,70.6,2.5C69,2.2,67.4,2,65.8,2h-0.1
			c-1.6,0-3.3,0.2-4.9,0.5c-7.3,1.5-13.5,6.1-17,12.7c0,0,0,0.1-0.1,0.1c-1.9,3.6-2.9,7.6-2.9,11.6c0,1,0.1,1.9,0.2,2.9
			c0.1,0.7,0.2,1.5,0.4,2.2c2.4,11.5,12.7,19.8,24.3,19.8c5.6,0,11-1.9,15.4-5.4l0.5-0.4l0.2,0.6c1,3.1,1.4,6.4,1.4,9.8
			c0,14.7-9.4,27.5-23.5,31.9l-0.3,0.1L59.3,88c-1.2-2-3.5-3.3-5.8-3.3h-7.3c-3.7,0-6.7,3-6.7,6.7c0,3.7,3,6.7,6.7,6.7h7.3
			c3.5,0,6.4-2.6,6.7-6.1l0-0.3l0.3-0.1c7.2-2.2,13.7-6.6,18.3-12.4c2.8-3.5,4.9-7.5,6.3-11.8l0.1-0.3h4.4c3.5,0,6.3-2.9,6.3-6.5
			V50.5C96,47.7,94.2,45.3,91.6,44.4z M53.5,94.6h-7.3c-1.8,0-3.2-1.4-3.2-3.2c0-1.8,1.4-3.2,3.2-3.2h7.3c1.5,0,2.8,1.1,3.1,2.5
			l0,0.1c0,0.2,0.1,0.4,0.1,0.6C56.7,93.2,55.3,94.6,53.5,94.6z M84.8,18.3l0.4-0.1l0.2,0.4c1.1,2.6,1.7,5.4,1.7,8.2
			c0,0.6,0,1.2-0.1,1.7c0,0.5-0.1,1-0.2,1.5l0,0.3l-0.2,0.1c-3,1.3-6.3,2.3-9.8,2.9l-0.6,0.1l0.1-0.6c0.2-1.9,0.3-4,0.3-6
			c0-2-0.1-4-0.3-5.9l0-0.4l0.4-0.1C79.4,19.9,82.2,19.2,84.8,18.3z M73.3,6.9c4,1.5,7.4,4.1,9.8,7.6l0.4,0.5l-0.6,0.2
			c-2.1,0.7-4.4,1.3-6.7,1.7L75.7,17l-0.1-0.4c-0.5-2.5-1.1-4.7-1.9-6.7c-0.3-0.8-0.7-1.6-1.1-2.3l-0.5-1.1L73.3,6.9z M73,26.8
			c0,2.3-0.1,4.6-0.4,6.8l0,0.4l-0.4,0c-2.1,0.2-4.3,0.3-6.4,0.3c-2.2,0-4.3-0.1-6.4-0.3l-0.4,0l0-0.4c-0.3-2.2-0.4-4.5-0.4-6.8
			c0-1.8,0.1-3.6,0.3-5.4l0-0.5l0.4,0c4.3,0.4,8.7,0.4,13,0l0.4,0l0,0.5C72.9,23.2,73,25,73,26.8z M61,11.2c1.6-4.2,3.5-5.6,4.7-5.6
			s3.1,1.5,4.7,5.6c0.7,1.7,1.2,3.7,1.6,5.8l0.1,0.5l-0.5,0c-1.9,0.2-3.9,0.3-6,0.3c-2,0-4-0.1-6-0.3l-0.5,0l0.1-0.5
			C59.8,14.9,60.3,12.9,61,11.2z M48.3,14.5c2.5-3.5,5.9-6.1,9.8-7.6l1.1-0.4l-0.6,1.1c-0.4,0.7-0.7,1.5-1,2.3
			c-0.8,2-1.4,4.2-1.9,6.7L55.7,17l-0.4-0.1c-2.3-0.4-4.6-1-6.7-1.7L48,15.1L48.3,14.5z M44.7,30.3l0-0.3c-0.1-0.5-0.1-0.9-0.2-1.4
			h0l0-0.4c0-0.4-0.1-0.9-0.1-1.4c0-2.9,0.6-5.6,1.7-8.2l0.2-0.4l0.4,0.1c2.6,0.9,5.3,1.6,8.2,2.1l0.4,0.1l0,0.4
			c-0.2,1.9-0.3,3.9-0.3,5.9c0,2,0.1,4.1,0.3,6l0.1,0.6l-0.6-0.1c-3.4-0.7-6.7-1.6-9.7-2.9L44.7,30.3z M58.2,46.8
			c-5.3-2-9.6-6.1-11.9-11.2l-0.4-0.9l1,0.3c2.7,0.9,5.7,1.7,8.7,2.2l0.3,0l0.1,0.3c0.4,2.3,1.1,4.5,1.8,6.3c0.3,0.8,0.7,1.6,1,2.3
			l0.6,1.1L58.2,46.8z M71.8,38.2c-0.4,1.6-0.8,3-1.3,4.3c-1.6,4.2-3.5,5.6-4.7,5.6s-3.1-1.5-4.7-5.6c-0.5-1.3-0.9-2.7-1.3-4.3
			l-0.1-0.6l0.6,0c3.6,0.3,7.5,0.3,11.1,0l0.6,0L71.8,38.2z M73.3,46.8l-1.1,0.4l0.6-1.1c0.4-0.7,0.7-1.5,1.1-2.3
			c0.7-1.9,1.3-4,1.8-6.3l0.1-0.3l0.3,0c3-0.5,5.9-1.2,8.7-2.2l1-0.3l-0.4,0.9C82.9,40.7,78.5,44.8,73.3,46.8z"/>
		<path class="st0" d="M35.3,26.3c-11.6,5.6-18.8,17.2-18.8,30.1v9c0,1-0.9,1.9-1.9,1.9H10c-3.5,0-6.4-3-6.4-6.5V50.5
			c0-2.8,1.8-5.2,4.5-6.1c0.2-0.1,0.4-0.1,0.5-0.1c0.8,0,1.5,0.5,1.7,1.2c0.1,0.4,0.1,0.9-0.1,1.4c-0.2,0.4-0.6,0.7-1,0.9
			c-1.2,0.4-2,1.5-2,2.7v10.2c0,1.6,1.3,3,2.9,3h3v-7.3c0-7.1,2-14,5.7-19.9c3.7-5.8,8.9-10.4,15-13.4c0.3-0.1,0.5-0.2,0.8-0.2
			c0.7,0,1.3,0.4,1.6,1c0.2,0.4,0.2,0.9,0.1,1.4C36.1,25.7,35.7,26.1,35.3,26.3z"/>
	</g>
</g>
</svg>
