<?xml version="1.0" encoding="utf-8"?>
<!-- Generator: Adobe Illustrator 21.0.2, SVG Export Plug-In . SVG Version: 6.00 Build 0)  -->
<svg version="1.1" id="Layer_1" xmlns="http://www.w3.org/2000/svg" xmlns:xlink="http://www.w3.org/1999/xlink" x="0px" y="0px"
	 viewBox="0 0 400 308" style="enable-background:new 0 0 400 308;" xml:space="preserve">
<style type="text/css">
	.st0{opacity:0.7;}
	.st1{fill:#565D5E;}
</style>
<g class="st0">
	<path class="st1" d="M100.2,305c-14.4,0-27-3-37.8-9c-10.8-6-20-13.8-27.6-23.4c-7.6-9.6-13.4-20.6-17.4-33c-4-12.4-6-25-6-37.8
		c0-28,3.4-51.6,10.2-70.8s16.6-36,29.4-50.4s28-27.4,45.6-39C114.2,29.8,133.4,18,154.3,6c5.6-3.2,10.4-1.6,14.4,4.8
		c4,6.4,3.2,11.6-2.4,15.6c-12.8,9.6-24.8,19-36,28.2c-11.2,9.2-20.8,18.8-28.8,28.8c-8,10-13.4,21-16.2,33
		c-2.8,12-2.2,25.6,1.8,40.8c1.6,6.4,4.4,10.6,8.4,12.6c4,2,10.8,3.4,20.4,4.2c18.4,1.6,32.2,8.6,41.4,21
		c9.2,12.4,13.8,27.8,13.8,46.2c0,18.4-7.2,33.6-21.6,45.6C135.1,299,118.6,305,100.2,305z M317.6,305c-14.4,0-27-3-37.8-9
		c-10.8-6-20-13.8-27.6-23.4c-7.6-9.6-13.4-20.6-17.4-33c-4-12.4-6-25-6-37.8c0-28,3.4-51.6,10.2-70.8c6.8-19.2,16.6-36,29.4-50.4
		c12.8-14.4,28-27.4,45.6-39C331.6,29.8,350.8,18,371.6,6c5.6-3.2,10.4-1.6,14.4,4.8c4,6.4,3.2,11.6-2.4,15.6
		c-12.8,9.6-24.8,19-36,28.2c-11.2,9.2-20.8,18.8-28.8,28.8c-8,10-13.4,21-16.2,33c-2.8,12-2.2,25.6,1.8,40.8
		c1.6,6.4,4.4,10.6,8.4,12.6c4,2,10.8,3.4,20.4,4.2c18.4,1.6,32.2,8.6,41.4,21c9.2,12.4,13.8,27.8,13.8,46.2
		c0,18.4-7.2,33.6-21.6,45.6C352.4,299,336,305,317.6,305z"/>
</g>
</svg>
