<?xml version="1.0" encoding="utf-8"?>
<!-- Generator: Adobe Illustrator 21.0.2, SVG Export Plug-In . SVG Version: 6.00 Build 0)  -->
<svg version="1.1" id="Layer_1" xmlns="http://www.w3.org/2000/svg" xmlns:xlink="http://www.w3.org/1999/xlink" x="0px" y="0px"
	 viewBox="0 0 400 308" style="enable-background:new 0 0 400 308;" xml:space="preserve">
<style type="text/css">
	.st0{fill:#0A5365;}
</style>
<g>
	<path class="st0" d="M101.5,304c-14.4,0-26.9-3-37.7-9c-10.8-6-19.9-13.7-27.5-23.3c-7.6-9.6-13.4-20.5-17.3-32.9
		c-4-12.3-6-24.9-6-37.7c0-27.9,3.4-51.4,10.2-70.6s16.6-35.9,29.3-50.2s27.9-27.3,45.4-38.9c17.5-11.6,36.7-23.3,57.4-35.3
		c5.6-3.2,10.4-1.6,14.4,4.8c4,6.4,3.2,11.6-2.4,15.6c-12.7,9.6-24.7,19-35.9,28.1c-11.2,9.2-20.7,18.8-28.7,28.7
		c-8,10-13.4,20.9-16.1,32.9c-2.8,12-2.2,25.5,1.8,40.7c1.6,6.4,4.4,10.6,8.4,12.5c4,2,10.8,3.4,20.3,4.2
		c18.3,1.6,32.1,8.6,41.3,20.9c9.2,12.4,13.8,27.7,13.8,46c0,18.4-7.2,33.5-21.5,45.4S119.8,304,101.5,304z M318,304
		c-14.4,0-26.9-3-37.7-9c-10.8-6-20-13.7-27.5-23.3c-7.6-9.6-13.4-20.5-17.3-32.9c-4-12.3-6-24.9-6-37.7c0-27.9,3.4-51.4,10.2-70.6
		c6.8-19.1,16.5-35.9,29.3-50.2c12.7-14.3,27.9-27.3,45.4-38.9c17.5-11.6,36.7-23.3,57.4-35.3c5.6-3.2,10.4-1.6,14.4,4.8
		c4,6.4,3.2,11.6-2.4,15.6c-12.8,9.6-24.7,19-35.9,28.1c-11.2,9.2-20.7,18.8-28.7,28.7c-8,10-13.4,20.9-16.1,32.9
		c-2.8,12-2.2,25.5,1.8,40.7c1.6,6.4,4.4,10.6,8.4,12.5c4,2,10.8,3.4,20.3,4.2c18.3,1.6,32.1,8.6,41.3,20.9
		c9.2,12.4,13.7,27.7,13.7,46c0,18.4-7.2,33.5-21.5,45.4C352.7,298,336.3,304,318,304z"/>
</g>
</svg>
