<svg width="1474" height="564" viewBox="0 0 1474 564" xmlns="http://www.w3.org/2000/svg"><title>Group 7</title><g fill="none" fill-rule="evenodd"><rect fill="#FAEAD6" width="1474" height="564" rx="15"/><g fill="#14133B"><text font-family="Menlo-Bold, Menlo" font-size="40" font-weight="bold" transform="translate(119 126)"><tspan x="0" y="116">_assets</tspan></text><text font-family="FontAwesome" font-size="70" transform="translate(119 126)"><tspan x="47" y="60"></tspan></text></g><g fill="#14133B"><text font-family="Menlo-Bold, Menlo" font-size="40" font-weight="bold" transform="translate(689 124)"><tspan x="0" y="116">assets</tspan></text><text font-family="FontAwesome" font-size="70" transform="translate(689 124)"><tspan x="35" y="60"></tspan></text></g><g fill="#14133B"><text font-family="Menlo-Bold, Menlo" font-size="40" font-weight="bold" transform="translate(1235 124)"><tspan x="0" y="116">_site</tspan></text><text font-family="FontAwesome" font-size="70" transform="translate(1235 124)"><tspan x="23" y="60"></tspan></text></g><path fill="#F6433E" d="M1311.02 288.468l-45.54 36.14 47.128 21.976z"/><path d="M194 299s38.531 125.738 558.633 125.738c520.101 0 549-105.617 549-105.617" stroke="#F6433E" stroke-width="14" stroke-linecap="square"/><path d="M346 188h232.5" stroke="#9E023B" stroke-width="14" stroke-linecap="square"/><path fill="#9E023B" d="M631 187l-52 26v-52z"/><path fill="#FAEAD6" d="M411 160h102v53H411z"/><text font-family="Roboto-Bold, Roboto" font-size="40" font-weight="bold" fill="#9E023B" transform="translate(411 160)"><tspan x="13" y="37">gulp</tspan></text><path d="M892 184h232.5" stroke="#0A5365" stroke-width="14" stroke-linecap="square"/><path fill="#0A5365" d="M1177 184l-52 26v-52z"/><path fill="#FAEAD6" d="M949 159h118v49H949z"/><text font-family="Roboto-Bold, Roboto" font-size="40" font-weight="bold" fill="#0A5365" transform="translate(949 159)"><tspan x="13" y="37">jekyll</tspan></text><path fill="#FAEAD6" d="M642 399h221v42H642z"/><text font-family="Roboto-Bold, Roboto" font-size="40" font-weight="bold" fill="#F6433E" transform="translate(642 394)"><tspan x="12" y="37">gulp.watch</tspan></text></g></svg>